<svg id="Layer_1" data-name="Layer 1" xmlns="http://www.w3.org/2000/svg" xmlns:xlink="http://www.w3.org/1999/xlink" viewBox="0 0 806.67 600"><defs><style>.cls-1{fill:url(#linear-gradient);}</style><linearGradient id="linear-gradient" x1="586.91" y1="116.42" x2="219.75" y2="483.58" gradientUnits="userSpaceOnUse"><stop offset="0" stop-color="#ff425f"/><stop offset="1" stop-color="#eb2441"/></linearGradient></defs><title>guide</title><path class="cls-1" d="M378,198.19a1,1,0,1,1-1.35,1.6c-3.21-2.71-6.4-5.32-9.46-7.76a1,1,0,1,1,1.3-1.64C371.54,192.84,374.74,195.46,378,198.19Zm-25.84-25a1,1,0,1,0-1.92.82,30.41,30.41,0,0,0,7.36,10.22,1,1,0,1,0,1.44-1.52A28.39,28.39,0,0,1,352.13,173.24Zm32.52-.95c-4.19-4.6-6-9.69-5-14.34.95-4.39,4.29-8,9.42-10.25a3.54,3.54,0,0,1,1.44,0c1.45.81,3,1.59,4.43,2.35a80.22,80.22,0,0,1,9.71,5.63c10.58,7.54,15.73,18.73,19,27.64a4.49,4.49,0,0,1,.26,1.56,12.48,12.48,0,0,1-2.47,6.52c-.93,1.26-3.31,2.17-5.19,2.17a3.85,3.85,0,0,1-1.57-.29C402.22,187.64,392.37,180.75,384.65,172.29Zm-3.13-11.74c0,3.38,1.62,7,4.68,10.33q1.09,1.2,2.24,2.35l.14.14h0a88,88,0,0,0,23.84,16.55q1.57.77,3.21,1.52c.92.42,3.57-.34,4.21-1.22a10.44,10.44,0,0,0,2.07-5.28,2.42,2.42,0,0,0-.13-.84c-4.76-12.82-10.4-21-18.29-26.67A78.61,78.61,0,0,0,394,152c-1.4-.73-2.85-1.48-4.26-2.26-4.39,1.94-7.24,5-8,8.69A10.26,10.26,0,0,0,381.51,160.55Zm-29-10.63a1,1,0,1,0-2-.6,57.65,57.65,0,0,0-2.26,12.26,1,1,0,0,0,1,1.12h.08a1,1,0,0,0,1-1A55.66,55.66,0,0,1,352.54,149.91Zm39.14,60.26q-2.2-2-4.42-3.95a1,1,0,1,0-1.38,1.57q2.21,2,4.41,3.94a19.72,19.72,0,0,1,3.67,4.75,1,1,0,1,0,1.8-1.07A21.67,21.67,0,0,0,391.68,210.18Zm65-32a37.1,37.1,0,0,0-7.52,10,1,1,0,1,0,1.89.9,35.21,35.21,0,0,1,7.12-9.47,1,1,0,1,0-1.48-1.47ZM432.67,220a25.14,25.14,0,0,1-8.93,4.4l-1.74.47a1,1,0,1,0,.53,2l1.76-.47a27.2,27.2,0,0,0,9.67-4.77,1,1,0,0,0-1.29-1.65Zm-22.55,8c-1.39.39-2.78.8-4.15,1.23-2.19.69-3.49.25-4.48-1.68-.16-.31-.31-.63-.44-1a1,1,0,1,0-1.93.8c.16.38.33.75.51,1.12a5,5,0,0,0,4.63,3.11,7.75,7.75,0,0,0,2.33-.4c1.36-.43,2.72-.83,4.09-1.21a1,1,0,1,0-.56-2Zm36.11-28.8a1,1,0,0,0-1.36.59c-1,2.51-2,5-3,7.48-.54,1.29-1.12,2.52-1.73,3.67a1,1,0,0,0,1.84,1c.64-1.2,1.26-2.5,1.82-3.85,1-2.52,2.07-5,3.06-7.52A1,1,0,0,0,446.23,199.21ZM327,271.57q-3.75,5.34-7.48,10.69a1,1,0,1,0,1.72,1.19q3.72-5.35,7.47-10.68a1,1,0,1,0-1.71-1.2Zm14.18-33.77a8.28,8.28,0,0,1,1.19,1.39,1,1,0,1,0,1.73-1.17,10.35,10.35,0,0,0-1.49-1.74,65.14,65.14,0,0,1-7.22-8,1,1,0,1,0-1.66,1.27A67.22,67.22,0,0,0,341.2,237.79Zm2.35,12.3a1.08,1.08,0,0,0-1.45.38c-1.28,2.06-2.81,4.05-4.28,6-1,1.28-2,2.6-2.94,3.94l-.36.52a1,1,0,1,0,1.71,1.2l.36-.52c.92-1.31,1.92-2.61,2.88-3.87,1.5-2,3.06-4,4.39-6.14l.06-.09A1,1,0,0,0,343.55,250.09Zm-20.34-38.25c1.15,2.39,2.26,4.54,3.39,6.6a1,1,0,0,0,1.83-1c-1.12-2-2.21-4.15-3.34-6.5a34.06,34.06,0,0,0-3-5,1,1,0,1,0-1.7,1.22A32,32,0,0,1,323.21,211.84ZM554.69,87.1V512.9a7,7,0,0,1-7,7H259a7,7,0,0,1-7-7V87.1a7,7,0,0,1,7-7H547.69A7,7,0,0,1,554.69,87.1Zm-39.56,7H266V505.9H515.13Zm25.56,0H529.13V505.9h11.56ZM308.87,293.21V139.84a5,5,0,0,1,5-5H467.24a5,5,0,0,1,5,5V293.21a5,5,0,0,1-5,5H313.87A5,5,0,0,1,308.87,293.21Zm10-27.37.08-.13h0q3.5-5.53,6.68-10.94,1.12-1.9,2.21-3.81a7.09,7.09,0,0,0,.4-.83c0-.08.06-.16.09-.24s.15-.43.21-.65,0-.18.07-.27.09-.45.13-.68,0-.17,0-.25a8.83,8.83,0,0,0,.06-1,10.65,10.65,0,0,0-.13-1.6l0-.18c0-.21-.07-.41-.12-.63s-.05-.22-.08-.33-.08-.32-.12-.48a19.58,19.58,0,0,0-1.87-4.33c-.76-1.32-1.52-2.63-2.29-3.94l-1.68-2.89h0l-.1-.17-.46-.8q-.7-1.22-1.41-2.49l-.49-.89c-.4-.72-.79-1.45-1.18-2.18Zm35.33-3.89c-8.62,7.51-15.09,17-20.8,26.26h34.55A23.49,23.49,0,0,1,379.49,282l4.41-1.12c6.09-1.55,12.39-3.16,18.63-4.61l3.11-.74a116.27,116.27,0,0,1,15-2.89c11.86-1.23,21.57,4.52,29.49,10.31l2,1.5c1.8,1.34,3.56,2.64,5.36,3.82h4.76v-9.56a34.92,34.92,0,0,1-3.72-13.23c-.31-3-.52-6-.73-8.9-.33-4.77-.68-9.71-1.49-14.41-2.05-11.92-1.26-22.61,2.44-32.67a25.52,25.52,0,0,1,3.49-6.7V191.42a15,15,0,0,0-3.32,4.84,151.26,151.26,0,0,0-5.6,16c-.73,2.37-1.49,4.82-2.29,7.23-.72,2.18-1.37,4.47-2,6.68-2,6.93-4,14.09-8.87,20.25-6.54,8.25-16,17.48-31.11,15.64a11.7,11.7,0,0,0-3,.24c-.53.09-1.06.17-1.58.23-11.46,1.36-25.4-3.24-28.91-16.57a67.19,67.19,0,0,1-1.65-9.78c-.66-6.12-2.3-10-5.47-13l-.75-.71c-5.42-5.16-11-10.49-16.07-16.21S343.2,195.75,340.84,191c-7-14-4.78-29.38-3-41.7.22-1.49.48-3,.79-4.5h-10.4a143.75,143.75,0,0,1-1,15.89c-.34,3.3-.68,6.71-.87,10-.06,1.05-.15,2.12-.24,3.2-.29,3.47-.6,7.05.31,9.88a145.72,145.72,0,0,0,6.44,15.66c1.23,2.68,2.5,5.46,3.66,8.24,2.71,6.44,7.19,11.61,14.1,16.26,1.91,1.28,8.25,5.93,9.74,11.88C362.21,243.17,363.55,253.81,354.2,261.95Zm108-46.22a58.58,58.58,0,0,0-.78,25.5c.33,1.93.57,3.88.78,5.82Zm-33.42,72.49H448.5l-1.49-1.1c-7.48-5.46-15.78-10.37-25.87-9.33a112.41,112.41,0,0,0-14.3,2.78l-3.15.75c-6.19,1.44-12.46,3-18.53,4.59L380.77,287a25.56,25.56,0,0,0-3.59,1.19h30.57a53.26,53.26,0,0,1,10.51-1.29A40.59,40.59,0,0,1,428.82,288.21Zm33.42-143.37h-4.11a10.89,10.89,0,0,1,.78.78,7,7,0,0,1,2,4.6,5.32,5.32,0,0,1-.37,2c-2.56,6.51-5.26,12.76-10.21,17.57s-7.13,11-9.1,17.36c-.25.81-.49,1.63-.72,2.44-.57,2-1.17,4-1.94,6-3.64,9.26-8.52,14.7-14.51,16.19a14.07,14.07,0,0,1-3.4.41c-5.07,0-10.66-2.6-16.67-7.76a79.53,79.53,0,0,0-12.89-9.24c-9-5-17.41-12-25.71-21.3-3.81-4.27-5.72-8.72-5.72-13.28a18.5,18.5,0,0,1,1.73-7.62c1.18-2.63,2.52-5.36,4-8.08H344q-.56,2.64-.94,5.25c-2.16,14.75-3.34,27,2.48,38.6,2.15,4.3,5.24,8.63,10,14.06s10.42,10.81,15.75,15.89l.75.71c5.24,5,6.53,11.31,7.06,16.27a62.51,62.51,0,0,0,1.51,9c3.12,11.85,16.08,13.56,23.24,12.71.45-.05.91-.13,1.37-.2a15.78,15.78,0,0,1,4.48-.27c10.06,1.22,17.69-2.74,26.38-13.7,4.24-5.35,6-11.7,7.94-18.43.64-2.26,1.3-4.61,2.07-6.9s1.53-4.78,2.25-7.12a155,155,0,0,1,5.81-16.55,19.64,19.64,0,0,1,8.1-9.33Zm-94.49,0c-1.7,3-3.18,6-4.48,8.93a16.49,16.49,0,0,0-1.56,6.79c0,4,1.73,8,5.2,11.86,8.14,9.13,16.37,16,25.17,20.87a81.54,81.54,0,0,1,13.24,9.48c6.85,5.88,13,8.21,18.21,6.91s9.69-6.33,13.07-14.92c.74-1.87,1.32-3.87,1.88-5.8.24-.83.48-1.65.73-2.47,2.05-6.67,4.33-13.09,9.64-18.24,4.66-4.52,7.16-10.3,9.72-16.83a3.2,3.2,0,0,0,.22-1.18,5.22,5.22,0,0,0-1.44-3.24,9.91,9.91,0,0,0-2.81-2.16H447.3c-1.15.34-2.29.7-3.41,1.06-1.8.57-3.66,1.16-5.52,1.67-9.58,2.6-16.16.87-20.92-2.73Zm70.08.71c.81-.22,1.63-.46,2.44-.71H421.41C425.91,147.15,431.26,147.34,437.83,145.55Zm-119-.71v76.73c.41.84.81,1.67,1.24,2.5l.45.85q.66,1.24,1.33,2.47l.48.86q.69,1.24,1.4,2.47l.45.79,1.77,3c.77,1.32,1.54,2.63,2.3,4a20.32,20.32,0,0,1,2.28,5.65l0,.2c.05.24.1.48.14.72s0,.25.05.38,0,.35.06.52,0,.31,0,.46,0,.27,0,.41,0,.17,0,.25,0,.11,0,.17c0,.37,0,.73-.06,1.08,0,.09,0,.17,0,.26q-.06.46-.17.9c0,.09,0,.18-.06.27a9.41,9.41,0,0,1-.33,1l-.1.23a9.16,9.16,0,0,1-.48,1q-1.1,1.93-2.24,3.86l0,.06h0c-2.67,4.55-5.51,9.13-8.52,13.79v18.51h8.42c.5-.83,1-1.67,1.51-2.49,6-9.65,12.74-19.68,22-27.71,5.55-4.83,6.95-11.26,4.55-20.86-.68-2.71-3.66-6.17-7.59-8.82-7.8-5.24-12.88-11.14-16-18.57-1.14-2.71-2.39-5.44-3.6-8.09a149.61,149.61,0,0,1-6.66-16.24c-1.23-3.83-.88-7.94-.55-11.92.09-1,.17-2,.23-3,.19-3.44.54-6.91.89-10.26a137.51,137.51,0,0,0,1-15.36ZM469.2,363.7H311.32v14H469.2Zm-32.84,32h-125v14h125Z"/></svg>