<svg xmlns="http://www.w3.org/2000/svg" xmlns:xlink="http://www.w3.org/1999/xlink" viewBox="0 0 335.15 471.23"><defs><style>.cls-1{fill:url(#linear-gradient);}.cls-2{fill:url(#linear-gradient-2);}.cls-3{fill:url(#linear-gradient-3);}.cls-4{fill:none;stroke:#444445;stroke-miterlimit:10;stroke-width:10px;}</style><linearGradient id="linear-gradient" x1="171.23" y1="276.99" x2="243.63" y2="276.99" gradientUnits="userSpaceOnUse"><stop offset="0" stop-color="#ff425f"/><stop offset="1" stop-color="#eb2441"/></linearGradient><linearGradient id="linear-gradient-2" x1="36.05" y1="154.11" x2="241.77" y2="154.11" xlink:href="#linear-gradient"/><linearGradient id="linear-gradient-3" x1="0" y1="235.62" x2="335.15" y2="235.62" xlink:href="#linear-gradient"/></defs><title>card-global</title><g id="Layer_2" data-name="Layer 2"><g id="Layer_1-2" data-name="Layer 1"><path class="cls-1" d="M243.63,267.75a132,132,0,0,1-72.26,38.52c-.08-.67-.13-1.24-.13-1.34-.21-3.36,3.34-5.69,3.16-8.82-2.33-.64-2.94-2.93-2.55-5.48.44-3.55,3.59-6.08,6.1-8.39s3.16-7.13,2.51-10.07c-1-5-1-10.32-1.86-15.33.21,1.26,3.77.82,4.4,2.51.83-1.47,1.25-3.37,2.29-4.84.86-1.25,2.33-1.65,3.59-2.73,2.08-1.25,6.53-6.08,9-3.15,2.08,2.54-3.15,5.27-.43,7.57.86-1.69,0-4.2,1.68-5.89,3.37-3.76,5.67.44,9,1.47,3.58,1.08,4.83,2.34,7.56,4.63-.86-.82,3.37-2.29,3.76-2.51,4-.86,5.69,1.47,8.42,3.56,2.93,2.11,7.57,3.57,7.13,7.76a30.45,30.45,0,0,1,5,1.69A14.86,14.86,0,0,0,243.63,267.75Z"/><path class="cls-2" d="M241.77,107.54s0,4-.39,4.63c-1.26,1.86-4.4,1.47-6.31,2.51-.64.21-5.66,4.63-5.06,5.26-2.71-3.15-7.12-3.15-10.7-2.32-3.77.64-7.35,1-10.89,2.51a14,14,0,0,0-4.64,3.15c-.62.83-1.61,4.39-2.62,4.81,2-.48,3.09-2.72,4.71-3.95,2.33-1.47,6.09-3.38,9-2.55,2.33.64,4.23,1.47,1.47,3.37-1.25.86-3.12,0-4.59.43,1.86.43,4.59,1.26,3.76,3.16,5.46,3.15-1.69,6.91-5.23,6.48,1.65.21-3.58,3.37-3.58,3.16-1.9,1.06-4.42,1.06-5.88,2.93-1.69,2.33.6,6.32-2.51,5.49-1.28,2.71-6.1,1.25-8.21,4.18,2.3,2.51-2.29,6.1-4.62,2.95-2.09.82-1,3.15-3.14,4.41.84,1.25,1,2.52-.44,3.36.44-.21,3,1.86,3.58,2.08a2.66,2.66,0,0,1-2.3,1.91c1,2.71-1.28,5.66-3.15,7.35-2.11,1.68-7,3.35-7.55,3.78-3.8,3.56-6.31,8.82.42,10.29.18,0,.18,6.92.4,7.14.43,2.51,1.47,9.86-2.95,7.13-2.07-1.05-3.36-6.93-4-9.26-.64-2.5-.86-2.5-2.51-5-2.76,3.16-3.15.83-5.48-.64-2.3-1.25-5.65-.83-6.92-2.08-3.15,2.3-5.44,1.65-6.09-1.9-.82,1.68.83,4.2.65,4.84-1.08,2.09-3,1.65-4.64.4-2.71-2.07-8.49,1.39-11.63,0,.3.18,1,.87,1.54,1.21-.62,2.54-2.09,1.07-3.34,1.89-1.47,1.05-2.75,3.16-4,4.2,2.72,5.26-.22,10.28,0,16,0,4.2,2.72,11.54,6.72,13.83,1.9,1.08,8.19,1.48,10.08.65,2.94-1.26,2.5-3.59,3.58-6.1,1-2.72,2.29-4,5.45-4.18,9-.43,2.12,6.91,1,10.71-.61,2.73-.82,5.87-1.26,8.38a7.91,7.91,0,0,0,3.17.22c0-.86.64-1.9.64-2.51,1.25,2.08,5.44,2.72,6.7.19,1.46,2.53,4.4,4.4,4.84,7.37s3.15,6.06-.86,6.06c-3,0,.42,5.91.86,7,2.29,4.18,6.08,5.87,10.27,3.76,0,1.68-.64,6.29-2.93,6.73-2,.37-5.76-3.64-5.36-6a3.44,3.44,0,0,1-1.38,1.6c-2.07-2.54-5.66-3.79-7.53-6.3-.43-.64-6.08-9.25-4.83-9.67-2.94,1.28-8.82-.83-11.55-2.31-4.43-2.29-5-8.38-10.49-7.55-3.8.64-4.83,2.11-9.25.42-2.94-1.06-5.48-3.14-8.41-4.61-3.33-1.91-9.22-3.81-10.51-8-1.25-3.36-.83-7.35-2.72-10.5-1.25-2.08-5-6.3-7.78-6.3,2.55,0-2.29-6.27-2.93-6.93-2.31-2.71-10.68-10.06-9-14.25.42-.65-4.2-2.33-5-2.55.83,2.11,1.05,4.42,2.08,6.31,1.08,2.12,2.33,4,3.59,6.09,2.29,3.8,5.44,8.39,5.05,13-2.76.86-1.9-3.15-2.76-4.8C82,197.82,78,197.82,77,194.88a10.28,10.28,0,0,1,1.05-.4c.2-3.58-5.06-6.52-4.2-9-2.94-2.33-2.94-6.74-5.05-9.67-1.87-2.73-5-4-7.75-5.88-1.07-.61-8.63-10.28-5.9-10.92-4.19,1.07-6.28-8.83-5.66-11.33,0,0-.4,0-.4-.21.82-2.51-.65-15.53,2.73-15.74-2.33.21-3-5.49-2.33-6.52.42-.83,3.58,2.29,3.79,2.72,1.25-.61,2.51-2.3,2.08-3.76-.61-1.69-2.94-3.16-4.4-4.42-.62-.41-9-5.87-9.25-5.69a2.92,2.92,0,0,0-.61-4c-4,3.15-1.9-2.93-4-3.55a3.48,3.48,0,0,1-1-.46A133,133,0,0,1,88.5,58h0a129.54,129.54,0,0,1,12.08-5.4c2.15-.83,4.32-1.61,6.52-2.32.73.68,1.54,1.44,2.52,2.2-1.16-.77-1.15,3.86-.77,4.69,2.33,3.12,7.38,1,10.49,1-.17,0,8.41,1.14,7.54-.75,1.29,2.07,1.38,5,3.18,6.84,1.9-1.9-.83-4,.43-5.88.43-.86,4.2-1.9,5.45-2.54,1.47-1.05-1-2.51-1.68-2.94-2.08-1.26-10.28-1.87-6.28-6.7,1.47-1.68,6.71-.86,8.4.22,2.29,1.25,4.83,3.55,1.68,5.66,1.47.2,8.38,2.11,7.34,4.84.65-1.27,1.69-3.16,3.36-3.16,1.87.21,2.31,4.62,3.17,5.67,2.93,5.25,7.95-5.24,8.81-4.84-3.8-1.47,3.34-3.34,5.24-2.73,1.47.64,3.79,5.66,1,5.45,2.33,2.12,2.54,6.73-1.65,6.52-2.94-.2-6.31-4.18-9-1-1.88,2.07-2.74,5.22-4.61,7.12-2.95,2.94-7,2.73-10.5,2.3,1.46.21-3.15,5.05-3.58,5.9A12,12,0,0,0,135.13,83c-.43,2.12,0,4.42-1.05,6.53,3.56-1.05,5.46,5.44,4,5.65,4.4-.61,8-.61,12.18.86,2.94,1,7.34,2.29,8.6,5.46.82-1.26,4.83-.65,6.1-.22,2.51,1.25,2.71,4,3.36,6.3.83,3.15,3.54,8.39,7.13,6.71.61-.4,5.24-2.51,3.56-3.76-1.65-1.48-3.56-5.27-1.87-7.34,1.68-2.34,5.66-2.95,6.7-5.89,1.68-4.84-5-4.2-5-7.77,0-2.11,2.73-2.72,2.51-5.27,0-2.09-3.15-6.28-.64-7.74,2.11-1.29,12.18.82,14.08,2.08s7.77,2.93,8.17,4.84h-1c1.69,1.46,3.15,4.62.21,5.44,1.8-.38,6.82,1.49,4.07,2.74,1-.33,2-.09,3.07-.83,1.47-.83,2.32-2.31,4.19-1.26.42.21,2.75-4.41,4-4.2,1.87.22,2.3,2.95,3.16,4.2.82,1.89,3.15,2.51,4,4.4,1.45,3.58.82,6.92,5.65,8.18,1.47.42,5.46-1.87,5.28,1.28a4.77,4.77,0,0,0,1.25-1.68C237,104.61,238.23,108,241.77,107.54Z"/><path class="cls-3" d="M335.15,176A187.44,187.44,0,0,0,212.53.55a8.68,8.68,0,0,0-6.71.26,8.84,8.84,0,0,0-4.54,4.94l-3.19,8.72-2.65,7.26L191,33.9A148.36,148.36,0,0,0,89.19,312.05l-4.44,12.16L82,331.64l-3.13,8.57a8.75,8.75,0,0,0,.3,6.7,8.86,8.86,0,0,0,4.93,4.58,186.75,186.75,0,0,0,50.14,10.78,9.44,9.44,0,0,0-.15,1.61V394H105c-4.63,0-10.81,51.53-11.62,54.24H56.56a9.87,9.87,0,0,0-9.87,9.87v3.29a9.86,9.86,0,0,0,9.87,9.87H242.11a9.87,9.87,0,0,0,9.87-9.87v-3.29a9.87,9.87,0,0,0-9.87-9.87H204.18c-.91-2.71-7.87-54.24-12.5-54.24H164.55V363.88a10.43,10.43,0,0,0-.17-1.78C259.9,353.94,335.15,273.59,335.15,176ZM16.07,176a131.7,131.7,0,0,1,20-69.95,3.48,3.48,0,0,0,1,.46c2.08.62,0,6.7,4,3.55a2.92,2.92,0,0,1,.61,4c.22-.18,8.63,5.28,9.25,5.69,1.46,1.26,3.79,2.73,4.4,4.42.43,1.46-.83,3.15-2.08,3.76-.21-.43-3.37-3.55-3.79-2.72-.62,1,0,6.73,2.33,6.52-3.38.21-1.91,13.23-2.73,15.74,0,.21.4.21.4.21-.62,2.5,1.47,12.4,5.66,11.33-2.73.64,4.83,10.31,5.9,10.92,2.73,1.9,5.88,3.15,7.75,5.88,2.11,2.93,2.11,7.34,5.05,9.67-.86,2.51,4.4,5.45,4.2,9a10.28,10.28,0,0,0-1.05.4c1.05,2.94,5,2.94,6.49,5.7.86,1.65,0,5.66,2.76,4.8.39-4.62-2.76-9.21-5.05-13-1.26-2.11-2.51-4-3.59-6.09-1-1.89-1.25-4.2-2.08-6.31.83.22,5.45,1.9,5,2.55-1.65,4.19,6.72,11.54,9,14.25.64.66,5.48,6.93,2.93,6.93,2.77,0,6.53,4.22,7.78,6.3,1.89,3.15,1.47,7.14,2.72,10.5,1.29,4.19,7.18,6.09,10.51,8,2.93,1.47,5.47,3.55,8.41,4.61,4.42,1.69,5.45.22,9.25-.42,5.44-.83,6.06,5.26,10.49,7.55,2.73,1.48,8.61,3.59,11.55,2.31-1.25.42,4.4,9,4.83,9.67,1.87,2.51,5.46,3.76,7.53,6.3a3.44,3.44,0,0,0,1.38-1.6c-.4,2.37,3.33,6.38,5.36,6,2.29-.44,2.93-5.05,2.93-6.73-4.19,2.11-8,.42-10.27-3.76-.44-1.05-3.81-7-.86-7,4,0,1.28-3.12.86-6.06s-3.38-4.84-4.84-7.37c-1.26,2.53-5.45,1.89-6.7-.19,0,.61-.64,1.65-.64,2.51a7.91,7.91,0,0,1-3.17-.22c.44-2.51.65-5.65,1.26-8.38,1.08-3.8,8-11.14-1-10.71-3.16.21-4.41,1.46-5.45,4.18-1.08,2.51-.64,4.84-3.58,6.1-1.89.83-8.18.43-10.08-.65-4-2.29-6.72-9.63-6.72-13.83-.22-5.7,2.72-10.72,0-16,1.25-1,2.53-3.15,4-4.2,1.25-.82,2.72.65,3.34-1.89-.53-.34-1.24-1-1.54-1.21,3.14,1.35,8.92-2.11,11.63,0,1.69,1.25,3.56,1.69,4.64-.4.18-.64-1.47-3.16-.65-4.84.65,3.55,2.94,4.2,6.09,1.9,1.27,1.25,4.62.83,6.92,2.08,2.33,1.47,2.72,3.8,5.48.64,1.65,2.51,1.87,2.51,2.51,5,.61,2.33,1.9,8.21,4,9.26,4.42,2.73,3.38-4.62,2.95-7.13-.22-.22-.22-7.14-.4-7.14-6.73-1.47-4.22-6.73-.42-10.29.6-.43,5.44-2.1,7.55-3.78,1.87-1.69,4.19-4.64,3.15-7.35a2.66,2.66,0,0,0,2.3-1.91c-.62-.22-3.14-2.29-3.58-2.08,1.49-.84,1.28-2.11.44-3.36,2.1-1.26,1-3.59,3.14-4.41,2.33,3.15,6.92-.44,4.62-2.95,2.11-2.93,6.93-1.47,8.21-4.18,3.11.83.82-3.16,2.51-5.49,1.46-1.87,4-1.87,5.88-2.93,0,.21,5.23-2.95,3.58-3.16,3.54.43,10.69-3.33,5.23-6.48.83-1.9-1.9-2.73-3.76-3.16,1.47-.43,3.34.43,4.59-.43,2.76-1.9.86-2.73-1.47-3.37-2.94-.83-6.7,1.08-9,2.55-1.62,1.23-2.69,3.47-4.71,3.95,1-.42,2-4,2.62-4.81a14,14,0,0,1,4.64-3.15c3.54-1.47,7.12-1.87,10.89-2.51,3.58-.83,8-.83,10.7,2.32-.6-.63,4.42-5.05,5.06-5.26,1.91-1,5-.65,6.31-2.51.39-.65.39-4.63.39-4.63-3.54.44-4.79-2.93-5-5.87a4.77,4.77,0,0,1-1.25,1.68c.18-3.15-3.81-.86-5.28-1.28-4.83-1.26-4.2-4.6-5.65-8.18-.83-1.89-3.16-2.51-4-4.4-.86-1.25-1.29-4-3.16-4.2-1.26-.21-3.59,4.41-4,4.2-1.87-1.05-2.72.43-4.19,1.26-1.1.74-2,.5-3.07.83,2.75-1.25-2.27-3.12-4.07-2.74,2.94-.82,1.48-4-.21-5.44h1c-.4-1.91-6.27-3.59-8.17-4.84s-12-3.37-14.08-2.08c-2.51,1.46.64,5.65.64,7.74.22,2.55-2.51,3.16-2.51,5.27,0,3.57,6.7,2.93,5,7.77-1,2.94-5,3.55-6.7,5.89-1.69,2.07.22,5.86,1.87,7.34,1.68,1.25-2.95,3.36-3.56,3.76-3.59,1.68-6.3-3.56-7.13-6.71-.65-2.32-.85-5.05-3.36-6.3-1.27-.43-5.28-1-6.1.22-1.26-3.17-5.66-4.42-8.6-5.46-4.19-1.47-7.78-1.47-12.18-.86,1.47-.21-.43-6.7-4-5.65,1.05-2.11.62-4.41,1.05-6.53a12,12,0,0,1,2.51-4.81c.43-.85,5-5.69,3.58-5.9,3.54.43,7.55.64,10.5-2.3,1.87-1.9,2.73-5.05,4.61-7.12,2.73-3.15,6.1.83,9,1,4.19.21,4-4.4,1.65-6.52,2.76.21.44-4.81-1-5.45-1.9-.61-9,1.26-5.24,2.73-.86-.4-5.88,10.09-8.81,4.84-.86-1.05-1.3-5.46-3.17-5.67-1.67,0-2.71,1.89-3.36,3.16,1-2.73-5.87-4.64-7.34-4.84,3.15-2.11.61-4.41-1.68-5.66-1.69-1.08-6.93-1.9-8.4-.22-4,4.83,4.2,5.44,6.28,6.7.64.43,3.15,1.89,1.68,2.94-1.25.64-5,1.68-5.45,2.54-1.26,1.87,1.47,4-.43,5.88-1.8-1.81-1.89-4.77-3.18-6.84.87,1.89-7.71.75-7.54.75-3.11,0-8.16,2.08-10.49-1-.38-.83-.39-5.46.77-4.69-1-.76-1.79-1.52-2.52-2.2A132.3,132.3,0,0,1,243.63,267.75a14.86,14.86,0,0,1-3.51-.84,30.45,30.45,0,0,0-5-1.69c.44-4.19-4.2-5.65-7.13-7.76-2.73-2.09-4.41-4.42-8.42-3.56-.39.22-4.62,1.69-3.76,2.51-2.73-2.29-4-3.55-7.56-4.63-3.37-1-5.67-5.23-9-1.47-1.68,1.69-.82,4.2-1.68,5.89-2.72-2.3,2.51-5,.43-7.57-2.5-2.93-6.95,1.9-9,3.15-1.26,1.08-2.73,1.48-3.59,2.73-1,1.47-1.46,3.37-2.29,4.84-.63-1.69-4.19-1.25-4.4-2.51.82,5,.82,10.29,1.86,15.33.65,2.94,0,7.75-2.51,10.07s-5.66,4.84-6.1,8.39c-.39,2.55.22,4.84,2.55,5.48.18,3.13-3.37,5.46-3.16,8.82,0,.1.05.67.13,1.34A132.38,132.38,0,0,1,16.07,176ZM148.33,345.24a169.91,169.91,0,0,1-49.86-7.43l.06-.15,2.7-7.4,4.44-12.16A148.36,148.36,0,0,0,207.47,40l4.45-12.18,2.64-7.23.11-.29A169.85,169.85,0,0,1,317.58,176C317.58,269.33,241.67,345.24,148.33,345.24Z"/><path class="cls-4" d="M164.67,58.66"/></g></g></svg>