<svg id="Layer_1" data-name="Layer 1" xmlns="http://www.w3.org/2000/svg" xmlns:xlink="http://www.w3.org/1999/xlink" viewBox="0 0 806.67 600"><defs><style>.cls-1{fill:url(#linear-gradient);}</style><linearGradient id="linear-gradient" x1="198.48" y1="300" x2="608.19" y2="300" gradientUnits="userSpaceOnUse"><stop offset="0" stop-color="#ff425f"/><stop offset="1" stop-color="#eb2441"/></linearGradient></defs><title>coach</title><path class="cls-1" d="M593.69,95.15H213a14.52,14.52,0,0,0-14.5,14.5V490.35a14.52,14.52,0,0,0,14.5,14.5H593.69a14.52,14.52,0,0,0,14.5-14.5V109.65A14.52,14.52,0,0,0,593.69,95.15Zm1.5,395.21a1.5,1.5,0,0,1-1.5,1.5H213a1.5,1.5,0,0,1-1.5-1.5V109.65a1.5,1.5,0,0,1,1.5-1.5H593.69a1.5,1.5,0,0,1,1.5,1.5Zm-281-315.59H269.86a14.39,14.39,0,0,0-6.59,1.6l-12.73-12.73-7.07,7.07,13,13a14.41,14.41,0,0,0-1.11,5.56v37.66a14.52,14.52,0,0,0,14.5,14.5h37.66a14.52,14.52,0,0,0,14.5-14.5V181.07l35.67-35.67-7.07-7.07Zm-13,13L287.93,201l-13.26-13.26ZM309,226.92a1.5,1.5,0,0,1-1.5,1.5H269.86a1.5,1.5,0,0,1-1.5-1.5V195.59l19.57,19.57L309,194.07Zm41.6,3.9-35.86,35.86h-44.9a14.41,14.41,0,0,0-7,1.79l-12.35-12.35-7.07,7.07L256.32,276a14.4,14.4,0,0,0-1,5.14v37.66a14.52,14.52,0,0,0,14.5,14.5h37.66a14.52,14.52,0,0,0,14.5-14.5V273.55l35.67-35.67Zm-48.86,48.86L287.93,293.5,274.1,279.67ZM309,318.83a1.5,1.5,0,0,1-1.5,1.5H269.86a1.5,1.5,0,0,1-1.5-1.5V288.07l19.57,19.57L309,286.55Zm69.87-117.24H530.41v13H378.88Zm0,91.91H530.41v13H378.88ZM255.36,373.08v37.66a14.52,14.52,0,0,0,14.5,14.5h37.66a14.52,14.52,0,0,0,14.5-14.5V358.58H269.86A14.52,14.52,0,0,0,255.36,373.08ZM309,410.74a1.5,1.5,0,0,1-1.5,1.5H269.86a1.5,1.5,0,0,1-1.5-1.5V373.08a1.5,1.5,0,0,1,1.5-1.5H309Zm69.87-25.33H530.41v13H378.88Z"/></svg>