<svg xmlns="http://www.w3.org/2000/svg" xmlns:xlink="http://www.w3.org/1999/xlink" viewBox="0 0 302.72 439.8"><defs><style>.cls-1{fill:url(#linear-gradient);}</style><linearGradient id="linear-gradient" y1="219.9" x2="302.72" y2="219.9" gradientUnits="userSpaceOnUse"><stop offset="0" stop-color="#ff425f"/><stop offset="1" stop-color="#eb2441"/></linearGradient></defs><title>compass</title><g id="Layer_2" data-name="Layer 2"><g id="Layer_1-2" data-name="Layer 1"><path class="cls-1" d="M302.72,7V432.8a7,7,0,0,1-7,7H7a7,7,0,0,1-7-7V7A7,7,0,0,1,7,0H295.72A7,7,0,0,1,302.72,7Zm-39.56,7H14V425.8H263.16Zm25.56,0H277.16V425.8h11.56ZM229.81,133.09l-11.24-4.49h-.07l-4.42-1.81c-.15-1.74-.43-3.41-.73-5.15A75.07,75.07,0,0,0,206,99.38c-.58-1.09-1.23-2.25-1.88-3.33-.8-1.45-1.6-2.75-2.46-4.06-.15-.14-.22-.36-.36-.51-1-1.52-2.1-3-3.19-4.35a62,62,0,0,0-7.25-7.9,67.67,67.67,0,0,0-8.26-6.81A63.15,63.15,0,0,0,174,67.05a79.46,79.46,0,0,0-15.88-6.23,5,5,0,0,1-.58-.22l-.65-.22a2.24,2.24,0,0,0-.58-.15,19.82,19.82,0,0,1-9.79-8.41l-6.31-10.58c-1.16-1.52-2.68-1.52-3.84,0l-6.31,10.58a19.26,19.26,0,0,1-11.6,9,3.21,3.21,0,0,0-1.16.43c-.94.29-1.88.58-2.83.94-.29.15-.65.22-1,.36-1,.36-2,.73-3.12,1.16l-3,1.3a75.63,75.63,0,0,0-44.08,56.83c-.15.94-.29,1.88-.36,2.83s-.22,1.6-.29,2.39l-3.41,1.38c-.07,0-.07.07-.15.07l-11.67,4.64c-1.38.65-1.38,1.67,0,2.32L58.66,140a7.73,7.73,0,0,1,4.42,5.87,68.81,68.81,0,0,0,7.32,22A50.31,50.31,0,0,0,73,172.6a75.44,75.44,0,0,0,9.5,13c1.23,1.3,2.46,2.61,3.77,3.84s2.61,2.39,4,3.55,3,2.32,4.57,3.48c1.81,1.23,3.7,2.46,5.58,3.55a66.45,66.45,0,0,0,5.94,3.12c2,.94,4.06,1.81,6.16,2.61a68.83,68.83,0,0,0,8.55,2.68l2.9.65c.94.22,1.88.36,2.83.51a7.57,7.57,0,0,1,5.65,4.57L137.17,226c.65,1.38,1.67,1.38,2.32,0l4.78-11.82a7.49,7.49,0,0,1,5.8-4.64,64.06,64.06,0,0,0,6.31-1.23A75.87,75.87,0,0,0,201.68,176c6.45-10,10.37-19.94,11.89-29.94a7.69,7.69,0,0,1,.72-2.17,7,7,0,0,1,3.7-3.77l11.82-4.71C231.19,134.76,231.19,133.74,229.81,133.09ZM120.49,200.73a68.18,68.18,0,0,1-48.64-48.79,46.57,46.57,0,0,1-1.45-7.18,19.53,19.53,0,0,1-.29-2,54,54,0,0,1-.51-8.41,54,54,0,0,1,.51-8.41,19.52,19.52,0,0,1,.29-2,46.56,46.56,0,0,1,1.45-7.18,68.18,68.18,0,0,1,48.64-48.79c.36-.07.73-.22,1.16-.29a20.36,20.36,0,0,0,12.76-9.35l2-3.41c1.16-1.52,2.68-1.52,3.84,0l2,3.41A20.19,20.19,0,0,0,152.75,67a.54.54,0,0,1,.36.07,13.52,13.52,0,0,0,1.6.51c.43.15.94.22,1.38.36a67.89,67.89,0,0,1,48.64,48.57,45.65,45.65,0,0,1,1.45,7.1,18.36,18.36,0,0,1,.29,2.1,56.87,56.87,0,0,1,.58,8.63,55.92,55.92,0,0,1-.58,8.55,19.52,19.52,0,0,1-.29,2,46.56,46.56,0,0,1-1.45,7.18,67.89,67.89,0,0,1-48.57,48.64,45.55,45.55,0,0,1-7.1,1.38,9.76,9.76,0,0,1-2.1.36,57.82,57.82,0,0,1-8.7.58,55,55,0,0,1-8.48-.58c-.73-.07-1.45-.14-2.17-.29-1-.15-2-.29-3-.51C123.25,201.38,121.87,201.09,120.49,200.73Zm20.08-94c-1.14-2.4-2.91-2.4-4,0L115.68,158.7c-.76,2.15.13,3.41,2.4,3.41H159c2.27,0,3.29-1.26,2.4-3.41Zm76.65,179H59.35v14H217.23Zm-32.84,32h-125v14h125Z"/></g></g></svg>