<svg id="Layer_1" data-name="Layer 1" xmlns="http://www.w3.org/2000/svg" xmlns:xlink="http://www.w3.org/1999/xlink" viewBox="0 0 800 600"><defs><style>.cls-1{opacity:0.21;fill:url(#linear-gradient);}</style><linearGradient id="linear-gradient" x1="556.16" y1="127.8" x2="201.27" y2="482.69" gradientUnits="userSpaceOnUse"><stop offset="0" stop-color="#ff425f"/><stop offset="1" stop-color="#eb2441"/></linearGradient></defs><title>decision</title><path class="cls-1" d="M521.6,266.55a3.85,3.85,0,0,0,1.57.29c1.88,0,4.26-.9,5.19-2.17a12.48,12.48,0,0,0,2.47-6.52,4.49,4.49,0,0,0-.26-1.56c-3.31-8.91-8.46-20.1-19-27.64a80.22,80.22,0,0,0-9.71-5.63c-1.46-.76-3-1.54-4.43-2.35a3.55,3.55,0,0,0-1.44,0c-5.13,2.21-8.47,5.85-9.42,10.25-1,4.65.76,9.74,5,14.34C499.2,254,509,260.85,521.6,266.55Zm-33-34.95c.79-3.67,3.64-6.75,8-8.69,1.41.78,2.86,1.53,4.26,2.26a78.6,78.6,0,0,1,9.46,5.48c7.89,5.63,13.53,13.85,18.29,26.67a2.42,2.42,0,0,1,.13.84,10.44,10.44,0,0,1-2.07,5.28c-.65.88-3.29,1.64-4.21,1.22q-1.64-.74-3.21-1.52a88,88,0,0,1-23.84-16.55h0l-.14-.14q-1.15-1.15-2.24-2.35c-3.06-3.36-4.68-7-4.68-10.33A10.27,10.27,0,0,1,488.57,231.6ZM524,184.79a9.21,9.21,0,0,1,1,.08,11,11,0,0,0,1.2.09,2,2,0,0,0,1.67-.62l.27-.31c.8-.93,1.78-2.06,1.78-3.39a2.75,2.75,0,0,0,0-.48,3.81,3.81,0,0,0-2.2-2.56,1,1,0,0,0-.76-.1,1,1,0,0,0-.84.14,4.57,4.57,0,0,1-.45.25,2.69,2.69,0,0,0-1.46,1.32h0a23.38,23.38,0,0,0-.86,3.11c-.09.39-.18.78-.27,1.16a1,1,0,0,0,0,.25,1,1,0,0,0,1,1Zm1.3-2v-.06l0-.08a21,21,0,0,1,.72-2.61,4.27,4.27,0,0,1,.49-.28l.34-.18c.54.33.86.66.91,1a.57.57,0,0,1,0,.1c0,.56-.7,1.36-1.27,2l-.18.21a6.67,6.67,0,0,1-1.05-.06Zm-58.88,51c0,4.56,1.91,9,5.72,13.28,8.3,9.3,16.7,16.27,25.71,21.3a79.52,79.52,0,0,1,12.89,9.24c6,5.16,11.6,7.76,16.67,7.76a14.08,14.08,0,0,0,3.4-.41c6-1.48,10.87-6.93,14.51-16.19.77-2,1.37-4,1.94-6,.24-.82.47-1.63.72-2.44,2-6.4,4.15-12.55,9.1-17.36s7.66-11.05,10.21-17.57a5.32,5.32,0,0,0,.37-2,7,7,0,0,0-2-4.6c-2.4-2.73-6.37-4.34-9-3.67-2.24.56-4.47,1.27-6.62,2-1.78.57-3.62,1.15-5.43,1.64-12.94,3.52-21.15-.54-27.43-13.57a7.8,7.8,0,0,1-.49-3.26c0-.28,0-.56,0-.83s0-.57,0-.85c0-.11,0-.22,0-.32-.09-7-2-9-9.37-9.39a.94.94,0,0,0-.32,0,1,1,0,0,0-.47,0c-21.89,4.5-32,21.37-38.4,35.57A18.5,18.5,0,0,0,466.47,233.75ZM470.1,227c6.17-13.75,16-30.08,36.92-34.38h.05l.2,0c6.29.37,7.33,1.4,7.4,7.33q0,.15,0,.31c0,.27,0,.54,0,.81s0,.59,0,.88a9.46,9.46,0,0,0,.7,4.15c4.52,9.38,12,19.53,29.86,14.68,1.86-.51,3.72-1.1,5.52-1.67,2.12-.67,4.32-1.37,6.49-1.92,1.9-.48,5.09.9,7,3a5.22,5.22,0,0,1,1.44,3.24,3.2,3.2,0,0,1-.22,1.18c-2.56,6.53-5.07,12.31-9.72,16.83-5.31,5.15-7.59,11.57-9.64,18.24-.25.82-.49,1.65-.73,2.47-.56,1.93-1.14,3.93-1.88,5.8-3.38,8.59-7.78,13.61-13.07,14.92s-11.36-1-18.21-6.91a81.54,81.54,0,0,0-13.24-9.48c-8.8-4.92-17-11.74-25.17-20.87-3.47-3.89-5.2-7.81-5.2-11.86A16.49,16.49,0,0,1,470.1,227Zm14.7,44.42a1,1,0,1,1-1.35,1.6c-3.21-2.71-6.4-5.32-9.46-7.76a1,1,0,0,1,1.3-1.64C478.38,266.06,481.57,268.68,484.8,271.4Zm17.78,17.22a1,1,0,0,1-1.8,1.07,19.71,19.71,0,0,0-3.67-4.75q-2.19-2-4.41-3.94a1,1,0,0,1,1.38-1.57q2.22,2,4.42,3.95A21.67,21.67,0,0,1,502.58,288.63Zm15.65,13.32a1,1,0,0,1-.72,1.29c-1.37.38-2.73.78-4.09,1.21a7.75,7.75,0,0,1-2.33.4,5,5,0,0,1-4.63-3.11c-.19-.36-.36-.74-.51-1.12a1,1,0,1,1,1.93-.8c.14.33.28.65.44,1,1,1.93,2.29,2.37,4.48,1.68,1.38-.43,2.76-.84,4.15-1.23A1,1,0,0,1,518.23,301.95Zm-61-67a1,1,0,0,1-1,1h-.08a1,1,0,0,1-1-1.12,57.65,57.65,0,0,1,2.26-12.26,1,1,0,0,1,2,.6A55.66,55.66,0,0,0,457.2,234.94ZM541,293.43a1,1,0,0,1-.18,1.47,27.2,27.2,0,0,1-9.67,4.77l-1.76.47a1,1,0,1,1-.53-2l1.74-.47a25.14,25.14,0,0,0,8.93-4.4A1,1,0,0,1,541,293.43ZM465.84,256a1,1,0,1,1-1.44,1.52A30.41,30.41,0,0,1,457,247.27a1,1,0,0,1,1.92-.82A28.38,28.38,0,0,0,465.84,256Zm86.37-83.48v-.26c.09-4.33,1-9.36,6.91-9.83a1,1,0,1,1,.17,2.08c-3,.24-4.86,1.62-5,7.79v.29a1,1,0,0,1-1,1h0A1,1,0,0,1,552.2,172.49ZM462.12,211a77.22,77.22,0,0,1,5.71-9.09l1-1.35a1,1,0,0,1,1.67,1.26l-1,1.32A75.08,75.08,0,0,0,464,212a1,1,0,1,1-1.85-1Zm88.65-26.29a1,1,0,0,1,2.09-.14,10.67,10.67,0,0,0,5.61,9.13,1,1,0,1,1-1,1.82A12.65,12.65,0,0,1,550.77,184.74Zm-75.07,6a13.54,13.54,0,0,0,1.42-5.86,12.92,12.92,0,0,0-1.11-5.14,1,1,0,1,1,1.92-.82,15,15,0,0,1,1.28,6,15.59,15.59,0,0,1-1.62,6.75,1,1,0,0,1-1.89-.89Zm77.95,83.06c-1,2.52-2,5-3.06,7.52-.56,1.35-1.17,2.65-1.82,3.85a1,1,0,0,1-1.84-1c.61-1.14,1.19-2.38,1.73-3.67,1-2.51,2.06-5,3-7.48a1,1,0,0,1,1.94.77ZM463.09,158.89a1,1,0,0,1,2-.74,15.75,15.75,0,0,0,1,2.06c1.57,2.83,3.28,5.63,5.08,8.3a1,1,0,1,1-1.73,1.17c-1.84-2.73-3.58-5.57-5.18-8.46A17.78,17.78,0,0,1,463.09,158.89Zm119.19,76.34a25.47,25.47,0,0,1-5.82,7.3L574,244.65a1,1,0,1,1-1.37-1.58l2.45-2.13a23.4,23.4,0,0,0,5.35-6.71,1,1,0,0,1,1.84,1ZM565,251.42a1,1,0,0,1,0,1.48,35.21,35.21,0,0,0-7.12,9.47,1,1,0,1,1-1.89-.9,37.1,37.1,0,0,1,7.52-10A1,1,0,0,1,565,251.42Zm3.69-53.86a1,1,0,0,1,1.2-.87c2.84.45,5.48.82,8.07,1.13a11.4,11.4,0,0,1,4.25,1.31,1,1,0,1,1-1,1.82,9.33,9.33,0,0,0-3.48-1.06c-2.62-.31-5.29-.68-8.15-1.14A1,1,0,0,1,568.71,197.56ZM584,222.93c.21-1.29.4-2.7.58-4.31a41.83,41.83,0,0,0,.22-4.6c0-1,0-2.07-.06-3.1a1,1,0,0,1,1-1.08h0a1,1,0,0,1,1,1c0,1.06.06,2.11.06,3.17a44,44,0,0,1-.24,4.83c-.18,1.64-.38,3.09-.6,4.42a1,1,0,0,1-1,.87h-.17A1,1,0,0,1,584,222.93ZM446.09,417.58a1,1,0,0,1-1.15.92,23.62,23.62,0,0,0-10.9,1.21l-.86.36a1,1,0,1,1-.82-1.92l.92-.38a25.77,25.77,0,0,1,11.9-1.35A1,1,0,0,1,446.09,417.58Zm127-28.54-.17,0a1,1,0,0,0-.61,0c-1.33.48-2.67.93-4,1.38a86.55,86.55,0,0,0-9.1,3.44c-4.07,1.9-6,4.21-6,7.52a13.22,13.22,0,0,0,.76,4.1,110.63,110.63,0,0,0,6.35,15.8c2.43,4.73,8.11,7,13.69,7,2.2,0,5.94-1.48,7.9-2.18,6.53-2.31,8.91-5.32,9.81-10.86a47,47,0,0,0,.68-7.53A23.94,23.94,0,0,0,589,394.84C585.18,388.71,578.07,388.6,573.06,389ZM589.64,415c-1,6-6,8.94-10,10.36-6,2.12-14.64.61-17.49-4.93a108.49,108.49,0,0,1-6.23-15.5,11.13,11.13,0,0,1-.66-3.41c0-2.5,1.47-4.12,4.77-5.66a85,85,0,0,1,8.88-3.35c1.33-.44,2.65-.89,4-1.36a1,1,0,0,0,.34,0c7.19-.64,11.52.85,14,4.83a17.83,17.83,0,0,1,1,1.83,22.72,22.72,0,0,1,2,9.95A45.16,45.16,0,0,1,589.64,415Zm-69.77-43.67a8.21,8.21,0,0,1-.92.08c-1.18.48-2.35,1-3.52,1.5a76.2,76.2,0,0,1-7.9,3.09c-3.79,1.16-5.84,4.05-6.26,8.84,0,.21,0,.42,0,.62,0,3.78,3.23,5.89,6.1,7.3l.56.28c7,3.45,14.18,7,22.37,7.5l.36,0h.21l.51,0h.38l1.11,0a15.92,15.92,0,0,0,5.12-.71c4.32-1.47,6.85-2.68,7.83-4.81a5.05,5.05,0,0,0,.45-2.16c0-1.74-.69-3.88-1.87-6.85C540.13,375.42,533.26,371.28,519.87,371.28Zm24,22.9a2.52,2.52,0,0,1-.26.44c-.89,1.22-3.05,2.14-6.34,3.27a18.62,18.62,0,0,1-6.88.51c-7.77-.47-14.47-3.78-21.57-7.29l-.56-.28c-3.43-1.7-4.94-3.34-4.94-5.45,0-.14,0-.27,0-.41.35-3.9,1.87-6.13,4.8-7a77.75,77.75,0,0,0,8.12-3.17c1.12-.49,2.24-1,3.36-1.43l.25,0c12.54,0,18.64,3.64,22.54,13.44,1.06,2.66,1.71,4.65,1.71,6.07A3.06,3.06,0,0,1,543.87,394.18ZM435.26,290.65a1,1,0,1,1-1.83,1c-1.14-2.06-2.24-4.22-3.39-6.6a32,32,0,0,0-2.81-4.72,1,1,0,0,1,1.7-1.22,34.07,34.07,0,0,1,3,5C433.05,286.5,434.14,288.63,435.26,290.65Zm-8.63,66.28a1,1,0,0,1-.26-1.45q3.73-5.35,7.48-10.69a1,1,0,0,1,1.71,1.2q-3.75,5.33-7.47,10.68a1,1,0,0,1-1.45.26Zm24.12-32.23-.06.09c-1.33,2.14-2.89,4.17-4.39,6.14-1,1.26-2,2.56-2.88,3.87l-.36.52a1,1,0,1,1-1.71-1.2l.36-.52c.95-1.35,2-2.67,2.94-3.94,1.47-1.92,3-3.91,4.28-6a1.08,1.08,0,0,1,1.45-.38A1,1,0,0,1,450.76,324.69Zm-38.93,52.48c2.52-4,4.66-7.34,6.91-10.64l.22-.32a1,1,0,0,1,1.73,1.18l-.22.32c-2.24,3.28-4.36,6.6-6.87,10.58a1,1,0,1,1-1.77-1.11ZM396.07,399a1,1,0,0,1,.11-1.47,53.77,53.77,0,0,0,8.62-9.41,1,1,0,1,1,1.69,1.22,55.81,55.81,0,0,1-9,9.78,1,1,0,0,1-1.47-.11Zm44.51-96.24a1,1,0,0,1,1.66-1.27,65.13,65.13,0,0,0,7.22,8,10.35,10.35,0,0,1,1.49,1.74,1,1,0,1,1-1.73,1.17A8.29,8.29,0,0,0,448,311,67.22,67.22,0,0,1,440.58,302.73Zm-20.91-33.13a1,1,0,0,1-1.32,1.62c-2.28-1.85-4.7-3.59-6.76-5a30.26,30.26,0,0,1-3.61-3,1,1,0,1,1,1.46-1.5,28.09,28.09,0,0,0,3.36,2.78C414.89,266,417.34,267.72,419.67,269.61Zm-12.58-42h0a1,1,0,0,1-1-1q0-.22,0-.44c-.18-5-2.42-7-6.53-6.18a1,1,0,0,1-.43-2c5.41-1.13,8.82,2,9,8.16,0,.17,0,.33,0,.49A1,1,0,0,1,407.08,227.56Zm-19-4.36a1,1,0,0,1-.42,1.42q-.75.41-1.48.85a29.9,29.9,0,0,1-10.89,4h-.17a1,1,0,0,1-.17-2.08,27.84,27.84,0,0,0,10.14-3.75q.77-.47,1.56-.9A1,1,0,0,1,388.11,223.2Zm16,16.08c-.22.46-.45.93-.66,1.4a14.75,14.75,0,0,0-1.25,6,11.53,11.53,0,0,0,.29,2.65q.22.94.5,1.84a1,1,0,1,1-2,.62c-.2-.65-.38-1.31-.54-2a13.61,13.61,0,0,1-.34-3.13,16.92,16.92,0,0,1,1.45-6.84c.22-.48.45-1,.68-1.43a1,1,0,0,1,1.88.91ZM497.39,136.6C407.29,136.6,334,209.9,334,300a163.56,163.56,0,0,0,163.4,163.4c90.1,0,163.4-73.3,163.4-163.4S587.49,136.6,497.39,136.6ZM400.64,421.06q-3.31-2.65-6.47-5.48l1-.76c1-.75,2-1.5,3-2.23,7.66-5.57,13.34-12.9,18.84-20l1.07-1.38a71.81,71.81,0,0,1,5.24-5.81,69.86,69.86,0,0,0,6.12-6.9c2.91-3.93,5.44-8.16,7.89-12.24.92-1.53,1.84-3.07,2.77-4.59,5.74-9.29,12.25-18.94,21-26.52,9.35-8.14,8-18.78,6.19-26.07-1.49-5.95-7.83-10.6-9.74-11.88-6.91-4.65-11.39-9.81-14.1-16.26-1.17-2.78-2.44-5.56-3.66-8.24A145.73,145.73,0,0,1,433.27,257c-.91-2.83-.61-6.41-.31-9.88.09-1.08.18-2.15.24-3.2.18-3.31.53-6.72.87-10,.67-6.57,1.36-13.36.85-20.08-1-13.38-10.38-15.28-18.43-15.43a52.68,52.68,0,0,0-25.26,5.46A84.78,84.78,0,0,1,370,211.68q3.57-5.13,7.52-10a58.75,58.75,0,0,0,10.34-4.08,89.65,89.65,0,0,1,9-3.81c2.87-1.1,5.83-2.24,8.68-3.64,4.68-2.3,7.5-5.24,8.38-8.73.8-3.16,0-6.68-2.43-10.47A154.81,154.81,0,0,1,439,156.37a70,70,0,0,1,15.17,22.19c2.08,4.74,2.13,9.27.13,13.48a107.22,107.22,0,0,0-9.64,30.5c-1.8,12.32-4,27.65,3,41.7,2.36,4.72,5.68,9.4,10.78,15.18s10.65,11.06,16.07,16.21l.75.71c3.17,3,4.81,6.92,5.47,13a67.19,67.19,0,0,0,1.65,9.78c3.51,13.33,17.45,17.94,28.91,16.57.52-.06,1.05-.15,1.58-.23a11.71,11.71,0,0,1,3-.24c15.12,1.84,24.57-7.39,31.11-15.64,4.89-6.16,6.92-13.33,8.87-20.25.63-2.21,1.27-4.49,2-6.67.8-2.4,1.56-4.86,2.29-7.23a151.26,151.26,0,0,1,5.6-16c3.34-7.63,10.47-9.7,20.14-10.45,3.84-.3,7.79-.41,11.61-.52,4.77-.13,9.69-.27,14.55-.77a28,28,0,0,0,12.62-4.61,8.86,8.86,0,0,0,4-8.44c-.49-4.44-4-8.48-9.11-10.54-5.43-2.19-9.84-4.18-13.08-8.14a9.62,9.62,0,0,1-1.51-7.66,6.29,6.29,0,0,1,2.9-4.47A64.25,64.25,0,0,1,617.94,210c1.38-.44,2.76-.88,4.12-1.35l.43-.14a154.8,154.8,0,0,1,21.09,39.85,5.72,5.72,0,0,1-.85,2c-6.85,7.56-14.9,14.61-27.36,15a130.05,130.05,0,0,0-17.86,2.27c-2.47.43-5,.88-7.52,1.24-1.17.17-2.33.4-3.45.62a32.22,32.22,0,0,1-6.09.82c-9.29,0-12.94,7-14.88,12.29-3.7,10.06-4.49,20.75-2.44,32.67.81,4.71,1.15,9.64,1.49,14.41.2,2.91.41,5.93.73,8.9,1.71,16.1,9.38,23.62,24.16,23.62h.38c9.64-.08,17.72,3.48,24.63,10.88,4.77,5.12,9.6,7.84,14.73,8.33q-3.52,5.67-7.5,11c-2.58-3.64-5.42-7.07-8.2-10.4-2.2-2.63-4.48-5.36-6.54-8.11-3.7-4.93-9.42-7.43-17-7.43h-.14c-3,0-6-.14-9-.3l-3.93-.19c-7-.28-12.31-4.25-18-8.45l-2-1.5c-7.92-5.79-17.63-11.53-29.49-10.31a116.29,116.29,0,0,0-15,2.89l-3.11.74c-6.24,1.45-12.54,3.06-18.63,4.61l-4.41,1.12c-7,1.79-11.74,5.16-14.78,10.61-4.63,8.29-11,13.21-19.58,15-18.93,4-33.87,14.59-45.65,32.3-1,1.5-2.1,3-3.17,4.46C402.3,418.7,401.46,419.87,400.64,421.06ZM368.92,243.86h0l5.33,2a12.37,12.37,0,0,1,4.77,3.34c3.94,4.64,7.74,9.26,11.36,13.8l.64.8q1.87,2.35,3.66,4.67l.78,1,0,0h0a47,47,0,0,0,9.23,9.07l0,.05.46.31.3.2.88.57.46.28.78.46.72.38.58.3q.66.33,1.35.63c.65.28,1.27.59,1.88.91l.57.31q.71.4,1.39.84l.42.27a25.58,25.58,0,0,1,8.87,10.75c.53,1.13,1.09,2.24,1.66,3.34l.46.87q.66,1.26,1.34,2.49l.49.89q.71,1.27,1.41,2.49l.46.8.1.17h0l1.68,2.89c.77,1.31,1.53,2.62,2.29,3.94a19.59,19.59,0,0,1,1.87,4.33c0,.16.08.32.12.48s.06.22.08.33.08.42.12.63l0,.18a10.65,10.65,0,0,1,.13,1.6,8.83,8.83,0,0,1-.06,1c0,.08,0,.17,0,.25s-.07.46-.12.68,0,.18-.07.27-.13.44-.21.65-.05.16-.09.24a7.1,7.1,0,0,1-.4.83q-1.09,1.91-2.21,3.81-3.19,5.43-6.68,10.94h0c-1,1.62-2.09,3.26-3.17,4.91l-.63,1q-1.33,2-2.7,4.05c-1.24,1.84-2.5,3.69-3.8,5.57-1.65,2.38-3.54,4.67-5.36,6.88l-1.53,1.87-.5.62L407,365.15l-.61.8q-.47.61-.92,1.24l-.63.88c-.3.43-.59.87-.88,1.31-.15.22-.31.44-.45.67l0,0a35.76,35.76,0,0,0-3.31,6.53,35.14,35.14,0,0,1-2.34,5q-.73,1.29-1.58,2.51l-.06.08A34.44,34.44,0,0,1,390,391l0,0a40,40,0,0,1-12.05,6.77l-.56.19q-2.62-3.21-5.07-6.55h0a35.21,35.21,0,0,0,21.19-17.47,160.41,160.41,0,0,1,10.66-16.27c1.09-1.53,2.18-3.05,3.26-4.59l.64-.91c5.38-7.67,10.94-15.59,10.36-25.87a18.54,18.54,0,0,0-1.67-5.85,25.6,25.6,0,0,1-1.31-3.75c-2.32-9.88-8.07-17.83-17.59-24.3-2.62-1.78-5.14-5.19-6.91-9.35-2.72-6.39-7-12-13.55-17.5l-1.09-.93c-6.15-5.23-12.47-10.61-20-14a40.12,40.12,0,0,0-5.22-1.9q1.8-5.12,3.94-10.07l1.56.56C360.83,240.8,365,242.37,368.92,243.86ZM376,267.14c6.27,5.33,10.4,10.64,13,16.72,1.13,2.66,3.63,7.52,7.66,10.26,9.19,6.25,14.51,13.57,16.73,23.05a27.62,27.62,0,0,0,1.41,4.06,16.78,16.78,0,0,1,1.52,5.18c.54,9.56-4.57,16.84-10,24.55l-.64.92c-1.07,1.53-2.16,3-3.24,4.57a161.92,161.92,0,0,0-10.8,16.49,33.19,33.19,0,0,1-20,16.47l-.74.2a154.92,154.92,0,0,1-17.54-32.15l.11.12.48.54c.36.4.73.8,1.1,1.19l.3.32q.72.75,1.47,1.49l.37.36,1.15,1.12.56.52,1,.94.62.56,1,.9.65.57,1,.9.62.54,1.17,1,.53.45,1.71,1.43c.25.21.51.4.77.58l.24.15.57.35.27.14.58.28.26.11.64.24.22.07c.25.08.49.14.75.19l.13,0a9,9,0,0,0,1.76.18h.07a8.92,8.92,0,0,0,1-.06,9.69,9.69,0,0,0,6.6-4,286.33,286.33,0,0,0,18.73-27.86c2-3.57,1.69-9.11.67-13.11-1.54-6.08-3.46-12.42-8.37-17.3-2.58-2.56-5.09-5.3-7.52-7.95-2.65-2.89-5.4-5.88-8.26-8.67q-.78-.76-1.6-1.49c-1.63-1.46-3.35-2.83-5-4.17l-2.23-1.8c-1.23-1-2.45-2-3.59-3.11A137.14,137.14,0,0,1,352,270.78l-.95-1.12-.31-.34-.68-.75-.39-.4-.65-.66-.44-.41-.65-.59-.48-.4-.66-.52-.52-.37q1.7-7.38,4.09-14.48c9.54,2.71,17.17,9.2,24.54,15.48Zm-30.21.29.33.26.41.34.58.53.39.37.6.6.37.38.66.73.3.34,1,1.14a139.26,139.26,0,0,0,12.08,12.64c1.9,1.78,4,3.43,6,5,2.19,1.75,4.46,3.56,6.47,5.52,2.82,2.76,5.54,5.72,8.18,8.59,2.45,2.66,5,5.42,7.59,8,4.54,4.51,6.29,10.3,7.82,16.33.87,3.44,1.27,8.53-.46,11.55q-1.09,1.9-2.23,3.78c-5.29,8.74-11.18,16.9-16.36,23.87a7.63,7.63,0,0,1-5.17,3.18,7.44,7.44,0,0,1-5.65-1.81c-6.93-5.76-13.16-11.27-17.66-17.85a155.16,155.16,0,0,1-5.16-83.52ZM387,405a1,1,0,0,0-1.39-.49c-.6.29-1.21.54-1.83.8q-2.56-2.76-5-5.64l1.26-.48,0,0a38.37,38.37,0,0,0,18.75-15.12l.17-.27c.24-.39.48-.78.7-1.17l0-.06h0a37.38,37.38,0,0,0,2.43-5.2,34.84,34.84,0,0,1,3.68-7c.24-.36.48-.72.73-1.08l.69-1,.82-1.1.64-.84,1-1.3.48-.6,1.51-1.84,1.23-1.49h0c1.45-1.78,2.91-3.61,4.23-5.52,1.13-1.63,2.23-3.24,3.31-4.84l0,0,.5-.74q1.37-2,2.69-4l.65-1c3.51-5.37,6.78-10.63,9.85-15.84h0l0-.06q1.14-1.93,2.24-3.86a9.15,9.15,0,0,0,.48-1l.1-.23a9.41,9.41,0,0,0,.33-1c0-.09,0-.18.06-.27q.1-.44.17-.9c0-.09,0-.17,0-.26,0-.35.06-.71.06-1.08,0-.06,0-.11,0-.17s0-.17,0-.25,0-.27,0-.41,0-.3,0-.46,0-.34-.06-.52,0-.25-.05-.38-.08-.48-.14-.72l0-.2a20.32,20.32,0,0,0-2.28-5.65c-.76-1.32-1.53-2.64-2.3-4l-1.77-3-.45-.79q-.71-1.23-1.4-2.47l-.48-.86q-.68-1.23-1.33-2.47l-.45-.85c-.56-1.09-1.11-2.18-1.63-3.29h0l-.14-.3,0-.05a27.91,27.91,0,0,0-8-10.23l0,0c-.32-.25-.66-.48-1-.72l-.93-.62q-.65-.41-1.32-.79l-.67-.37c-.65-.35-1.32-.68-2-1s-1.57-.74-2.32-1.15l-.12-.07c-.75-.42-1.47-.87-2.16-1.34l-.07,0a46.27,46.27,0,0,1-10.12-10.06q-1.79-2.31-3.66-4.67l-.71-.89c-.91-1.15-1.83-2.29-2.76-3.44l0,0q-3.95-4.87-8.14-9.81h0l-.43-.5a12.74,12.74,0,0,0-1.18-1.21A14.59,14.59,0,0,0,375,244c-5.21-2-11.15-4.28-17.3-6.52h0l-.36-.13-1.49-.54q1.83-4.08,3.89-8c.73.16,1.45.31,2.18.43a1,1,0,1,0,.37-2.06c-.51-.09-1-.2-1.52-.3q2.51-4.68,5.34-9.15c8.76-1.15,17.8-4.14,27.52-9.11a47.46,47.46,0,0,1,22.78-4.88c9.25.18,12.74,3,13.32,10.61.47,6.25-.17,12.52-.84,19.15-.34,3.36-.7,6.83-.89,10.26-.06,1-.14,2-.23,3-.34,4-.68,8.09.55,11.92A149.61,149.61,0,0,0,435,274.88c1.21,2.65,2.46,5.39,3.6,8.09,3.12,7.43,8.2,13.33,16,18.57,3.93,2.64,6.91,6.1,7.59,8.82,2.4,9.6,1,16-4.55,20.86-9.23,8-16,18.07-22,27.71-1,1.54-1.88,3.09-2.81,4.65-2.38,4-4.85,8.1-7.6,11.82a64.91,64.91,0,0,1-5.68,6.38,76.7,76.7,0,0,0-5.62,6.24l-1.07,1.38c-5.52,7.11-10.73,13.83-17.78,19-1,.75-2.05,1.53-3.07,2.31L390.26,412q-2.56-2.45-5-5l1.21-.55A1,1,0,0,0,387,405ZM407.2,174c1.52,2.45,2.08,4.54,1.65,6.22-.49,1.94-2.38,3.73-5.62,5.32-2.63,1.29-5.36,2.34-8.24,3.45a95,95,0,0,0-9.48,4l-.4.19A156.31,156.31,0,0,1,407.2,174ZM652.43,300a154.08,154.08,0,0,1-20.16,76.38c-.65,0-1.31,0-2-.07h0c-4-.22-7.82-2.36-11.9-6.73-8-8.53-17.31-12.63-28.5-12.54-12.27.09-17.86-5.38-19.29-18.94-.31-2.88-.51-5.85-.71-8.71a149,149,0,0,0-1.55-14.94c-1.89-11-1.18-20.8,2.2-30,2.34-6.38,5.14-8.86,10-8.86a36.64,36.64,0,0,0,7.1-.92c1.11-.22,2.16-.43,3.2-.58,2.56-.38,5.15-.83,7.65-1.27a126.21,126.21,0,0,1,17.13-2.19c13.85-.47,23-8.09,30.16-15.78A153.83,153.83,0,0,1,651.14,280a9.09,9.09,0,0,0-4.79-1.7,12.34,12.34,0,0,1-1,.06l-6.17,2.31q-7.37,2.75-14.72,5.54c-3.18,1.21-7.35,3.39-7.35,8.41,0,.14,0,.29,0,.44a10,10,0,0,0,2.83,5.84c3.47,3.66,7.24,7.14,10.88,10.5l.61.57a6.46,6.46,0,0,0,4.31,2l.44,0a5.83,5.83,0,0,0,4.07-2.61c2.54-3.46,5-7,7.47-10.49q2.26-3.23,4.55-6.44C652.38,296.23,652.43,298.11,652.43,300Zm-.3-9.44a8,8,0,0,1-.94,1.76c-1.73,2.41-3.43,4.84-5.13,7.27-2.41,3.44-4.91,7-7.44,10.45a3.79,3.79,0,0,1-2.58,1.77,4.34,4.34,0,0,1-3.13-1.39l-.61-.57c-3.62-3.34-7.35-6.79-10.78-10.4a8,8,0,0,1-2.26-4.5c0-.11,0-.23,0-.34,0-2.91,1.82-4.86,6-6.45q7.34-2.8,14.71-5.54l6.08-2.27.18,0a6.62,6.62,0,0,1,5.33,3Q651.92,287,652.13,290.56ZM602,188.88a5.59,5.59,0,0,1-5.12-1.54,8.27,8.27,0,0,1-1.89-7.32c0-.12.05-.24.08-.36q5.09,4.14,9.82,8.68C603.87,188.54,602.91,188.72,602,188.88Zm-31.37-25.52a1,1,0,0,0,1,1.65c.54-.06,1.06-.15,1.58-.25a155.56,155.56,0,0,1,17.46,11.42,18.28,18.28,0,0,0-.79,2.9A13.48,13.48,0,0,0,593.11,191a10.58,10.58,0,0,0,7.67,3.2,12.33,12.33,0,0,0,2-.17c2.11-.35,4.24-.81,6.38-1.33q5.25,5.47,10,11.44l-2.81.92a69.13,69.13,0,0,0-10.91,4.18,11.28,11.28,0,0,0-5.61,8.06,14.66,14.66,0,0,0,2.59,12c4.35,5.31,10.35,7.73,15.17,9.67,3.29,1.33,5.6,3.79,5.87,6.27a3.64,3.64,0,0,1-1.76,3.56,22.9,22.9,0,0,1-10.19,3.72c-4.67.48-9.5.62-14.17.75-3.88.11-7.9.22-11.86.53-10,.78-19.88,3-24.52,13.56a155,155,0,0,0-5.81,16.55c-.72,2.35-1.47,4.77-2.25,7.12s-1.42,4.63-2.07,6.9c-1.9,6.73-3.7,13.08-7.94,18.43-8.69,11-16.33,14.92-26.38,13.7a15.79,15.79,0,0,0-4.48.27c-.46.07-.91.15-1.37.2-7.16.85-20.12-.87-23.24-12.71a62.52,62.52,0,0,1-1.51-9c-.54-5-1.82-11.28-7.06-16.27l-.75-.71c-5.34-5.08-10.85-10.33-15.75-15.89s-7.87-9.76-10-14.06c-5.83-11.65-4.64-23.86-2.48-38.6a102.11,102.11,0,0,1,9.19-29c2.67-5.64,2.64-11.63-.07-17.82a75.72,75.72,0,0,0-14.65-22.15,154.94,154.94,0,0,1,126.26,9ZM536.77,450c-1.7-2.2-3.59-4.25-5.45-6.24-1.11-1.19-2.26-2.43-3.34-3.67a11.73,11.73,0,0,0-9.5-4.07h-.75c-12.09.45-23.64-3.18-34.32-10.78-6.76-4.81-9.55-10.79-8.55-18.3,1-7.22,4-13.48,7.13-20.1l.51-1.07c5-10.44,10.81-16.17,18.88-18.58l1.39-.41c7.33-2.19,14.91-4.46,22.32-4.54A38.25,38.25,0,0,1,550,371.05c4.87,4,10.86,6.43,18.31,7.42a44.41,44.41,0,0,0,7.39.16,54.24,54.24,0,0,1,5.72,0c8.43.62,16.26,1.95,19.5,11.25.85,2.45,1.85,4.88,2.81,7.24a100.7,100.7,0,0,1,3.83,10.5l.29,1A155.1,155.1,0,0,1,536.77,450Zm72.77-43a104.17,104.17,0,0,0-3.87-10.6c-.95-2.33-1.93-4.74-2.77-7.14-3.66-10.49-12.54-12-21.32-12.65a56,56,0,0,0-5.94,0,42.2,42.2,0,0,1-7-.14c-7.05-.95-12.7-3.22-17.26-7a40.19,40.19,0,0,0-26.26-9.3c-7.7.08-15.43,2.39-22.9,4.63l-1.39.41c-8.69,2.59-14.91,8.66-20.17,19.68l-.51,1.07c-3.24,6.78-6.31,13.18-7.32,20.73-1.1,8.23,2.07,15,9.41,20.28,11.06,7.87,23,11.64,35.61,11.16,3.8-.14,6.46.89,8.59,3.34,1.1,1.27,2.27,2.52,3.39,3.72,1.61,1.73,3.26,3.51,4.76,5.38A155.41,155.41,0,0,1,466.78,452a10.3,10.3,0,0,1-.23-1.41l-.25-2.92a1,1,0,0,0-2.08.18l.25,2.92c0,.25.06.5.1.76A153.66,153.66,0,0,1,443,445.18a3.67,3.67,0,0,0,.21-1.19,4.35,4.35,0,0,0-2.14-3.54,3.94,3.94,0,0,0-1.39-.56l-.44-.12a1,1,0,0,0-.66,2c.2.07.4.12.67.19a2.19,2.19,0,0,1,.61.21,2.45,2.45,0,0,1,1.26,1.84,1.58,1.58,0,0,1-.08.45q-2-.79-4-1.64a1,1,0,0,0-1.48-1.42,6,6,0,0,0-.61.51,154.68,154.68,0,0,1-15.24-7.77,27.35,27.35,0,0,1,4-6.93,1,1,0,1,0-1.63-1.31,29.21,29.21,0,0,0-4.14,7.16,155.65,155.65,0,0,1-13.1-8.79c.82-1.19,1.69-2.38,2.58-3.6,1.1-1.5,2.24-3.06,3.31-4.66,11-16.52,24.85-26.36,42.38-30.09,10-2.12,17.72-8,23.06-17.59,2.33-4.17,5.88-6.66,11.51-8.09l4.41-1.12c6.07-1.55,12.34-3.15,18.53-4.59l3.15-.75A112.42,112.42,0,0,1,528,351c10.09-1,18.39,3.86,25.87,9.33l2,1.47c6,4.49,12.28,9.13,20.86,9.48l3.88.19c2.92.15,5.93.3,8.93.3H590c5.86,0,10.17,1.8,12.83,5.34,2.15,2.86,4.47,5.64,6.71,8.33a143.31,143.31,0,0,1,8.86,11.37Q614.18,402.06,609.54,406.94ZM218.31,325.62a2,2,0,0,1-.85-3.81,38.46,38.46,0,0,0,6.38-3.58,2,2,0,1,1,2.35,3.23,41.86,41.86,0,0,1-7,4A2,2,0,0,1,218.31,325.62Zm-10.55,19a2,2,0,1,1,3.91-.83q.3,1.41.6,2.82a2,2,0,1,1-3.91.85Q208.06,346,207.76,344.6ZM206,334.8c0-.27,0-.53,0-.78a9.4,9.4,0,0,1,2.59-6.92,2,2,0,1,1,2.89,2.76A5.43,5.43,0,0,0,210,334q0,.29,0,.59a2,2,0,0,1-1.9,2.09H208A2,2,0,0,1,206,334.8Zm10.37,27.65a18.44,18.44,0,0,1,.89,5.8c0,.78,0,1.58-.13,2.43a2,2,0,0,1-2,1.8H215a2,2,0,0,1-1.79-2.19c.07-.72.11-1.39.11-2a14.52,14.52,0,0,0-.7-4.56c-.69-2.11-1.34-4.33-2-6.78a2,2,0,1,1,3.87-1C215.1,358.26,215.73,360.41,216.39,362.45ZM233.77,430a2,2,0,0,1-2.62,1.07,46,46,0,0,1-6.28-3.2,2,2,0,0,1,2.09-3.41,42,42,0,0,0,5.73,2.92A2,2,0,0,1,233.77,430ZM210,386c.58-2,1.17-4.18,1.57-6.36a2,2,0,0,1,3.93.72c-.43,2.35-1.05,4.63-1.66,6.74a2,2,0,0,1-1.92,1.45,2,2,0,0,1-.55-.08A2,2,0,0,1,210,386Zm35.9,47.17a2,2,0,0,1-2,1.63,2.07,2.07,0,0,1-.38,0q-1.47-.28-2.9-.61a2,2,0,0,1,.9-3.9q1.36.31,2.75.58A2,2,0,0,1,245.9,433.16Zm-37.21-24.28a2,2,0,0,1,3.76-1.37,27.75,27.75,0,0,0,3,5.86,38.3,38.3,0,0,0,4.39,5.46A2,2,0,1,1,217,421.6a42.27,42.27,0,0,1-4.85-6A31.74,31.74,0,0,1,208.69,408.88Zm1.12-15a2,2,0,0,1,1.63,2.31,22.83,22.83,0,0,0-.3,2.64,2,2,0,0,1-2,1.89H209a2,2,0,0,1-1.89-2.11,26.92,26.92,0,0,1,.36-3.1A2,2,0,0,1,209.81,393.88Zm46.38,50.05a2,2,0,1,1-3.68-1.57c1-2.43.52-3.41-.87-4.47a2,2,0,0,1,2.43-3.18C257.15,437.06,257.84,440.08,256.19,443.94ZM155,335.27c-1.77-1.77-3.61-3.57-5.48-5.35A2,2,0,0,1,152.3,327c1.89,1.8,3.76,3.63,5.55,5.42a2,2,0,0,1-2.83,2.83Zm13,13.9c-1.6-1.84-3.27-3.71-4.95-5.53a2,2,0,1,1,2.94-2.71c1.71,1.86,3.4,3.75,5,5.62l.47.55a2,2,0,0,1-3.05,2.58ZM176.28,362c-.46-1-1-2-1.49-3a2,2,0,1,1,3.52-1.89c.57,1.07,1.12,2.17,1.61,3.26a2,2,0,1,1-3.64,1.65Zm7.22,29.7-.26,0a2,2,0,0,1-2-1.74,62.71,62.71,0,0,1-.53-7.3,54.24,54.24,0,0,0-1-10,2,2,0,0,1,3.92-.78,58.26,58.26,0,0,1,1.1,10.73,58.58,58.58,0,0,0,.5,6.83A2,2,0,0,1,183.51,391.69Zm5,19.22a2,2,0,0,1-.53.07,2,2,0,0,1-1.93-1.47c-.33-1.21-.71-2.47-1.11-3.75s-.85-2.76-1.22-4.1a2,2,0,1,1,3.86-1.06c.35,1.28.75,2.61,1.17,4s.81,2.63,1.15,3.89A2,2,0,0,1,188.48,410.91Zm.15,13.14c-.08-1.12-.19-2.25-.33-3.38a2,2,0,0,1,4-.5c.15,1.2.27,2.41.35,3.59a2,2,0,0,1-1.85,2.14h-.15A2,2,0,0,1,188.63,424Zm5.82,18.83a2,2,0,0,1-1.7,2.26l-.28,0a2,2,0,0,1-2-1.72,22.84,22.84,0,0,0-.57-2.8,31.17,31.17,0,0,1-.88-4.82,2,2,0,1,1,4-.43,27.6,27.6,0,0,0,.77,4.2A26.8,26.8,0,0,1,194.45,442.87Zm26-8.76a17.4,17.4,0,0,1,3.41,8.9,2.5,2.5,0,0,1-2.36,2.63h-.14a2.5,2.5,0,0,1-2.49-2.36,12.72,12.72,0,0,0-2.55-6.36c-1.23-1.81-2.58-3.62-3.88-5.37-1.43-1.92-2.91-3.91-4.28-6-10-14.89-12.27-28.34-7.08-42.33,3.19-8.59,2.56-17.05-1.81-24.48-3.45-5.86-7.4-11.51-11.16-16.75-1.23-1.7-2.6-3.3-4.06-5a66.32,66.32,0,0,1-5.11-6.47,26.52,26.52,0,0,1-4-10.34,2.5,2.5,0,0,1,4.94-.79,21.41,21.41,0,0,0,3.22,8.36,61.57,61.57,0,0,0,4.74,6c1.46,1.7,3,3.45,4.33,5.33,3.83,5.34,7.86,11.11,11.41,17.13,5.16,8.77,5.92,18.71,2.19,28.76-4.58,12.35-2.5,24.36,6.54,37.8,1.31,1.95,2.75,3.88,4.14,5.76S219.19,432.22,220.48,434.12Zm54.43-4.33a1,1,0,0,1-1.35,1.48c-6.58-6-14.13-11.3-24.69-9.71a33,33,0,0,1-6.14.14c-.91,0-1.82-.07-2.73-.07a22.24,22.24,0,0,1-22.5-22,34.09,34.09,0,0,1,1.08-9.5c.65-2.36,1.36-4.73,2-7,2.72-9.16,5.54-18.63,5.25-28.63-.17-5.88,3.88-10.69,10.31-12.24a123,123,0,0,1,14-2.59c9.29-1.12,17-3.75,23.53-8a1,1,0,0,1,1.1,1.67c-6.81,4.46-14.79,7.19-24.39,8.35a121.28,121.28,0,0,0-13.74,2.55c-5.48,1.32-8.93,5.34-8.78,10.24.29,10.32-2.57,19.95-5.34,29.26-.68,2.29-1.38,4.66-2,7a32.12,32.12,0,0,0-1,8.94A20.26,20.26,0,0,0,240,419.62c.93,0,1.87,0,2.81.07a31.15,31.15,0,0,0,5.77-.12C260,417.85,268,423.46,274.9,429.78Zm-68.58,13a2.5,2.5,0,0,1-2.11,2.83l-.36,0a2.5,2.5,0,0,1-2.47-2.14,24.88,24.88,0,0,0-.7-3.23l-.75-2.63c-3.11-10.91-6.32-22.18-9-33.44-1.55-6.67-2.77-13.23-.68-20.27,3.95-13.3-2.53-24.46-9.38-33.62q-2.52-3.37-5.08-6.7c-5.48-7.19-11.14-14.62-16-22.46a2.5,2.5,0,0,1,4.24-2.65c4.77,7.65,10.36,15,15.77,22.08,1.71,2.24,3.41,4.48,5.1,6.74,7.6,10.16,14.75,22.62,10.18,38-1.74,5.87-.63,11.73.76,17.71,2.6,11.13,5.8,22.35,8.89,33.2l.75,2.63A29.86,29.86,0,0,1,206.32,442.79Zm69.82-34.11a2,2,0,0,1-2.35,1.53l-.07,0c-2.43-.54-4.93-1.1-7.39-1.54a2,2,0,0,1,.71-3.94c2.54.46,5.08,1,7.55,1.58A2,2,0,0,1,276.15,408.68Zm-43.27-3.22a2,2,0,0,1,2.91-2.74,11.46,11.46,0,0,0,.95.9,5.48,5.48,0,0,0,1.11.71,2,2,0,0,1-1.77,3.59,9.46,9.46,0,0,1-1.92-1.24A15.38,15.38,0,0,1,232.88,405.46Zm24.75.14a2,2,0,0,1-2,2,34.18,34.18,0,0,0-5.55.55l-1.88.33-.33,0a2,2,0,0,1-.33-4l1.83-.32a38.12,38.12,0,0,1,6.19-.62A2,2,0,0,1,257.63,405.6Zm-1.57-50.45a21.42,21.42,0,0,0-3,.78,2,2,0,0,1-1.3-3.78,25.41,25.41,0,0,1,3.5-.92,2,2,0,1,1,.75,3.93Zm-17.4,11.76q.45-1.19.85-2.4a19.83,19.83,0,0,1,2.5-5.12,2,2,0,0,1,3.3,2.27,15.86,15.86,0,0,0-2,4.1c-.28.87-.59,1.73-.91,2.58a2,2,0,1,1-3.74-1.42Zm-5.4,27a2,2,0,0,1-2,1.81h-.19a2,2,0,0,1-1.8-2.18,42.33,42.33,0,0,1,1.35-6.75,66.26,66.26,0,0,1,3.63-9.79,2,2,0,0,1,3.66,1.63,61.6,61.6,0,0,0-3.42,9.19A38.86,38.86,0,0,0,233.26,393.94Zm42.88-44.61a2,2,0,0,1-1.31,2.51,60.91,60.91,0,0,1-7.74,1.84,2,2,0,1,1-.69-3.94,57,57,0,0,0,7.24-1.71A2,2,0,0,1,276.14,349.33Zm-8.48,28.54c.48,3.38,2.61,5.54,6.9,7a1,1,0,1,1-.65,1.89c-3.16-1.09-7.45-3.16-8.23-8.62-.81-5.66,1.42-10,6.29-12.24.62-.29,1.25-.55,1.88-.81a1,1,0,0,1,.75,1.86c-.61.24-1.2.5-1.8.77C268.75,369.59,267,373.09,267.66,377.87ZM182.4,412.16a9.86,9.86,0,0,1,.09,3.45l0,.47c-.22,2.57-.46,5.14-.7,7.71-.47,5-1,10.24-1.25,15.36a15.71,15.71,0,0,0,.43,3.8,1,1,0,0,1-.78,1.18l-.2,0a1,1,0,0,1-1-.8,17.34,17.34,0,0,1-.47-4.3c.29-5.16.78-10.38,1.25-15.44.24-2.56.48-5.13.7-7.69l0-.49a8.29,8.29,0,0,0,0-2.74c-1.51-5.56-3.06-11.11-4.61-16.66-1.86-6.66-3.78-13.54-5.6-20.32-2.62-9.76-9.16-16.37-19.44-19.66l-.19-.05a1,1,0,1,1,.56-1.92l.21.06c10.84,3.46,18,10.74,20.78,21,1.82,6.77,3.74,13.65,5.6,20.3C179.34,401,180.89,406.59,182.4,412.16ZM171.16,406a29.14,29.14,0,0,1-2.09,20.73,33,33,0,0,0-1.89,5.53l-.13.46q-1.48,5.35-2.94,10.71a1,1,0,0,1-1,.74,1,1,0,0,1-.26,0,1,1,0,0,1-.7-1.23q1.46-5.37,2.94-10.73l.13-.45a34.5,34.5,0,0,1,2-5.86,26.85,26.85,0,0,0,2-19.35c-.71-2.66-1.41-5.33-2.1-8-1-3.78-2-7.68-3.06-11.5-1.82-6.63-5.44-11.22-10.75-13.67l-1.36-.63L150.5,372a1,1,0,1,1,.83-1.82l1.46.67,1.35.63c5.88,2.7,9.87,7.73,11.85,15,1.06,3.83,2.08,7.74,3.06,11.53C169.75,400.67,170.44,403.33,171.16,406Zm-14.92,12.25c-1.49,2-3,4.15-4.49,6.26a1,1,0,0,1-1.64-1.14c1.48-2.13,3-4.25,4.52-6.3,5.57-7.59,3.33-22.75-4.36-29.49a1,1,0,1,1,1.32-1.5C160.1,393.53,162.45,409.76,156.24,418.23Zm56.34-131.58a66.15,66.15,0,1,0-66.15-66.15A66.23,66.23,0,0,0,212.58,286.66Zm0-123.31a57.15,57.15,0,1,1-57.15,57.15A57.22,57.22,0,0,1,212.58,163.35ZM214,293.75v4.5h4.5a1.42,1.42,0,0,1,0,2.85H214v4.5a1.42,1.42,0,0,1-2.85,0v-4.5h-4.5a1.42,1.42,0,0,1,0-2.85h4.5v-4.5a1.42,1.42,0,0,1,2.85,0Z"/></svg>