<svg id="Layer_1" data-name="Layer 1" xmlns="http://www.w3.org/2000/svg" xmlns:xlink="http://www.w3.org/1999/xlink" viewBox="0 0 800 600"><defs><style>.cls-1{fill:url(#linear-gradient);}</style><linearGradient id="linear-gradient" x1="557.36" y1="165.58" x2="246.3" y2="476.64" gradientUnits="userSpaceOnUse"><stop offset="0" stop-color="#ff425f"/><stop offset="1" stop-color="#eb2441"/></linearGradient></defs><title>imposter</title><path class="cls-1" d="M238.56,389.36a13.74,13.74,0,1,1-13.74-13.74A13.74,13.74,0,0,1,238.56,389.36ZM423.14,201.16c-3.91,2.26-4,9.41-.2,16s10,10.07,13.94,7.82,4-9.41.2-16S427,198.91,423.14,201.16ZM649.5,336.61c-10.29,12.29-26.09,23.76-44.5,32.3-16.24,7.53-32.94,12-44.68,12a7.37,7.37,0,0,1-3.31-.79,393.93,393.93,0,0,1-136.89,53.62,406.63,406.63,0,0,1-75,6.95A419.43,419.43,0,0,1,285,436.34c-37.68-5.46-68.79-13.92-92.47-25.13-32.47-15.38-51.43-36.13-56.33-61.69-4.13-22.53,22.36-50,38.52-64.35,23-20.43,51.43-38.19,70.78-44.19,36.5-11.31,43.38-12.32,57-11.73,10,.44,15.68.06,34.29-13.16s48.2-38.34,50.66-40.43c18-17.19,31.87-17.81,40.36-15.29,10.73,3.18,18.78,13.17,22.09,27.4,2.71,11.66,6.29,15,7.54,15.88,7.26-1.34,31.5-4.68,45.72,6.92a71.66,71.66,0,0,1,21.69-.38h.09a34.25,34.25,0,0,1,21.86,12.67,73.11,73.11,0,0,1,53.18-1.27c27,9.56,50.21,32.18,60.66,59l0,.11a72.11,72.11,0,0,1,2.93,10.55v.05C666.28,306.71,661.43,322.36,649.5,336.61Zm-2.6-50.29-.14-.38c-9-22.92-28.8-42.23-51.81-50.39-17.06-6.05-34.11-4.18-47.38,3.37a7.39,7.39,0,0,1-10.45-3.51,16.74,16.74,0,0,0-10.53-9.76c-5.26,5.18-15.92,11.06-35.16,20.66-4.52,2.25-8.43,4.21-10.89,5.58a16.08,16.08,0,0,1-8.24,2.27A13.09,13.09,0,0,1,464.9,252c-3.77-2.56-5.46-7-4.52-11.8.93-5.19,1.75-12.14,1.49-14.25a18.6,18.6,0,0,1,.5-8.14c-1.45.21-2.7.43-3.66.64a7.4,7.4,0,0,1-1.15.16c-2.59.14-15.85-.5-22.13-27.48-2.07-8.9-6.41-14.95-11.9-16.58-6.73-2-16,2.24-26.08,11.93l-.33.29c-1.3,1.11-32.11,27.34-51.85,41.37C324,243.24,315.31,244.62,301.76,244c-1.59-.07-3.06-.12-4.52-.12-8.44,0-16.7,1.68-47.42,11.2-17.25,5.34-44.12,22.25-65.34,41.12-22.85,20.31-35.81,39.69-33.81,50.57,9,46.87,79.14,66.62,136.39,74.91,72.74,10.54,181.7,6.67,287.88-71.62,31-25.94,48.64-45.39,53.31-50.75l.14-.16c2-2.31,7.27-6.21,11.41-8.87A60.56,60.56,0,0,1,646.9,286.32Zm-328.22-28s-24.7-2.53-35.59,0c-32.86,7-37.73,26.45-32.86,42.39,1.09,4.52,4.28,5.64,10.89,3.69,0,0,19.25-6.22,24.5-11.47s28.59-21,35.78-25.86S330.54,258.88,318.68,258.29Z"/></svg>