<svg id="Layer_1" data-name="Layer 1" xmlns="http://www.w3.org/2000/svg" xmlns:xlink="http://www.w3.org/1999/xlink" viewBox="0 0 806.67 600"><defs><style>.cls-1{fill:url(#linear-gradient);}</style><linearGradient id="linear-gradient" x1="199.22" y1="300" x2="607.44" y2="300" gradientUnits="userSpaceOnUse"><stop offset="0" stop-color="#ff425f"/><stop offset="1" stop-color="#eb2441"/></linearGradient></defs><title>moneyback</title><path class="cls-1" d="M601.86,303.34a5.5,5.5,0,0,1,0-6.68l4.45-5.81a5.5,5.5,0,0,0-.46-7.2l-5.13-5.21a5.48,5.48,0,0,1-.84-6.63l3.68-6.32a5.49,5.49,0,0,0-1.35-7.09l-5.75-4.52a5.48,5.48,0,0,1-1.66-6.47l2.86-6.73a5.49,5.49,0,0,0-2.23-6.87L589.15,230a5.51,5.51,0,0,1-2.46-6.21l2-7a5.51,5.51,0,0,0-3.08-6.53l-6.69-3a5.51,5.51,0,0,1-3.23-5.85l1.1-7.24a5.51,5.51,0,0,0-3.87-6.09l-7-2.09a5.49,5.49,0,0,1-3.93-5.4l.18-7.31a5.51,5.51,0,0,0-4.61-5.57l-7.21-1.19a5.49,5.49,0,0,1-4.58-4.87l-.73-7.28a5.51,5.51,0,0,0-5.27-4.94l-7.31-.28a5.5,5.5,0,0,1-5.15-4.26l-1.64-7.12a5.5,5.5,0,0,0-5.84-4.25l-7.29.64a5.5,5.5,0,0,1-5.64-3.58l-2.52-6.86a5.51,5.51,0,0,0-6.32-3.49l-7.15,1.55a5.49,5.49,0,0,1-6-2.85l-3.37-6.49a5.5,5.5,0,0,0-6.71-2.66l-6.9,2.43a5.5,5.5,0,0,1-6.36-2.06l-4.15-6a5.49,5.49,0,0,0-7-1.79l-6.54,3.27a5.49,5.49,0,0,1-6.57-1.25l-4.87-5.46a5.52,5.52,0,0,0-7.17-.9l-6.07,4.06a5.49,5.49,0,0,1-6.67-.42l-5.52-4.8a5.51,5.51,0,0,0-7.23,0l-5.52,4.8a5.49,5.49,0,0,1-6.67.42L381.46,98a5.52,5.52,0,0,0-7.17.9l-4.87,5.46a5.49,5.49,0,0,1-6.57,1.25l-6.54-3.27a5.49,5.49,0,0,0-7,1.79l-4.15,6a5.5,5.5,0,0,1-6.36,2.06l-6.9-2.43a5.5,5.5,0,0,0-6.71,2.66l-3.37,6.49a5.49,5.49,0,0,1-6,2.85l-7.15-1.55a5.51,5.51,0,0,0-6.32,3.49l-2.52,6.86a5.5,5.5,0,0,1-5.64,3.58l-7.29-.64a5.5,5.5,0,0,0-5.84,4.25l-1.64,7.12a5.5,5.5,0,0,1-5.15,4.26l-7.31.28a5.51,5.51,0,0,0-5.27,4.94l-.73,7.28a5.49,5.49,0,0,1-4.58,4.87l-7.21,1.19a5.51,5.51,0,0,0-4.61,5.57l.18,7.31a5.49,5.49,0,0,1-3.93,5.4l-7,2.09a5.51,5.51,0,0,0-3.87,6.09l1.1,7.24a5.51,5.51,0,0,1-3.23,5.85l-6.69,3a5.51,5.51,0,0,0-3.08,6.53l2,7a5.51,5.51,0,0,1-2.46,6.21l-6.27,3.77a5.49,5.49,0,0,0-2.23,6.87l2.86,6.73a5.48,5.48,0,0,1-1.66,6.47l-5.75,4.52a5.49,5.49,0,0,0-1.35,7.09l3.68,6.32a5.48,5.48,0,0,1-.84,6.63l-5.13,5.21a5.5,5.5,0,0,0-.46,7.2l4.45,5.81a5.5,5.5,0,0,1,0,6.68l-4.45,5.81a5.5,5.5,0,0,0,.46,7.2l5.13,5.21a5.48,5.48,0,0,1,.84,6.63l-3.68,6.32a5.49,5.49,0,0,0,1.35,7.09l5.75,4.52a5.48,5.48,0,0,1,1.66,6.47L209,359.34a5.49,5.49,0,0,0,2.23,6.87l6.27,3.77a5.51,5.51,0,0,1,2.46,6.21l-2,7a5.51,5.51,0,0,0,3.08,6.53l6.69,3a5.51,5.51,0,0,1,3.23,5.85l-1.1,7.24a5.51,5.51,0,0,0,3.87,6.09l7,2.09a5.49,5.49,0,0,1,3.93,5.4l-.18,7.31a5.51,5.51,0,0,0,4.61,5.57l7.21,1.19a5.49,5.49,0,0,1,4.58,4.87l.73,7.28a5.51,5.51,0,0,0,5.27,4.94l7.31.28a5.5,5.5,0,0,1,5.15,4.26l1.64,7.12a5.5,5.5,0,0,0,5.84,4.25l7.29-.64a5.5,5.5,0,0,1,5.64,3.58l2.52,6.86a5.51,5.51,0,0,0,6.32,3.49l7.15-1.55a5.49,5.49,0,0,1,6,2.85l3.37,6.49a5.5,5.5,0,0,0,6.71,2.66l6.9-2.43a5.5,5.5,0,0,1,6.36,2.06l4.15,6a5.49,5.49,0,0,0,7,1.79l6.54-3.27a5.49,5.49,0,0,1,6.57,1.25l4.87,5.46a5.52,5.52,0,0,0,7.17.9l6.07-4.06a5.49,5.49,0,0,1,6.67.42l5.52,4.8a5.51,5.51,0,0,0,7.23,0l5.52-4.8a5.49,5.49,0,0,1,6.67-.42l6.07,4.06a5.52,5.52,0,0,0,7.17-.9l4.87-5.46a5.49,5.49,0,0,1,6.57-1.25l6.54,3.27a5.49,5.49,0,0,0,7-1.79l4.15-6a5.5,5.5,0,0,1,6.36-2.06l6.9,2.43a5.5,5.5,0,0,0,6.71-2.66l3.37-6.49a5.49,5.49,0,0,1,6-2.85l7.15,1.55a5.51,5.51,0,0,0,6.32-3.49l2.52-6.86a5.5,5.5,0,0,1,5.64-3.58l7.29.64a5.5,5.5,0,0,0,5.84-4.25l1.64-7.12a5.5,5.5,0,0,1,5.15-4.26l7.31-.28a5.51,5.51,0,0,0,5.27-4.94l.73-7.28a5.49,5.49,0,0,1,4.58-4.87l7.21-1.19a5.51,5.51,0,0,0,4.61-5.57L562,419.4a5.49,5.49,0,0,1,3.93-5.4l7-2.09a5.51,5.51,0,0,0,3.87-6.09l-1.1-7.24a5.51,5.51,0,0,1,3.23-5.85l6.69-3a5.51,5.51,0,0,0,3.08-6.53l-2-7a5.51,5.51,0,0,1,2.46-6.21l6.27-3.77a5.49,5.49,0,0,0,2.23-6.87l-2.86-6.73a5.48,5.48,0,0,1,1.66-6.47l5.75-4.52a5.49,5.49,0,0,0,1.35-7.09l-3.68-6.32a5.48,5.48,0,0,1,.84-6.63l5.13-5.21a5.5,5.5,0,0,0,.46-7.2ZM403.33,483.25A183.25,183.25,0,1,1,586.59,300,183.25,183.25,0,0,1,403.33,483.25Zm-26.89-142c0,12-6.88,19.67-19.49,19.67h-8.52a.93.93,0,0,1-1-1v-37.3a.93.93,0,0,1,1-1H357C369.56,321.54,376.44,329.19,376.44,341.21Zm39.66,6.88c.25.71-.06,1.18-.84,1.18H396.83c-.74,0-1.08-.46-.81-1.18l9.36-23.86c.34-.81,1-.81,1.33,0ZM403.33,196.5A103.5,103.5,0,1,0,506.83,300,103.5,103.5,0,0,0,403.33,196.5ZM345,289.27l10.63,0c1.18,0,1.82.69,2,2,1,6.2,6.3,9,12.55,9,8.36,0,12.89-4.67,12.89-11.46,0-7.58-5.51-11.37-12.89-11.37h-3.79a1.8,1.8,0,0,1-2-2V268c0-1.33.69-2,1.87-2h3.2c5.81,0,10.53-3.54,10.53-9.79,0-5.66-3.94-8.91-10-8.91-5.36,0-9.2,2.46-9.94,7.13-.3,1.23-.89,1.92-2.12,1.92H347.59a1.76,1.76,0,0,1-2-2.12c1.08-12,11.51-19.19,24.31-19.19,13.63,0,23.67,8.46,23.67,20A16.8,16.8,0,0,1,386,269.44c-1.18.79-1.13,1.33.15,1.87,6.35,2.66,11.42,8.41,11.42,18,0,14.17-11,23.22-27.36,23.22-13.92,0-26.08-6.74-27.11-21.21A1.71,1.71,0,0,1,345,289.27ZM357,365H344.13a.93.93,0,0,1-1-1V318.44a.93.93,0,0,1,1-1H357c14.9,0,23.79,9.7,23.79,23.79S371.89,365,357,365Zm69,0h-2.29a1.23,1.23,0,0,1-1.18-.84l-3.93-9.94a1.2,1.2,0,0,0-1.18-.84H394.78a1.2,1.2,0,0,0-1.18.84l-4,9.94a1.2,1.2,0,0,1-1.18.84h-2.29c-.74,0-1.08-.46-.77-1.18l18.28-45.63a1.14,1.14,0,0,1,1.18-.77h2.45a1.14,1.14,0,0,1,1.18.77l18.28,45.63C427,364.54,426.72,365,425.95,365Zm37.4-46.35L448,341.83a2.26,2.26,0,0,0-.37,1.3V364a.93.93,0,0,1-1,1h-2.32a.93.93,0,0,1-1-1V343.16a2.42,2.42,0,0,0-.37-1.27l-15.4-23.24c-.46-.68-.19-1.24.65-1.24h3.1a1.23,1.23,0,0,1,1.24.68l12.27,19.15c.4.68,1,.68,1.43,0l12.27-19.15a1.26,1.26,0,0,1,1.24-.68h3C463.5,317.42,463.81,318,463.35,318.66Zm-27.78-6.12c-17.17,0-28.1-12.89-28.1-38.77S418,235,435.57,235s28,12.89,28,38.77S452.59,312.54,435.57,312.54Zm13.68-38.77c0,18.06-5.36,26-13.68,26s-13.73-8-13.73-26c0-18.84,5.76-26,13.73-26S449.24,254.92,449.24,273.77ZM277.74,319.13l-1.51-8.71a.88.88,0,0,1,.78-1.15l1.93-.35a.87.87,0,0,1,1.12.8l4.07,23.53a.9.9,0,0,1-.78,1.15l-1.93.35a.88.88,0,0,1-1.12-.8l-1.51-8.74a.87.87,0,0,0-1.12-.8l-33,6c-.84.15-1,.71-.37,1.29l7.79,7.2c.67.58.46,1.13-.34,1.28l-2.31.42a1.46,1.46,0,0,1-1.26-.38l-9.61-8.79a1.92,1.92,0,0,1-.65-1.16l-.31-1.77a.89.89,0,0,1,.78-1.15l38.54-7A.91.91,0,0,0,277.74,319.13ZM257,303.72c-15-1.31-22.46-8.61-21.66-18.38s9.34-15.67,24.35-14.36,22.42,9.09,21.66,18.38S272,305,257,303.72Zm2.35-28.53c-13.75-1.2-19.56,3.68-20.11,10.43s4.37,12.66,18.12,13.86c12.84,1.12,19.52-3.26,20.12-10.52S272.19,276.31,259.35,275.19ZM261,264.88c-14.12-5.22-19.45-14.25-16.18-23.49s13-12.7,27.13-7.48,19.29,14.71,16.18,23.49S275.11,270.1,261,264.88Zm9.54-27c-12.94-4.79-19.79-1.6-22,4.79s1,13.4,13.92,18.19c12.09,4.47,19.65,2,22.08-4.87S282.62,242.36,270.53,237.89Zm-7-19.47a9.1,9.1,0,0,1-1.62-12.56,8.58,8.58,0,0,1,12.16-1.94,9.1,9.1,0,0,1,1.83,12.57A8.72,8.72,0,0,1,263.52,218.42Zm8.55-11.76a5.34,5.34,0,0,0-7.54,1.2,5.69,5.69,0,0,0,1,7.82,5.43,5.43,0,0,0,7.7-1.23A5.66,5.66,0,0,0,272.07,206.66Zm22.61,29.62-19.38-46.81a1.3,1.3,0,0,1,.19-1.36l1.29-1.77c.48-.65,1-.59,1.34.15l19.43,46.74a1.3,1.3,0,0,1-.19,1.36L296,236.46C295.54,237.09,295,237,294.67,236.29Zm4.07-17.76A9.06,9.06,0,0,1,297.08,206a8.64,8.64,0,0,1,12.22-2A9.15,9.15,0,0,1,311,216.61,8.66,8.66,0,0,1,298.74,218.53Zm8.57-11.78a5.36,5.36,0,0,0-7.59,1.27,5.61,5.61,0,0,0,1,7.77,5.38,5.38,0,0,0,7.66-1.18A5.68,5.68,0,0,0,307.31,206.75Zm21.9-11.39-18.46-38.92a.91.91,0,0,1,.47-1.31l2.6-1.29a1.23,1.23,0,0,1,1.39.13l30,25c.65.53,1.16.27,1.15-.57l-.61-39.54a1.24,1.24,0,0,1,.73-1.18l2.6-1.29a.88.88,0,0,1,1.33.42l18.46,38.92a.92.92,0,0,1-.5,1.33l-2,1a.86.86,0,0,1-1.3-.43L350.8,147.47c-.43-.9-1.17-.73-1.16.28l.63,37.41a1.29,1.29,0,0,1-.76,1.2l-.19.09a1.2,1.2,0,0,1-1.39-.13l-28.28-23.6c-.74-.65-1.33-.15-.92.72l14.25,30a.92.92,0,0,1-.5,1.33l-2,1A.87.87,0,0,1,329.21,195.36Zm41.11-34.24a16.55,16.55,0,1,1,18.31,14A16.36,16.36,0,0,1,370.32,161.12Zm29-3.54a12.65,12.65,0,1,0-11.1,13.87A12.6,12.6,0,0,0,399.3,157.58Zm8.64,14.55,3.88-28.83a.88.88,0,0,1,1.11-.82l1.9.27a.89.89,0,0,1,.85,1.09l-.27,2c-.12.87.32,1,1,.46a10.63,10.63,0,0,1,9-2.65c6.8,1,11.67,6.28,10.54,14.7l-2.34,17.39a.89.89,0,0,1-1.14.82l-1.87-.26a.88.88,0,0,1-.85-1.1L432,158c.89-6.62-2.55-10.27-7.57-11s-9.49,2.19-10.33,8.23l-2.34,17.36a.88.88,0,0,1-1.11.82l-1.9-.27A.89.89,0,0,1,407.94,172.13Zm33.34-9.62a15.93,15.93,0,0,1,21.23-8.5,16.52,16.52,0,0,1,9.43,20.71l-.1.25a1,1,0,0,1-1.34.52l-25.11-10.6a.82.82,0,0,0-1.23.56,13,13,0,0,0,7.61,15.2,12.52,12.52,0,0,0,11.51-.8,1,1,0,0,1,1.41.18l1.13,1.12c.5.53.45,1-.05,1.41a16.07,16.07,0,0,1-15.28,1.34A16.57,16.57,0,0,1,441.28,162.51ZM467.77,171c.64.27,1.19,0,1.19-.71a12.62,12.62,0,0,0-7.75-13,12.1,12.1,0,0,0-14.51,3.61c-.53.51-.31,1.08.33,1.35Zm-6.07,33.2,12.24-7.66a1.34,1.34,0,0,0,.73-1l6.89-30.55c.17-.71.71-.9,1.31-.45l1.8,1.34a1.25,1.25,0,0,1,.48,1.34l-5.85,25c-.22.93.33,1.24,1.05.75l21.15-13.59a1.13,1.13,0,0,1,1.37,0l1.85,1.38a.77.77,0,0,1,0,1.4l-39.94,24.74a1.19,1.19,0,0,1-1.37,0l-1.68-1.25A.79.79,0,0,1,461.7,204.16Zm38.65,15.47,36-23.71a.87.87,0,0,1,1.34.3l7.23,11.42c3.8,6,2.74,13.59-3,17.37a10.62,10.62,0,0,1-10.4,1.15c-.69-.26-1-.09-.78.62a11.17,11.17,0,0,1-4.76,12.86c-5.77,3.81-12.94,1.79-16.66-4.09L500.07,221A.91.91,0,0,1,500.35,219.63ZM512.27,233c2.87,4.53,7.85,5.45,11.79,2.85s4.84-8,2.07-12.35l-6.55-10.36a.87.87,0,0,0-1.34-.3L505.83,221a.91.91,0,0,0-.28,1.37ZM528,219.24a8,8,0,0,0,11.31,2.38c3.84-2.53,5.22-7.14,2-12.18l-4.78-7.55a.87.87,0,0,0-1.33-.3l-12.18,8a.91.91,0,0,0-.28,1.37Zm2.82,22.44a16,16,0,0,1,19.93,10.63,15.56,15.56,0,0,1-1.77,13.1c-.44.79-.1,1.22.74,1l3.27-1a.88.88,0,0,1,1.21.66l.54,1.84a.9.9,0,0,1-.64,1.23l-27.79,8.62a.88.88,0,0,1-1.2-.66l-.54-1.84a.9.9,0,0,1,.64-1.23l3.27-1c.84-.26.94-.76.25-1.11a15.09,15.09,0,0,1-8.74-10A16.43,16.43,0,0,1,530.86,241.68Zm8.29,28a12.68,12.68,0,0,0,8.22-15.79,12.32,12.32,0,0,0-15.4-8.46,12.74,12.74,0,0,0-8.27,15.81A12.29,12.29,0,0,0,539.15,269.66Zm2.06,10.27a16.21,16.21,0,0,1,16.68,15.9,16.78,16.78,0,0,1-5.43,13.11.88.88,0,0,1-1.38-.12l-1.17-1.57a.88.88,0,0,1,.12-1.38,12.32,12.32,0,1,0-15.66.62.88.88,0,0,1,.23,1.37l-1.05,1.66a.86.86,0,0,1-1.31.29,16.77,16.77,0,0,1-6.45-12.7A16.3,16.3,0,0,1,541.21,279.93Zm-14.12,33.13,42.3,8.08a.9.9,0,0,1,.77,1.15l-.34,1.89a.88.88,0,0,1-1.13.79l-24.35-4.65c-.86-.16-1.23.41-.71,1.12L553,335.55a1.89,1.89,0,0,1,.29,1.34l-.52,2.86c-.15.83-.77,1-1.29.24l-9.61-15a.84.84,0,0,0-1.32-.25L523,337.05c-.71.47-1.24.1-1.08-.76l.51-2.83a1.85,1.85,0,0,1,.74-1.14l16.69-11.61c.71-.47.59-1.14-.27-1.3l-13.18-2.52a.9.9,0,0,1-.77-1.15l.34-1.89A.88.88,0,0,1,527.09,313.06ZM275.58,374.87a23.08,23.08,0,0,1,36.48,24.2,1,1,0,0,1-1.48.72l-4.66-1.88a1.14,1.14,0,0,1-.7-1.52,15.48,15.48,0,0,0-2.88-13.22c-5.37-6.89-15.09-8.06-22.34-2.4-7,5.42-8.55,14.81-2.83,22.15a14.88,14.88,0,0,0,17.26,5.17,1,1,0,0,0,.41-1.62l-5.62-7.2a1.08,1.08,0,0,1,.23-1.67l3.17-2.47a1.07,1.07,0,0,1,1.67.19l10.53,13.5a1.16,1.16,0,0,1-.21,1.73c-.69.54-1.34,1-2,1.54-10.4,6.91-23.41,4.9-31-4.88A22.73,22.73,0,0,1,275.58,374.87Zm27.37,49,10.81-15.21a1.08,1.08,0,0,1,1.65-.3l3.71,2.64a1.07,1.07,0,0,1,.26,1.66l-10.59,14.9c-2.32,3.27-1.13,6.38,1.86,8.51s6.32,2.23,8.65-1l10.59-14.9a1.07,1.07,0,0,1,1.65-.3l3.74,2.65a1.06,1.06,0,0,1,.24,1.64L324.7,439.29c-4.26,6-11,6.62-17.68,1.85S298.68,429.82,302.94,423.83ZM334.13,440c3.25-8.6,12.14-12.7,19.64-9.87a13.27,13.27,0,0,1,7.47,6.58c.46,1,1.07,1.06,1.42.13l.43-1.15a1.06,1.06,0,0,1,1.5-.72l4.34,1.64a1.08,1.08,0,0,1,.67,1.54L359.5,464.93a1.07,1.07,0,0,1-1.52.71L353.64,464a1.06,1.06,0,0,1-.67-1.54l.38-1c.37-1,0-1.49-.77-1.13a13.15,13.15,0,0,1-10.23.08C334.85,457.57,330.87,448.64,334.13,440Zm24.44,9.23a9.57,9.57,0,1,0-12.42,5.89A9.54,9.54,0,0,0,358.57,449.24Zm14.86,18.33,4-28.34a1.07,1.07,0,0,1,1.33-1l4.34.62a1.07,1.07,0,0,1,1,1.35l-.31,2.18c-.15,1.07.36,1.35,1.21.62a12.35,12.35,0,0,1,8.45-2.85,1,1,0,0,1,1.09,1.28l-.62,4.32a1.13,1.13,0,0,1-1.34,1.05c-5.59-.53-9.4,1.41-10.28,7.59l-2,14.18a1.06,1.06,0,0,1-1.33,1l-4.56-.65A1.06,1.06,0,0,1,373.43,467.56Zm23.32-10.89c-.66-9.17,5.69-16.62,13.69-17.2a13.27,13.27,0,0,1,9.54,2.84c.82.67,1.42.51,1.34-.48l-.09-1.23a1.06,1.06,0,0,1,1.06-1.28l4.63-.33a1.08,1.08,0,0,1,1.26,1.11l2.06,28.55a1.07,1.07,0,0,1-1.08,1.28l-4.63.33a1.06,1.06,0,0,1-1.26-1.11l-.08-1.08c-.08-1.05-.59-1.37-1.17-.71a13.15,13.15,0,0,1-9.25,4.37C404.77,472.31,397.42,465.87,396.75,456.67Zm26.05-1.88a9.57,9.57,0,1,0-8.8,10.56A9.54,9.54,0,0,0,422.81,454.79Zm22.29,10.54-9.47-27a1.07,1.07,0,0,1,.71-1.52l4.38-1.54a1.07,1.07,0,0,1,1.5.75l.35,1c.36,1,.92,1,1.36,0a10.27,10.27,0,0,1,6.32-5.69c6.19-2.17,11.81.36,14.52,8.1l5.94,16.95a1.06,1.06,0,0,1-.71,1.52l-4.4,1.54a1.07,1.07,0,0,1-1.51-.75l-5.56-15.87c-1.87-5.34-5-6.17-8.42-5-3.67,1.29-5.6,4.63-3.89,9.59L451.68,463a1.06,1.06,0,0,1-.71,1.52l-4.38,1.54A1.06,1.06,0,0,1,445.09,465.33Zm34-22.78-7.85-13.09a1.08,1.08,0,0,0-1.62-.42l-2.18,1.31a1.06,1.06,0,0,1-1.62-.42l-1.48-2.46a1.07,1.07,0,0,1,.39-1.63l2.19-1.31a1.07,1.07,0,0,0,.39-1.63l-3.18-5.3a1.07,1.07,0,0,1,.39-1.63l4-2.39a1.07,1.07,0,0,1,1.63.43l3.18,5.3a1.06,1.06,0,0,0,1.63.43l4.22-2.54a1.07,1.07,0,0,1,1.62.42l1.48,2.46a1.06,1.06,0,0,1-.39,1.63l-4.22,2.54a1.07,1.07,0,0,0-.39,1.63l7.45,12.41c1.52,2.54,3.68,3,5.69,1.74l1.77-1.06a1.08,1.08,0,0,1,1.63.43l1.67,2.79a1.07,1.07,0,0,1-.39,1.63L492,445.65C487,448.61,482.18,447.7,479.09,442.55Zm13.75-15.39a15.82,15.82,0,0,1,1-22.67,15.35,15.35,0,0,1,22,1l.31.39a1.16,1.16,0,0,1-.1,1.68l-16.61,15.05a1,1,0,0,0,.06,1.69,9.46,9.46,0,0,0,15.3-8.18,1.23,1.23,0,0,1,.85-1.49l3.55-1.2c.79-.24,1.33,0,1.47.73a15.07,15.07,0,0,1-5.06,14.12A15.76,15.76,0,0,1,492.84,427.16Zm14.93-18.4a.92.92,0,0,0-.22-1.66,8.68,8.68,0,0,0-9.95,1.43,8.94,8.94,0,0,0-2.52,9.88.93.93,0,0,0,1.65.37Zm12.3-7.28a15.81,15.81,0,0,1-4.4-22.26,15.36,15.36,0,0,1,21.61-4.3l.4.3a1.16,1.16,0,0,1,.3,1.65l-12.56,18.58a1,1,0,0,0,.46,1.62,9.47,9.47,0,0,0,12.92-11.59,1.23,1.23,0,0,1,.48-1.65l3.16-2c.71-.42,1.3-.3,1.6.35a15.07,15.07,0,0,1-1.56,14.92A15.78,15.78,0,0,1,520.07,401.48ZM530.21,380a.92.92,0,0,0-.61-1.55,8.68,8.68,0,0,0-9.33,3.76,8.94,8.94,0,0,0-.1,10.2.93.93,0,0,0,1.69,0Z"/></svg>