<svg id="Layer_1" data-name="Layer 1" xmlns="http://www.w3.org/2000/svg" xmlns:xlink="http://www.w3.org/1999/xlink" viewBox="0 0 806.67 600"><defs><style>.cls-1{fill:url(#linear-gradient);}</style><linearGradient id="linear-gradient" x1="580.11" y1="142.72" x2="257.88" y2="464.95" gradientUnits="userSpaceOnUse"><stop offset="0" stop-color="#ff425f"/><stop offset="1" stop-color="#eb2441"/></linearGradient></defs><title>present</title><path class="cls-1" d="M615.51,386.36a11.84,11.84,0,0,0,.1-1.5V183.05a11.72,11.72,0,0,0-9.43-11.47L330.56,117.12a11.64,11.64,0,0,0-9.82,2.55,11.77,11.77,0,0,0-1.58,1.65l-.22.26c-.15.2-.27.4-.41.61s-.22.31-.32.47-.19.37-.29.55-.22.39-.31.6-.13.35-.2.52-.19.45-.26.69-.09.33-.13.5-.14.5-.19.76,0,.33-.07.5-.09.53-.11.8,0,.34,0,.52,0,.5,0,.76l5.06,173.07a11.74,11.74,0,0,0-2,.89l-120.41,68a11.65,11.65,0,0,0-5.42,6.72,25.19,25.19,0,0,0-2.24,16.63c1.06,4.7,4.74,13.11,17.49,16.59l264,71.94a11.43,11.43,0,0,0,9.54-1.64l109.62-76a35.42,35.42,0,0,0,8.78-8.85l.21.05a11.51,11.51,0,0,0,1.34.24,11.6,11.6,0,0,0,8.61-2.44c.17-.14.32-.29.49-.43l.11-.1c.21-.19.42-.39.62-.6l.08-.08a11.64,11.64,0,0,0,.93-1.14l.26-.36c.12-.18.23-.36.34-.54l.25-.45c.1-.18.2-.37.28-.55s.11-.27.17-.41a11.58,11.58,0,0,0,.47-1.35l0-.14v0a11.66,11.66,0,0,0,.28-1.38Zm-9.9-26.18c-2.16-.78-4.33-1.59-6.41-2.5-8.37-3.65-13-8.47-14.51-15.16A39.76,39.76,0,0,1,590.12,312a31.37,31.37,0,0,1,15.49-12.65ZM574.46,199.27c.11,1.8.08,3.67.05,5.48,0,.85,0,1.7,0,2.55,0,6.08-1.59,10.66-4.72,13.61-2.95,2.77-7.19,4-12.65,3.68a108.12,108.12,0,0,1-25.78-4.54c-5.7-1.79-12.39-4.88-13.55-13-1.22-8.55,2-14.82,9.21-18.13a125.43,125.43,0,0,1,15.34-5.45c2.91-.89,5.92-1.82,8.84-2.85,5.83-2,11.7-4.2,17.44-6.33l5.18,1,15.28,3C579.28,181.73,573.85,189.41,574.46,199.27Zm-139,17.05c-1.2,4-2.44,8.19-3.58,12.31A60.21,60.21,0,0,0,430,245.28a38.91,38.91,0,0,0,39.35,38.53c1.58,0,3.22.07,4.81.13a56.85,56.85,0,0,0,10.77-.25c20.79-3.14,34.61,8.3,49.25,22.42,6.78,6.53,7,15.76.73,26l-.11.18c-3.34,5.43-6.54,10.62-8.18,16.64L493.71,341a27.22,27.22,0,0,1-.08-8.25,2.5,2.5,0,1,0-4.95-.73,31.9,31.9,0,0,0-.17,7.74l-49-11.73c2.07-8.9-1.58-16-5.27-21.48-2.29-3.37-4.75-6.67-7.12-9.86s-5-6.66-7.25-10.07c-16.09-23.93-19.77-45.33-11.59-67.35,6.46-17.42,5.15-34.66-3.81-49.85-6.3-10.7-13.35-20.78-20-30.08-.4-.56-.82-1.1-1.23-1.64l29.37,5.8.2.95q.85,4,1.71,8.06a2.5,2.5,0,0,0,2.44,2,2.47,2.47,0,0,0,.53-.06,2.5,2.5,0,0,0,1.92-3q-.74-3.45-1.46-6.89L450.61,151a19.78,19.78,0,0,0-5.86,14.75C445.24,183.45,440.27,200.16,435.46,216.32Zm-87.54,40.3c-1.27-4.74-2.5-9.49-3.74-14.24-1.72-6.6-3.49-13.42-5.33-20.1a42.58,42.58,0,0,0-10-18.59l-.81-27.8a46.92,46.92,0,0,1,18.88,27.27c3.23,12,6.63,24.21,9.91,36,2.66,9.54,5.41,19.4,8.05,29.12a14.72,14.72,0,0,1,.07,5l-.07.79c-.37,4.36-.78,8.71-1.19,13.07-.69,7.32-1.39,14.83-1.91,22.33l-21.3-4.94.28-1,.2-.74a58.59,58.59,0,0,1,3.36-9.82A51,51,0,0,0,347.92,256.62ZM327.2,127.3a1.68,1.68,0,0,1,1.42-.37L345,130.17c3.95,5.36,8,10.7,12,15.88,3,3.92,6.08,8,9.07,12,12.2,16.3,23.71,36.17,16.66,60-3.61,12.14-1.48,23.58,1.22,35.21,4.56,19.58,10.16,39.22,15.57,58.21l1.49,5.25q.33,1.15.59,2.29l-14.71-3.52a52,52,0,0,1-1.41-8.74,2.5,2.5,0,1,0-5,.41,60.72,60.72,0,0,0,1,7l-16.78-4c.52-7.62,1.23-15.28,1.93-22.74.41-4.36.82-8.73,1.2-13.09l.07-.77a17.11,17.11,0,0,0-.17-6.05c-2.65-9.72-5.4-19.59-8.06-29.13-3.28-11.78-6.68-24-9.9-36-3.51-13.07-10.87-23.19-21.88-30.17l-1-34.34c.8.83,1.62,1.66,2.4,2.48a2.5,2.5,0,1,0,3.62-3.45c-2-2.12-4.11-4.27-6.23-6.42l-.05-1.85a1.73,1.73,0,0,1,.05-.48A1.7,1.7,0,0,1,327.2,127.3Zm45.24,8.29c2.26,2.62,4.4,5.16,6.34,7.86,6.58,9.17,13.51,19.09,19.68,29.56,7.85,13.32,9,28.49,3.27,43.87-9,24.31-5.11,47.73,12.35,73.69,2.39,3.55,5,7,7.45,10.34,2.33,3.13,4.74,6.36,6.94,9.61,4.06,6,5.41,10.86,4.25,15.92l-23.66-5.67a51.26,51.26,0,0,0-1.32-6l-1.49-5.24c-5.39-18.91-11-38.46-15.48-57.88-2.57-11.09-4.45-21.12-1.32-31.63,7.93-26.77-4.53-48.47-17.76-66.16-3-4-6.11-8.1-9.11-12-2.41-3.16-4.86-6.38-7.3-9.62ZM331.69,302.46l-2.75-94a41.78,41.78,0,0,1,7,14.63c1.83,6.67,3.61,13.48,5.32,20.06,1.24,4.76,2.48,9.51,3.75,14.26,3.14,11.71,2,22.91-3.45,34.24A60.64,60.64,0,0,0,338,302l-.2.73-.31,1.13-3-.69Zm226.94,54.13a27.58,27.58,0,0,1,.81-5.94l.49-2.11a2.5,2.5,0,1,0-4.87-1.11l-.48,2.1a35.56,35.56,0,0,0-.9,5.88l-24.13-5.78c1.55-5.61,4.61-10.58,7.81-15.77l.11-.18c7.12-11.57,6.7-22.13-1.21-29.74-14.66-14.14-29.66-26.55-51.78-23.22a53.79,53.79,0,0,1-10.2.22c-1.61-.06-3.28-.13-4.92-.13A35.93,35.93,0,0,1,433,245.24a57.17,57.17,0,0,1,1.78-15.8c1.13-4.1,2.37-8.25,3.56-12.26,4.88-16.38,9.92-33.33,9.4-51.48a17,17,0,0,1,6.54-13.93l51.5,10.18a2.47,2.47,0,0,0,2.48,2.77l.32,0c2.31-.29,4.44-.6,6.45-.93L563,173.23c-4.25,1.56-8.53,3.12-12.79,4.62-2.87,1-5.85,1.93-8.73,2.81a127.46,127.46,0,0,0-15.7,5.59c-8.45,3.86-12.33,11.42-10.93,21.28s9.6,13.51,15.63,15.4a111.16,111.16,0,0,0,26.5,4.67q1,.06,1.87.06c5.44,0,9.81-1.53,13-4.55,3.76-3.54,5.66-8.85,5.66-15.79,0-.83,0-1.67,0-2.5,0-1.87.06-3.8-.06-5.72-.55-8.94,4.78-15.81,14.28-18.37l.4-.11,3.41-.94,8.71,1.72a1.7,1.7,0,0,1,1.36,1.67V296.19a34.1,34.1,0,0,0-18,14.17,42.78,42.78,0,0,0-5.84,32.82c2.31,10.11,10.37,14.68,16.23,17.24,2.5,1.09,5.07,2,7.61,2.94v11a13.8,13.8,0,0,0-3.44-5.19l-.12-1-1.81-.55a15.91,15.91,0,0,0-1.52-.9,11.91,11.91,0,0,0-3.23-1.29L576,360.74Zm-234-45.08a1.69,1.69,0,0,1,.86-.22l7.1,1.65L580.92,372.2l12,3.61.32,2.73L480,457.07a1.69,1.69,0,0,1-1.41.24l-274-74.67a1.62,1.62,0,0,1-1.24-1.43c0-.06,0-.12,0-.19a9.34,9.34,0,0,1,1.38-1.79Zm93.38-144a2.5,2.5,0,1,1,4.85-1.23c.93,3.68,1.85,7,2.81,10.19a2.5,2.5,0,1,1-4.79,1.44C419.87,174.64,418.93,171.24,418,167.49Zm8,22.13a2.5,2.5,0,0,1,2.36,2.63c-.08,1.48-.24,3-.49,4.78a2.5,2.5,0,0,1-2.47,2.14l-.36,0a2.5,2.5,0,0,1-2.11-2.83c.23-1.58.38-3,.45-4.33A2.48,2.48,0,0,1,425.93,189.62Zm-6.38,69a2.5,2.5,0,1,1-4.74,1.59,44.53,44.53,0,0,1-2.23-11.07,2.5,2.5,0,0,1,5-.35A39.51,39.51,0,0,0,419.55,258.57Zm16.19,27.19a2.5,2.5,0,0,1,3.51-.4,71.57,71.57,0,0,0,19.21,10.81,2.5,2.5,0,1,1-1.79,4.67,76.47,76.47,0,0,1-20.53-11.56A2.5,2.5,0,0,1,435.73,285.76Zm34,16.56a2.5,2.5,0,0,1,3-1.89c2,.44,4,.85,6.08,1.21a33.09,33.09,0,0,1,4.58,1.16,2.5,2.5,0,1,1-1.56,4.75,28.06,28.06,0,0,0-3.88-1c-2.16-.38-4.28-.8-6.31-1.26A2.5,2.5,0,0,1,469.73,302.32ZM428.87,275A2.5,2.5,0,1,1,425,278.1c-1-1.22-1.93-2.5-2.83-3.79a2.5,2.5,0,1,1,4.1-2.87C427.07,272.66,428,273.85,428.87,275Zm-3.82-62.81c-.92,4.69-2.27,9.32-3.58,13.81-.81,2.77-1.65,5.63-2.36,8.45a2.5,2.5,0,1,1-4.85-1.23c.74-2.9,1.58-5.81,2.41-8.62,1.28-4.38,2.6-8.9,3.48-13.37a2.5,2.5,0,0,1,4.91,1Zm67.8,102.36a2.5,2.5,0,0,1,4.46-2.25,9.82,9.82,0,0,1,1,4.47,12,12,0,0,1-.09,1.41,2.5,2.5,0,0,1-2.48,2.2l-.3,0a2.5,2.5,0,0,1-2.18-2.78,6.71,6.71,0,0,0,.05-.81A4.81,4.81,0,0,0,492.86,314.54ZM373.7,248.32a2.5,2.5,0,0,1,3.1,1.7q.63,2.17,1.31,4.31l.35,1.11a2.5,2.5,0,1,1-4.78,1.48l-.34-1.08q-.7-2.2-1.35-4.43A2.5,2.5,0,0,1,373.7,248.32Zm6.56,23.88a2.5,2.5,0,0,1,2.91,2,125.07,125.07,0,0,1,1.76,13.49,2.5,2.5,0,0,1-2.31,2.68h-.19a2.5,2.5,0,0,1-2.49-2.32,120.32,120.32,0,0,0-1.69-12.95A2.5,2.5,0,0,1,380.25,272.2ZM342.07,154.37a2.5,2.5,0,1,1,3.76-3.3l1.34,1.53c.83,1,1.64,1.93,2.43,2.9a2.5,2.5,0,0,1-3.89,3.14q-1.13-1.4-2.31-2.76Zm25.36,46.85a2.5,2.5,0,0,1,2.8,2.16,104.5,104.5,0,0,1,.83,12,108.57,108.57,0,0,0,1.5,16.35,2.5,2.5,0,0,1-2.06,2.87,2.55,2.55,0,0,1-.41,0,2.5,2.5,0,0,1-2.46-2.09,113.61,113.61,0,0,1-1.57-17.11,99.28,99.28,0,0,0-.79-11.44A2.5,2.5,0,0,1,367.43,201.22Zm-11.52-27.11a2.5,2.5,0,1,1,4.43-2.32,93.08,93.08,0,0,1,5.44,12.57,2.5,2.5,0,1,1-4.72,1.64A88.19,88.19,0,0,0,355.91,174.12ZM572,299.11c-.54,1.45-1,3-1.52,4.68a2.5,2.5,0,1,1-4.81-1.37c.52-1.83,1.06-3.49,1.65-5.06a2.5,2.5,0,0,1,4.69,1.75Zm-5.33,21.21c-.26,1.11-.54,2.22-.83,3.32-.68,2.53-1.36,5.24-2.08,8.28a2.5,2.5,0,0,1-4.86-1.16c.74-3.08,1.43-5.83,2.12-8.41.28-1.05.54-2.11.79-3.18a2.5,2.5,0,1,1,4.87,1.15Zm18-43.53a34.47,34.47,0,0,1-4.14,8.49,2.5,2.5,0,1,1-4-3A30.42,30.42,0,0,0,580,275c.29-.76.58-1.53.89-2.29l-2.73-1.34c-2.47-1.22-4.8-2.37-7.2-3.29a2.5,2.5,0,1,1,1.79-4.67c2.62,1,5.16,2.26,7.62,3.48,1.57.78,3.2,1.58,4.79,2.29a2.5,2.5,0,0,1,1.25,3.34C585.75,273.86,585.22,275.28,584.65,276.78ZM558.94,264a2.5,2.5,0,0,1-2.38,2.61c-1.18.05-2.13.08-3,.08l-1.15,0c-2.82-.08-5.11-.23-7.19-.48a2.5,2.5,0,0,1,.59-5c1.93.23,4.06.37,6.73.44,1.25,0,2.51,0,3.77-.06A2.46,2.46,0,0,1,558.94,264Zm-26.29-2.78a2.49,2.49,0,0,1-3,1.89L529,263l-3.93-.87a2.5,2.5,0,0,1,1.08-4.88l3.95.88.63.14A2.5,2.5,0,0,1,532.66,261.24Zm-19.88-4.1a2.51,2.51,0,0,1-2.82,2.14,71.32,71.32,0,0,0-22.56.06,2.44,2.44,0,0,1-.43,0,2.5,2.5,0,0,1-.43-5,76.15,76.15,0,0,1,24.1-.09A2.5,2.5,0,0,1,512.77,257.14Zm-56.26-15.76a2.5,2.5,0,0,1-2.17,2.79l-.32,0a2.5,2.5,0,0,1-2.48-2.19,29.66,29.66,0,0,1-.22-3.71q0-.69,0-1.39a2.5,2.5,0,0,1,5,.21q0,.59,0,1.18A24.68,24.68,0,0,0,456.51,241.37Zm29.61-74.13a2.5,2.5,0,0,1,1.28-3.3,39.47,39.47,0,0,1,4.69-1.72,2.5,2.5,0,0,1,1.43,4.79,34.74,34.74,0,0,0-4.1,1.5,2.5,2.5,0,0,1-3.3-1.28Zm-7.81,10a28.73,28.73,0,0,0-4.11,8.14l-.32,1a2.5,2.5,0,1,1-4.73-1.61l.29-.89a33.69,33.69,0,0,1,4.83-9.56,2.5,2.5,0,1,1,4,3Zm-19.11,45.14a2.5,2.5,0,1,1-4.79-1.42,155.38,155.38,0,0,1,7.91-19.77l1-2.24a2.5,2.5,0,1,1,4.56,2.06l-1,2.25A151.58,151.58,0,0,0,459.21,222.42ZM474,258.69a2.5,2.5,0,0,1-2.5,2.43h-.4a19.73,19.73,0,0,1-11.3-4.09,2.5,2.5,0,0,1,2.68-4.19,2.58,2.58,0,0,1,.5.33,14.63,14.63,0,0,0,8.31,3h.28A2.5,2.5,0,0,1,474,258.69ZM287.71,379.91a7.12,7.12,0,0,0,5.21,6l149,40.61a7.13,7.13,0,0,0,5.95-1l61.87-42.91a7.14,7.14,0,0,0-2.41-12.81L361.93,335.09a7.13,7.13,0,0,0-5.17.73l-65.48,37A7.12,7.12,0,0,0,287.71,379.91Zm7-1,65.48-37,.07,0h0l145.38,34.69c.06,0,.09,0,.11.11s0,.1-.06.14l-61.87,42.9a.13.13,0,0,1-.12,0l-149-40.61c-.07,0-.09,0-.1-.12S294.66,378.94,294.72,378.9Z"/></svg>