<svg id="Layer_1" data-name="Layer 1" xmlns="http://www.w3.org/2000/svg" viewBox="0 0 800 600"><defs><style>.cls-1,.cls-10,.cls-11,.cls-12,.cls-13,.cls-14,.cls-15,.cls-16,.cls-17,.cls-18,.cls-19,.cls-2,.cls-20,.cls-21,.cls-22,.cls-23,.cls-24,.cls-25,.cls-26,.cls-27,.cls-28,.cls-29,.cls-3,.cls-4,.cls-5,.cls-6,.cls-7,.cls-8,.cls-9{fill:none;stroke:#fff;stroke-linecap:round;stroke-linejoin:round;}.cls-1,.cls-10,.cls-11,.cls-12,.cls-13,.cls-14,.cls-15,.cls-16,.cls-17,.cls-18,.cls-19,.cls-2,.cls-20,.cls-21,.cls-22,.cls-23,.cls-24,.cls-25,.cls-26,.cls-27,.cls-28,.cls-29,.cls-3,.cls-4,.cls-5,.cls-7,.cls-8,.cls-9{stroke-width:3px;}.cls-2{stroke-dasharray:6.94 9.91 2.97 9.91;}.cls-3{stroke-dasharray:14.86 9.91 6.94 9.91 2.97 9.91;}.cls-4{stroke-dasharray:6.87 9.81 2.94 9.81;}.cls-5{stroke-dasharray:14.72 9.81 6.87 9.81 2.94 9.81;}.cls-7{stroke-dasharray:7.1 10.15 3.04 10.15;}.cls-8{stroke-dasharray:15.22 10.15 7.1 10.15 3.04 10.15;}.cls-9{stroke-dasharray:7.13 10.19 3.06 10.19;}.cls-10{stroke-dasharray:15.28 10.19 7.13 10.19 3.06 10.19;}.cls-11{stroke-dasharray:6.92 9.89 2.97 9.89;}.cls-12{stroke-dasharray:14.83 9.89 6.92 9.89 2.97 9.89;}.cls-13{stroke-dasharray:15 10 7 10 3 10;}.cls-14{stroke-dasharray:6.79 9.7 2.91 9.7;}.cls-15{stroke-dasharray:14.55 9.7 6.79 9.7 2.91 9.7;}.cls-16{stroke-dasharray:7.24 10.34 3.1 10.34;}.cls-17{stroke-dasharray:15.5 10.34 7.24 10.34 3.1 10.34;}.cls-18{stroke-dasharray:7.57 10.81 3.24 10.81;}.cls-19{stroke-dasharray:16.21 10.81 7.57 10.81 3.24 10.81;}.cls-20{stroke-dasharray:7.88 11.26 3.38 11.26;}.cls-21{stroke-dasharray:16.89 11.26 7.88 11.26 3.38 11.26;}.cls-22{stroke-dasharray:6.51 9.3 2.79 9.3;}.cls-23{stroke-dasharray:13.95 9.3 6.51 9.3 2.79 9.3;}.cls-24{stroke-dasharray:5.82 8.31 2.49 8.31;}.cls-25{stroke-dasharray:12.46 8.31 5.82 8.31 2.49 8.31;}.cls-26{stroke-dasharray:8.02 11.45 3.44 11.45;}.cls-27{stroke-dasharray:17.18 11.45 8.02 11.45 3.44 11.45;}.cls-28{stroke-dasharray:3.55 5.07 1.52 5.07;}.cls-29{stroke-dasharray:7.61 5.07 3.55 5.07 1.52 5.07;}</style></defs><title>small</title><path class="cls-1" d="M435,1.54c.42,2.46.81,4.93,1.19,7.41"/><path class="cls-2" d="M437.73,18.73c.69,4.12,1.45,8.22,2.4,12.27a24.22,24.22,0,0,0,5.58,10.78"/><path class="cls-3" d="M449.35,45.14A34.73,34.73,0,0,0,458,49.91c3.68,1.42,6.52,3,8.52,6.58,4.36,7.76,10.66,13.18,18.81,17.28,7,3.55,13.1,9.07,21.13,10.73,3,.62,6,1.15,9,1.49,8.12.92,12.84-3.88,17.05-9.93,3.38-4.86,7.31-9.35,10.93-14A29.88,29.88,0,0,1,563,50.59c7.62-1.24,15.64-3.8,22.91.08,10.32,5.51,21.15,8.8,32.56,10.94,8.49,1.6,11.16,9.92,7.93,17.87-1.7,4.19-4.2,8.06-6.43,12-3.09,5.49-4.67,10.93-3.22,17.56,1.15,5.25.39,11,.18,16.45a18.62,18.62,0,0,0,4,12.5c7.1,9.24,14.67,17.69,27,20.08a19.79,19.79,0,0,1,12.52,8.41c3.7,5.26,8.87,8.3,15,10,6.7,1.89,13.3,4.11,20,5.94,9.63,2.63,19.34,5,29,7.56,5.13,1.38,10.31,3,11.93,9a10.12,10.12,0,0,1,0,5.93,32.93,32.93,0,0,1-5,9c-2.8,3.39-4.51,6.94-2.81,11,2.11,5.1,6.55,7.44,11.91,8,3.72.41,7,0,9.56-3.44a76.51,76.51,0,0,1,8-9c6.61-6.44,9.63-5.06,12.22,2.05,3.4,9.35,4.31,17.29-4.82,24.31-7.6,5.85-10,13.93-11.38,22.6-1.87,11.8-3.38,23.66-5.06,35.49a10.19,10.19,0,0,1-.51,2.49C741.52,324,731.22,336.61,712,339c-10.07,1.27-19.41,4.75-28.62,9.21-6.92,3.35-14.81,4.91-22.42,6.57-3.11.68-6.64-.44-10-.84-11.08-1.35-20.74,2.55-30,8a11.58,11.58,0,0,1-10,1.15c-8.52-2.59-17.08-2.36-23.87,4.43-3.38,3.37-7.37,5.08-11.53,7-7.54,3.53-8.76,6.17-7,14.38,1.64,7.71,3.17,15.49,5.61,23,1.79,5.5,0,10.45-.77,15.53s-2.69,10-3.85,15c-1.61,7-.06,13.49,3.94,19.5,7.29,10.95,18,15.85,30.51,18a19.22,19.22,0,0,1,6.47,2.5c3.06,1.86,4.2,4,2.22,8-3.36,6.9-1.75,13.68,2.77,19.95,4.08,5.66,7.26,12,11.71,17.32,3,3.55,7.12,6.92,11.42,8.39,7.87,2.69,16.23,4,24.42,5.71,7.94,1.65,14.35,6.74,16,17,.59,3.68,1.49,7.31,2,11,1,7.8,6.54,11.62,13.08,12.75,7.89,1.36,16,.67,22-6.25a5.63,5.63,0,0,1,1-1c10.81-7.51,14.16-18.78,16.08-31,1.22-7.74,3.33-15.33,4.89-23,1.45-7.14,2.8-14.31,4-21.5.91-5.5,4.32-8.72,10-10.07,7.33-1.74,14.77-2.85,20.65-8.79,5.71-5.77,8.27-12.6,9.26-20.14.84-6.43.66-13,1.14-19.48A36.34,36.34,0,0,0,778,420c-2.94-5.07-2.08-7.87,3.49-10.35a41.1,41.1,0,0,1,6.74-2.2"/><path class="cls-1" d="M793.06,406.24l.9-.22c2.12-.53,4.32-.7,6.49-1"/><path class="cls-1" d="M392,600.46c-1.06-2.26-2-4.57-3-6.85"/><path class="cls-4" d="M384.57,584.83l-.18-.3c-3.83-6.23-4.63-12.65-3.35-19.56a9.26,9.26,0,0,1,1.25-3.62"/><path class="cls-5" d="M385.62,557.75c4-4.21,8.28-8.13,13.91-10.21A27.07,27.07,0,0,1,408,546c8.38-.24,16.81-.48,25,1.95a39.49,39.49,0,0,1,5.49,2c8.49,4,17.3,4.13,26,1.38,10.56-3.35,21.33-2.52,32-2.24,6.22.16,11.35-1.87,16.51-4.65A100.59,100.59,0,0,1,523.51,539c8.45-3.34,14.1-9.13,17.56-17.53A138,138,0,0,1,549,506c3.43-6,4.93-12.12,3.06-19a38.31,38.31,0,0,1-1-10.47,73.46,73.46,0,0,0-3.87-23.56,76.88,76.88,0,0,1-4-21.94,51.18,51.18,0,0,0-12.88-33.86,313.75,313.75,0,0,0-28-28c-7.89-7-10.78-16.06-13.48-25.6-1.64-5.81-4.38-11.31-6.37-17-3.29-9.43-11.23-10.82-19.53-11.43-4.14-.3-8.39.39-12.48-.16-6.18-.83-12.05-2.81-17-6.89A37.78,37.78,0,0,0,409,299.33c-7.68.08-15.47,2.55-23,4.78-9.24,2.75-14.59,9.74-18.69,18.31-3.19,6.67-6.41,13.11-7.4,20.56-1.08,8.13,2.37,14,8.59,18.46,10,7.09,21.1,11,33.46,10.5,3.64-.14,6.6.76,9,3.54,2.94,3.38,6.23,6.5,8.88,10.09,1.27,1.72,1.76,4.22,2,6.43s1,5.32-1.94,5.8c-2.52.41-6.66.11-7.73-1.47-4.83-7.13-10-8.06-17.84-4.59-6.12,2.72-13.17,3.54-19.91,4.64a62.59,62.59,0,0,1-13.48.51c-4-.22-8.62-6.94-9-11.9-.51-6-1-12.05-2-18-2.15-12.52-18.9-16.34-28.46-12.57C309,359.34,305.77,369.85,304,381.49c-.81,5.34-1.84,10.65-2.4,16a10.38,10.38,0,0,0,1.13,6.34c.55.84,3.62.65,5.24.06a37.62,37.62,0,0,1,20-1.66c9.26,1.8,16.51,6.78,17.12,17.74A110.93,110.93,0,0,0,347,433c1,5.68-2.25,9.45-6.61,11.28-4.14,1.74-9.29,1.94-13.36-.84a124.6,124.6,0,0,1-25.57-22.91c-2.62-3.13-5.83-4.5-10-2.55-9,4.25-18.76,7.38-25,16-3.58,5-8.24,4.59-13.51,3.08a75.66,75.66,0,0,1-25.44-12.63c-7.16-5.48-15.64-6.8-24-8.39-3.76-.71-7.91-1.75-11.44-.87-11,2.73-13.91,8.79-11.42,19.28,2.21,9.31,5.31,18.44,8.44,27.5,2.47,7.13,5.43,14.09,8.46,21,6.22,14.21,13.05,28.18,18.83,42.56,4.43,11,12.63,16.14,23.64,17.35,10,1.09,16.89,5.73,20.47,15.1,2.92,7.63,6.41,15.15,8.29,23a40.08,40.08,0,0,1,.95,7"/><path class="cls-1" d="M269.87,593c0,2.5,0,5,.15,7.5"/><path class="cls-1" d="M429,1.54a90.46,90.46,0,0,1,.93,10c-.06,5,.09,10.16-1.06,15-3.17,13.3,1.63,23.21,12.72,29.88,8.38,5,15.73,11.26,23.49,17,9.33,7,18.81,14,29.06,19.33,7.77,4.07,16.79,5.83,25.37,8.22s11.75.8,16.49-6.94c3.48-5.68,6.88-11.41,10.52-17,6.69-10.23,20.28-13.08,31.06-6.67,7.64,4.54,14.51,9.93,19.65,16.84,2.93,3.94,3.42,9.77,4.73,14.81,2.78,10.72-.32,20.09-6.36,29.06a27.19,27.19,0,0,0-4.67,16.43c.27,7.1,3,9.6,10,10.63C611,159.63,621,162,631,164a56.46,56.46,0,0,1,8.48,2.05c3.76,1.4,8.41,2.34,10.84,5.1,9.35,10.6,21.2,15.4,34.65,18,6,1.17,11.81,3.9,17.5,6.39,8.34,3.66,11.17,11.16,11.41,19.44.34,11.59,4,21.23,14.14,27.45,10.39,6.36,13.56,16.59,14.78,27.56.5,4.54-1.16,9.31-1.8,14-.69,5-1.65,10-1.95,15-.88,14.84-13.28,30-28.05,34-9.84,2.65-19.72,5.14-29.48,8.05-8.75,2.61-17.46,1.49-26-.23-6.58-1.33-12.71-.42-19,.66-8,1.36-15.87,2.39-24,.69-3.8-.79-8,.13-12,.35-7.43.41-14.75,1.62-22.05-1.89-10-4.82-19.09-2-26.93,5.4-2.74,2.59-5.13,5.59-8.05,7.94-7.83,6.29-6.63,17.87-1.89,25,2.61,3.92,6.12,7.24,8.88,11.08,3.85,5.37,7.64,10.81,11,16.5,4.84,8.22,5.18,17.22,2,25.92-5.37,14.46-1.43,27,6.63,39,2.53,3.76,5.41,7.28,8,11,2.72,4,4.06,8.07,1.67,13.05-1.33,2.77-1.48,6.25-1.58,9.43-.22,7.09.54,8.33,7.44,8.87,7.36.57,12.3,4.33,15.95,10.15,5.27,8.43,11.91,15.51,21.1,19.32,6.34,2.62,13.37,3.51,19.91,5.72,10.17,3.44,18.74,9.15,24,18.93,2,3.67,3.55,7.68,6.09,10.93C678.67,586.75,687,590.55,697,591c4.66.19,9.34.63,14,.45,12-.47,17.87-10.22,24.7-17.71,3.09-3.39,3.35-9.66,4.22-14.74,1.92-11.29,3.09-22.71,5.21-34a65.47,65.47,0,0,1,5.53-16.44,15.39,15.39,0,0,1,10.32-8.12C775.26,496.8,783,487.05,786,473q2.5-12,5-24c1.45-6.92,4-13.32,9-18.5"/><path class="cls-6" d="M800.45,43c-5-.67-10-1.75-15-1.9-7.72-.23-15.16.88-21,6.88s-13.19,9.36-22,9.14c-2.81-.07-5.77.93-8.47,1.94a151.74,151.74,0,0,0-15.49,6.5c-10.36,5.25-20.54,3.56-30.48-.67-5.6-2.38-10.61-6.09-16.07-8.85-11.73-5.92-24.95-.16-25.3,14.45a68.19,68.19,0,0,0,3.79,25c1.52,4.3.08,7.62-4,10-3.16,1.85-6.38,3.59-9.49,5.52-5.64,3.5-7.2,9.34-5.8,14.93,2.64,10.56,9,18.57,20.3,21a27.1,27.1,0,0,1,17.18,10.92A24.23,24.23,0,0,0,679,165.35a202.55,202.55,0,0,0,27.48,8.95c5.72,1.34,12,.28,17.94.8a99.4,99.4,0,0,1,15.48,2.5c7.41,1.85,14.58,4.8,22,6.27,8.76,1.73,12.77,7.77,14.83,15.18,3.34,12,5.85,24.28,8.61,36.46a39.77,39.77,0,0,1,1.43,9.49c-.15,6.52-2.31,12.43-8.93,14.92-10.15,3.81-14.67,11.51-15.92,21.59-1.2,9.64-1.78,19.36-3.17,29a28.33,28.33,0,0,1-4,11.41c-3.59,5.38-8.32,10-12.3,15.13-4.14,5.34-10.29,7.11-16,6.73-21-1.4-38.07,7.78-54.42,18.87-6.72,4.56-13.95,6.61-21.55,8.51-4,1-8.48,2.71-11.39,5.51-8.55,8.2-18.69,12-30.14,13.39a118.91,118.91,0,0,0-13.49,2.5c-5.65,1.36-9.45,5.53-9.3,10.95.35,12.35-4,23.51-7.14,35a32.44,32.44,0,0,0-1,9A20.79,20.79,0,0,0,599,468c2.83,0,5.72.36,8.49-.06,12.09-1.82,20.2,5.16,27.95,12.62,4.17,4,4.14,9.57.54,15.42-2.67,4.34-5.25,8.47-5.09,14,.24,8.47,7.83,17.1,14.61,18,6.19.85,12.32,2.08,18.51,2.95,14.27,2,27.07,16.34,27.11,30,0,3.8.21,8.59,4.44,10.35s8.59.78,12.48-2.3c7.06-5.61,11.48-12.25,13.22-21.5C723,537.8,727,528.47,730,519c2.46-7.8.64-15-2.93-22a103.06,103.06,0,0,1-5.5-13.49c-1.62-4.78.28-9.16,3.54-12.37,3.75-3.7,8.69-3.44,13.38-1.57,3.25,1.3,6.32,3,9.52,4.45,14.33,6.39,26.39-1.59,27-16.49.15-3.83.06-7.67,0-11.5a17.81,17.81,0,0,0-5.51-13c-8.58-8.29-10.61-17.87-6.53-29,1.84-5,2.66-10.47,4.66-15.44,2.41-6,7.4-8.41,13.89-8.64s12.67-1.24,19-1.9"/><path class="cls-1" d="M2,395.49A20.66,20.66,0,0,1,6.55,394c7.32-.62,14.72-.61,22-1.65,13.38-1.91,22.29-9.93,28-21.89,4.14-8.65,9.38-16.32,17.42-22.09,11.1-8,13.36-20.62,16.08-32.9,2.06-9.28,2.49-19.14,7.57-27.45,6.88-11.25,16.4-19,30.41-18.93a22,22,0,0,1,9.45,2.48c10.29,5.26,20,11.68,30.63,16.19,11.55,4.92,22,11.38,32.47,18.12,9.87,6.35,14.19,15.23,14.45,26.59.31,13.39,9.64,22.36,23,22.54,8.84.12,17.71.18,26.48,1.08,9.28.95,15-4.88,21.52-9.61,7.5-5.45,12.94-12.75,18.55-20,3.32-4.27,7.63-7.78,10.84-12.12,3.73-5,6.78-10.58,10.09-15.93,5.84-9.45,12.11-18.61,20.54-25.95,7.28-6.34,7.11-14.56,5.14-22.46-1-3.8-4.8-7.56-8.29-9.9-6.45-4.33-11.4-9.51-14.4-16.66-3.24-7.71-7.2-15.16-9.75-23.08-1.31-4.08-.44-8.94-.19-13.42.53-9.51,2.36-19.08,1.65-28.48-.69-9.08-5.62-12.27-15.19-12.46A47.77,47.77,0,0,0,282,151c-10.84,5.54-22.17,9.27-34.5,9-6-.15-12-1-18-.86a47.19,47.19,0,0,0-13.46,2c-10.12,3.29-20,7.26-30,10.86-8.19,2.95-12.37,1.31-16.48-6.49a112.46,112.46,0,0,1-12.66-40c-.79-6.93-3.14-13.69-4.86-20.51-1.58-6.31-2.44-12.38-.69-19.05,2.09-8,1.78-15.74-6.21-21.57C137.7,59,131,52.52,124,46.54c-2.63-2.24-5.35-2.23-8,0-5.1,4.31-7.32,10.19-7.87,16.5-.37,4.27,1.45,8.84.62,12.94a32.93,32.93,0,0,1-5.91,12.93C98.48,94.71,97,101.35,95,108c-2.87,9.67.81,18.07,4.56,26.51,3.12,7,6.58,13.9,9.43,21,3.76,9.4,7.47,18.85,10.43,28.51a117.44,117.44,0,0,1,4.47,22c.75,7.07-4.71,11.25-12.83,12.07-10.38,1.05-18.34-3.71-26-9.6-1.88-1.44-3.76-2.9-5.49-4.51-5.53-5.13-12-5-18.49-2.92a97.32,97.32,0,0,0-14,5.49c-14.21,7-28.54,13.67-44,17.49-.43.11-.68,1-1,1.45"/><path class="cls-1" d="M401,600.46c-1.33-3.83-2.71-7.65-4-11.5-.76-2.3-1.89-4.66-1.9-7,0-4.21-1.37-8.73,1.87-12.5,4.56-5.31,10-9.19,17-10.47,8.72-1.6,17.39-1.8,26,.95s16.94.27,24.94-2.13c14.69-4.39,28.25-2.2,41.56,4.62,7.56,3.87,15.25,7.51,23,11,8.52,3.83,14.7,1.46,19-7A21.77,21.77,0,0,0,551,555a103.38,103.38,0,0,1,3.09-34c1.52-5.55,4.29-10.82,6.92-16a24.39,24.39,0,0,0,2-18.54c-3.31-11.62-6.67-23.25-9.41-35-1.39-6-2.59-12.12-.71-18.49,4-13.46-1.88-24.68-9.52-34.9-9-12-18.55-23.58-25.48-37-1.78-3.45-4.64-6.34-6.9-9.55-1.59-2.27-3.62-4.47-4.42-7-4-12.61-13.63-21.3-21.2-31.39-3.39-4.52-8.67-6.13-14.4-6.11-4.17,0-8.33-.29-12.5-.46-8.29-.34-14.26-5.44-20.5-10-7.9-5.77-16.31-10.45-26.49-9.39-5.73.59-11.37,2.11-17,3.43-7.36,1.71-14.68,3.62-22,5.48-5.34,1.35-9.71,3.8-12.58,8.95-4.49,8-11,13.6-20.4,15.61-18.26,3.88-31.84,14.39-42.12,29.85-4.27,6.42-9.86,12-10.86,20.08-.47,3.82-.62,7.67-1,11.49-.75,6.79-12.93,15.63-19.47,16.17-8.67.71-12.83-4.28-16.52-10.66-2.44-4.2-4.43-8.84-7.61-12.39C236.75,369.36,229,369.33,222,368c-5.54-1-11.51-1-14.94-6.57a11.06,11.06,0,0,1-2-5.47c.11-8.5.55-17,.9-25.5A19.48,19.48,0,0,0,198.5,314a115.67,115.67,0,0,0-34.41-20.21c-6.22-2.26-11.57-6.82-17.61-9.72-5.78-2.78-11.78-5.77-18-6.83-7-1.19-13.08,2.91-18.43,7.26-7.22,5.89-9.48,14.31-11,23-1.63,9.31-3.36,18.62-4.42,28-.75,6.6-.42,13.32-.63,20-.05,1.67-.32,3.33-.48,5-.41,4.29-2.83,6-7,5.51-2.32-.25-4.76-.85-7-.41-5,1-9.37,2.6-12.15,7.82-5.17,9.7-12.34,17.84-22.89,22a144.55,144.55,0,0,1-19,6c-10,2.42-17.25,7.8-21,17.58-.72,1.88-1.65,3.67-2.48,5.51"/><path class="cls-1" d="M1.55,381c2.45.51,4.91,1,7.36,1.45"/><path class="cls-7" d="M18.83,384.6a22,22,0,0,0,19.57-6.75q1.33-1.37,2.64-2.78"/><path class="cls-8" d="M44.39,371.25a99,99,0,0,0,9.93-13.9c3.9-6.68,7.77-13,14.23-17.36,10.78-7.32,14-18.77,16.44-30.51C87.38,298,89,286.35,97,277a81.63,81.63,0,0,1,17.43-15.61c8.59-5.59,16.47-4,24,1.18,15.94,11,33.19,19.51,50.49,28,7.28,3.59,14.15,8.07,21,12.45,7.4,4.72,10.07,12.35,12.11,20.43,1.21,4.78,2.58,9.75,5.08,13.92,3.27,5.46,9.25,8.16,15.34,8.43,12.09.54,24.26,1.14,35.54-5.24A51.8,51.8,0,0,0,296.51,323c3.84-6,7.52-12.1,11.53-18,7.22-10.58,14.61-21,22-31.51,2.26-3.22,4.86-6.21,6.94-9.54,2.74-4.39,2.56-10-1-13.39-7.47-7-12.61-15.41-17-24.54-3.87-8.05-10.9-13.45-18-18.45a25,25,0,0,1-10.27-15.13,14.68,14.68,0,0,1,1-8.89c2-4.4,4.56-8.45,4.37-13.57-.21-5.86-3.35-8.35-9-6.43a57.82,57.82,0,0,0-11.47,5c-8,4.84-16.37,4.83-25,2.91-6.67-1.48-13.27-3.4-20-4.37-6.12-.88-11.43,2-15.94,5.92-5.15,4.49-9.95,9.39-15.06,13.93-4.95,4.39-10.32,8.15-17.47,7-5-.81-10-2-15-3-12.12-2.45-20.5,4.63-21.15,17a57.13,57.13,0,0,1-3.51,17.44C137,239.31,126.21,243.29,113,237a157.34,157.34,0,0,1-29-18,18.72,18.72,0,0,0-13.52-4c-6.49.49-13,.31-19.48,1.14-7.7,1-14.1,5.32-20.51,9.4a123,123,0,0,1-17.18,9.23"/><path class="cls-1" d="M8.67,236.65Q5.17,238,1.55,239"/><path class="cls-1" d="M800,269.5l-7.17,2.19"/><path class="cls-9" d="M783,274.62c-7.45,2.37-9.49,8.7-11.06,15.38a39.53,39.53,0,0,0-.88,5.41"/><path class="cls-10" d="M770.93,300.5a54.34,54.34,0,0,0,3,15.51c2.25,6.75-.91,11.93-5.48,16.47-4.93,4.9-10.29,9.4-14.91,14.58-6.42,7.2-14.39,6.12-22.58,5.49-10.7-.82-21.4-3.79-32,1.35C689.13,358.61,680.12,364,675,374c-3.57,7-9,10.73-16.53,12.61-4.86,1.22-10.08,3-13.89,6-8.39,6.74-18.09,8.29-28.14,9.32-7.24.74-13.63,4.28-16.13,12-2.39,7.36-6.64,14.17-8.62,21.61-1.52,5.71-2.94,12.49,2.81,17.35a9.48,9.48,0,0,0,5.44,2,39.71,39.71,0,0,0,8.49-.91c10.71-2,20.75,1.6,31,3.5a35.85,35.85,0,0,0,5.5.5c1.9.05,3.85-.18,5.73-.15"/><path class="cls-1" d="M655.67,458.82c2.31.88,4.52,2.15,6.8,3.16-1.05,2.25-1.68,4.9-3.1,6.81"/><path class="cls-11" d="M654.3,477.21c-1.53,4.28-2.12,8.88-3.3,13.28-.95,3.55-1.76,7.13-2.56,10.72"/><path class="cls-12" d="M647.35,506c-1.16,5.56.29,8,6.12,10.43a64.07,64.07,0,0,0,8,3c12.12,3.21,22.43,9.46,31.51,18,7,6.61,13.77,6.2,19.4-1.53,4.8-6.59,8.89-13.77,7.48-22.43a52.73,52.73,0,0,0-3.45-11c-2.84-7.06-5.64-14.17-9-21C703,472.78,697,465.45,688,460.94c-4.43-2.22-8.85-5.14-9.38-10.47-.63-6.32.31-12.82,4.45-17.91,4.48-5.51,10.32-9.66,17.87-8.36,2.73.47,5.5,3.06,7.43,5.37,3.22,3.85,5.31,8.69,8.73,12.29a51.56,51.56,0,0,0,11.93,9c6.61,3.73,13.61,6.76,20.43,10.11,1.2.59,2.3,1.79,3.51,1.9,3.14.27,7,1.22,9.34-.16A10.32,10.32,0,0,0,766.73,451a37.14,37.14,0,0,0-6.92-13.44c-7.46-8.88-9.06-18.53-7-29.64,1.66-8.88,2.18-18,3.12-27,1-9.25,6.75-15.1,16-16,3.83-.37,7.74-.33,11.47-1.12a27.59,27.59,0,0,0,6.43-2.38"/><path class="cls-1" d="M794.19,359.12c2.12-1.31,4.16-2.77,6.26-4.13"/><path class="cls-1" d="M321,1.54c-.33,9.33-.75,18.66-1,28-.11,4.74-2.34,8.4-5.56,11.46-6.21,5.9-9.11,13-8.49,21.53.53,7.44-1.68,15.34,3.55,22,2.19,2.78,4.17,6.13,7.06,7.88,12.38,7.54,21.1,18.09,26.84,31.16a17.44,17.44,0,0,1,.1,15,100.63,100.63,0,0,0-9,28.49c-1.9,13-3.54,26.12,2.61,38.43a67.27,67.27,0,0,0,10,14c5,5.65,10.48,10.84,15.94,16,4.07,3.88,5.42,8.72,6,14a61.25,61.25,0,0,0,1.51,9c3.13,11.87,15.62,15.12,25,14a21.51,21.51,0,0,1,5-.45c12.37,1.51,20.47-5.16,27.51-14,5.83-7.35,7.15-16.47,10-25,2.49-7.5,4.47-15.23,7.63-22.44,4-9,12.65-10.81,21.37-11.49,8.31-.65,16.7-.38,25-1.23a24.37,24.37,0,0,0,10.91-4c5.18-3.57,2.81-10.87-4.42-13.79-5.07-2-9.91-4.11-13.52-8.52s-2.85-12.84,2.11-15.41c4.36-2.26,9.25-3.49,13.94-5.11,7.32-2.53,14.9-4.47,21.93-7.64,9.13-4.11,11.51-15.76,2.11-22.93-9.91-7.56-20.29-13.73-32.47-17.2-5.46-1.56-10.13-6-15.06-9.25-4.08-2.71-8-5.62-12-8.48-3.19-2.3-6.24-4.81-9.52-7-6.26-4.11-12.53-8.22-19-12-6.09-3.53-11.83-7.41-15.42-13.58-4.31-7.42-4.1-15.29-2.14-23.49,2.18-9.16,4.28-18.41,3.6-28"/><path class="cls-6" d="M331,1.54c.67,12.83,1.14,25.68,2.09,38.49.42,5.72,3.55,9.91,9.41,11.5q6.49,1.77,13,3.5c7.83,2.07,14.89,5.33,20.55,11.46s5.27,10.43-2,14.54c-5.33,3-10.7,5.94-16,9a22.79,22.79,0,0,0-4.49,3.49c-4.07,4-4.88,8.64-2,13.93a105.34,105.34,0,0,0,8.49,13c4.93,6.44,5.45,12.28.92,19-1.85,2.76-4,5.32-6,8-6.73,9.27-11.16,19.45-12,31-.76,10.53,4.28,17.88,12.41,24.09,9.49,7.25,18.59,15,27.46,23,2.85,2.57,4.58,6.46,6.55,9.91,1.14,2,1.55,4.39,2.6,6.44s2.78,3,5.48,2.1c5.58-1.76,11.32-3,17-4.58,9-2.45,14.53-8.69,18-17,2.12-5.11,4.23-10.25,6-15.51,1.91-5.78,5.88-9.93,10.08-14,2.89-2.78,6-5.38,9-8,6.7-5.82,8.51-13.78,9.43-22a79.13,79.13,0,0,0,0-11c-.14-4.73-2.91-7.49-7.47-8-4.35-.52-8.69-1.2-13-2-9.46-1.72-13.36-7.58-11.52-17a38.32,38.32,0,0,0,1-6.5c.15-7.38,2.89-9.36,10.07-8.13a25.11,25.11,0,0,0,10.93-.51c6.72-2,8.57-7.29,3.37-11.65-8.76-7.34-17.14-15.44-27.83-20.19-3.14-1.39-6.29-2.76-9.5-4-14.3-5.49-16.61-16.22-14.35-30.49,1.79-11.28,5-22.33,7.27-33.54.56-2.72.08-5.65.08-8.48"/><path class="cls-1" d="M263,600.46c.07-8.91-3.43-16.92-6.55-25-1.53-3.95-3.61-7.69-5.45-11.52-3.13-6.54-8.52-10-15.5-11-10.1-1.38-18.5-5.27-23-15.05a162,162,0,0,1-7-17c-5-15.49-12.78-29.88-18.23-45.09-5.63-15.71-12.61-30.7-19.28-45.9-2.73-6.24-1-12.18,3-17.45,2-2.64,4.39-4.95,6.45-7.54,5.65-7.12,5.26-15,1.38-22.41-3.28-6.3-8.58-10.36-16.36-10.67-6.39-.25-11.84,1.75-17,5.11-2.71,1.77-5.61,3.37-8,5.54-7.16,6.63-14.6,12.57-23.41,17.2-8.51,4.47-11.94,13.56-13,22.76-1.12,10-5.36,18.17-11.7,25.44C82.42,456,79.94,465.63,79,476c-1.09,12.13-1.7,24.57-11,33.94-4.32,4.35-8.85,8.74-14,11.92-13.37,8.24-24.87,18.66-36.45,29.09C12.58,555.36,7.22,559.3,2,563.47"/><path class="cls-6" d="M89.54,600c3.5-3.5,7.18-6.84,10.46-10.53,6-6.71,11.57-13.75,17.57-20.43,6.75-7.51,16-9.76,25.47-11,6.81-.88,13.69-1.17,20.48-2.11a11.65,11.65,0,0,0,9.48-7.44c7.31-18.07,8.61-36.15.64-54.53-3.13-7.22-5.09-15-7.61-22.45-5-14.92-19.46-22.51-33-21.42-12.05,1-21.93,6.56-27.33,17.5-4.82,9.76-8.39,20.17-12.1,30.44-2.85,7.87-5.14,16-7.55,24a28.75,28.75,0,0,1-9.52,14c-8,6.68-15.87,13.5-24,19.94-5.25,4.14-11.14,7.49-16.4,11.62C29.4,572.78,23,578.45,16.55,584a19.9,19.9,0,0,1-15,5"/><path class="cls-13" d="M210,600.46c2-6.17,3.91-12.36,6-18.49,3.07-8.9,2.34-17.09-4.56-24-4.79-4.78-6.55-11-8.41-17.05-3.54-11.6-6.31-23.45-10.19-34.93-3-8.89-7.4-17.3-10.8-26.07-2.21-5.69-3.23-11.86-5.67-17.43-6.06-13.86-16.09-24.72-27.37-34.57-5.62-4.91-11.44-9.09-19-10.53-6.12-1.17-12.71.61-14.31,6.13C112.06,436.15,103,445,95.5,455c-5.71,7.62-8.55,16-9.65,25.5-2,17.36-7.71,33-22.71,44.15C54.26,531.2,46.51,539.29,38,546.42c-7.82,6.55-15.84,12.87-24,19-3.87,2.9-8.28,5.07-12.45,7.57"/><path class="cls-6" d="M71.54,600c4.3-8.77,10.59-15.67,18.39-21.64,6.52-5,12.11-11.19,18.1-16.86,9.9-9.37,22.27-13.79,35-17.49,6.66-1.93,13.68-3.28,17.94-9.54,1.66-2.44,3.47-5.17,3.93-8,3.29-20.17-.53-39.18-10.43-56.94-4-7.2-14.73-10.52-23-9.13-12.34,2.07-19.88,9-24.06,20.57-3.6,10-8.4,19.54-11.73,29.59-1.87,5.65-2,11.92-2.66,17.94-1,8.61-5.29,15.32-11.54,21-.88.8-2.26,1.14-2.94,2-9.75,12.85-25.51,17.32-37.51,27-5.15,4.15-10.45,8.24-14.92,13.06-6.83,7.37-14.91,10-24.6,8.66"/><path class="cls-6" d="M198,600.46c2-6.17,4.29-12.26,5.92-18.52,1.82-7-.41-13.33-3.84-19.52a111.36,111.36,0,0,1-7.45-16.5c-1.21-3.41-1.29-7.27-1.6-11-1.49-17.33-5.48-33.91-13.4-49.56-2.49-4.92-3.61-10.56-5.1-15.94-3.15-11.41-11-18.94-20.58-24.9a100.67,100.67,0,0,0-14.47-7c-6.32-2.65-12-.86-17,3.47s-10.2,8.79-15,13.52c-8.15,8.08-11.22,18.5-13.7,29.42a161.81,161.81,0,0,1-8.5,26.46c-3.38,8.08-8.12,15.37-15.73,20.72-6,4.24-10.88,10.13-16.66,14.78-7.6,6.12-15.69,11.62-23.41,17.61-4.19,3.25-7.95,7.06-12.06,10.43s-8.32,6.67-14,7"/><path class="cls-1" d="M800.45,81a29.91,29.91,0,0,0-7-2.66"/><path class="cls-14" d="M783.85,77.09c-2.28-.12-4.58-.17-6.89-.23a144.94,144.94,0,0,1-17.3-1.28"/><path class="cls-15" d="M754.88,74.71q-1.94-.42-3.85-1c-10.71-3-20.53-.81-30.56,1.8-7.71,2-15.26,4.68-23,6.33-5,1.06-8.77,3.51-10.86,7.69-5.17,10.33-13.14,18.5-20.13,27.42-2.33,3-4.9,5.76-7.49,8.5-3.9,4.14-3.68,6.06,1.54,9,1.68.94,3.72,1.22,5.46,2.07,5.22,2.54,10,5.38,13.72,10.31a29.44,29.44,0,0,0,11.36,8.5c10.45,4.61,21,8.68,32.92,9,9,.22,17.94,3.79,27,5,8,1.1,15.77.29,21-7.35,5.84-8.54,12.45-16.78,14.81-27a64.58,64.58,0,0,0,1.07-17.45c-.33-6.77-.08-10.68,2-13.48"/><path class="cls-1" d="M793.56,101A44.24,44.24,0,0,1,800.45,98"/><path class="cls-1" d="M1.55,208q3.8,0,7.5-.31"/><path class="cls-16" d="M19.27,206.22a72.61,72.61,0,0,0,23.86-9.58"/><path class="cls-17" d="M47.41,193.74q2.1-1.53,4.13-3.23c4.54-3.8,7.05-8.78,8.56-14.48,2.13-8.05,4.66-16,6.93-24,1.12-4,3.16-8.1,2.81-12-1.09-12.15,3.25-22.87,7.81-33.47A154.09,154.09,0,0,0,89,64c1-7.93-2-10.31-10-9.09a154,154,0,0,1-21.49,2c-7.11.08-13.89,1.06-20,4.7-5.65,3.4-11.78,4-18,4.41l-5.34.32"/><path class="cls-1" d="M9,66.62,1.55,67"/><path class="cls-6" d="M2,487.48C12.72,492.83,19.93,501.92,27,511c5.15,6.66,11.57,7.29,17.53,5.29,16.59-5.58,26.34-15.56,26.72-35.34.18-9.18,2.19-18.33,3.32-27.5.83-6.74,5.63-11.08,9.5-16,6.86-8.7,8.4-18.63,5.39-29-3.11-10.7-17.66-17.15-27.89-13-10,4-19.9,8.25-30,11.93-9.87,3.59-16,10.19-19.59,20C9.2,435,5.38,442.15,2,449.48"/><path class="cls-6" d="M1.55,370c8.5,2.28,17.11,5.59,25.47,0s15.87-12.29,21.67-20.85a54.62,54.62,0,0,1,11.94-12.48C72.2,327.78,78.58,316.36,80.05,302c1-10,5.05-18.9,10-27.51A114.44,114.44,0,0,0,97,261c3.69-9.14-1.18-16.2-6.44-23C84.59,230.4,76.78,226.58,67,227c-6.83.31-13.67.59-20.49,1.05a9.86,9.86,0,0,0-4.47,1.49c-9.72,6.25-19.49,12.43-29,19-4,2.81-7.39,6.58-11.06,9.91"/><path class="cls-6" d="M1.55,358c4,.33,8,.65,12,1a16.31,16.31,0,0,0,12-3.55c7.46-6,14.67-12.32,22-18.43,5.11-4.24,10.54-8.11,15.43-12.57,5.91-5.4,8.16-12.58,9.14-20.43,1.06-8.54,2.08-16.91,7.12-24.7,3.68-5.69,5.69-13,6.55-19.84,1.34-10.71-5.85-19.32-17.73-21.57A33.92,33.92,0,0,0,40.53,244c-4.56,3.31-9.31,6.36-14,9.52-8.16,5.52-12.42,13.54-13.37,23-.88,8.81-4.62,15.85-10.62,22a3.83,3.83,0,0,0-.51,1"/><path class="cls-6" d="M527,1.54c-1.5,5.67-2.34,11.62-4.67,16.92-2.88,6.55-10,6.57-15.85,7.44-10.1,1.5-10.86,3.85-10.5,11.63a71,71,0,0,1,0,7.5A9.68,9.68,0,0,0,503,55.33C509.31,57.27,516,58,522.5,58.93a5.78,5.78,0,0,0,4.4-1.48A108.87,108.87,0,0,0,537.39,45c4-5.82,8.33-9.56,16.1-9.11,8,.45,16-1,24-.65,6.54.32,13,2.46,19.52,3.25,7.07.85,14.1,2,20.59-3.29,6.22-5.1,6.45-11.83,5.06-18C621.43,11.75,617.31,7,614.47,2"/><path class="cls-1" d="M603.47,600a39.25,39.25,0,0,0-4.4-6.06"/><path class="cls-18" d="M590.75,587.06q-1.54-.91-3.23-1.7c-7.87-3.68-15.36-4-22.71-1.39"/><path class="cls-19" d="M559.88,586.18q-.7.38-1.4.79c-3.86,2.28-7.66,4.67-11.51,7s-7.74.4-10.92-1.15a242.91,242.91,0,0,1-22-12.43c-3.79-2.36-6.91-5.78-10.58-8.38-11-7.8-23-11-36.49-7.64-9.65,2.36-19.28,4.91-29.47,4.8-6.15-.07-12.42,1.42-18.47,2.89-7.3,1.78-11.07,8.48-11,15.25"/><path class="cls-1" d="M408.88,592.64c.55,2.44,1.08,4.88,1.62,7.32"/><path class="cls-1" d="M144.53,2a22,22,0,0,0-5.11,5.44"/><path class="cls-20" d="M136.38,18.16a34.29,34.29,0,0,0,1.07,8.39,39.84,39.84,0,0,0,8.85,17.36"/><path class="cls-21" d="M150.31,47.86A59.23,59.23,0,0,0,168.53,58c4.4,1.63,8.87,4.28,13.45.94,2.45-1.78,4.41-4.24,6.54-6.44,3.85-4,7.07-9,11.63-11.8,10.75-6.69,18.49-16,25.32-26.23,1.38-2.08,2.06-4.63,3.05-7,2.74-6.46,6.15-7.25,11-2.5C247,12.34,255,18.31,266,19.13c2.55.19,5,1.56,7.51,2.41,10.42,3.51,14.7-.48,17.35-7.27"/><path class="cls-1" d="M292.54,8.89c.58-2.43,1-4.91,1.47-7.36"/><path class="cls-6" d="M1.55,186A18.89,18.89,0,0,1,5,188c7.92,7.21,16.8,5.94,25.49,2.38,13.65-5.59,21.08-15.74,21.7-30.9a46.9,46.9,0,0,0-1.18-14c-3.17-12.15-.38-22.7,8-32C63.92,108,65.38,101.16,65,94c-.34-6-3-8.65-8.93-8.9-4.64-.19-9.37,1.1-14,.76a90.61,90.61,0,0,1-16.49-2.94A82.84,82.84,0,0,0,1.55,80"/><path class="cls-6" d="M381.5,600c-3-6.5-6.72-12.78-8.81-19.56-2.33-7.58-3.15-15.61-4.71-23.43-.93-4.67-3.44-8.19-8-10-6-2.37-11.86-5.15-18-6.9-9.86-2.8-19.73-.74-29.46,1.42-8.41,1.86-16.75,3.52-25.5,3.68-9,.16-12.91,5.4-12.07,13.3,1.48,14,4.17,27.84,3.06,42"/><path class="cls-1" d="M640,1.54a43.49,43.49,0,0,1,.9,7.44"/><path class="cls-22" d="M640.51,18.27c-.37,3.76-.94,7.51-1.45,11.28-.69,5.12,1,8.44,3.88,10.59"/><path class="cls-23" d="M647.06,42.25a25.76,25.76,0,0,0,3.87,1c8.49,1.55,17.38-1.16,25.54,2.78,3.49,1.68,7.19,3,10.46,5.06,10.43,6.5,20.42,7,31.14.11,6.07-3.92,13.15-6.35,19.91-9.12,11-4.52,19.79-12.33,29-19.51a55.92,55.92,0,0,1,6.48-4,24.58,24.58,0,0,0,7.12-6.18"/><path class="cls-1" d="M783.12,8.47A37.14,37.14,0,0,0,786,1.54"/><path class="cls-6" d="M651,1.54c-.33,6.17-.86,12.33-1,18.5-.15,10.14,3.57,14.67,13.46,15.93,8,1,16,1.25,24,2.12,6.19.68,11.7-1.88,17.51-3,4.62-.89,9.32-1.93,14-1.94,14.87,0,27.4-5.42,38-15.62C762.2,12.45,767.29,7.2,772.45,2"/><path class="cls-6" d="M799.95,543.47c-1.33-3.83-3.16-7.57-3.91-11.52C793.74,519.8,785.78,512,774,511c-5.88-.52-13.08,4.23-16.54,10.47-2.71,4.89-3.48,10-3.55,15.52-.08,6.17-1.48,12.35-1.27,18.49.32,9.19,4.89,13.09,14.36,13.49,2.83.12,5.68-.16,8.49.06,4.49.35,8.88.87,12.06,4.92a21.08,21.08,0,0,0,12.94,8"/><path class="cls-6" d="M370.5,600c-2.5-9.5-5.55-18.89-7.36-28.52-2.12-11.31-9.38-15.78-19.6-18.62-17.55-4.88-33,1.26-48.51,7.73-6.81,2.84-8.71,9.5-8.83,15.93-.15,8,1.14,16,1.8,24"/><path class="cls-1" d="M342,1.54c0,2.5,0,5,0,7.5"/><path class="cls-24" d="M342.17,17.34a54.63,54.63,0,0,0,2.22,13.73,23.63,23.63,0,0,0,2.89,6.18"/><path class="cls-25" d="M350,40.42a19.13,19.13,0,0,0,6.58,4c9,3.35,18.27,6.19,27.48,9,4.35,1.35,8.49-.14,10.43-4a118.61,118.61,0,0,0,11.5-35q.11-.68.2-1.37"/><path class="cls-1" d="M406.54,9c.18-2.49.27-5,.46-7.48"/><path class="cls-6" d="M1.55,164c6.33.67,12.75.89,19,2.1,9.27,1.8,13.24-4.34,14.41-11.62,1.75-10.93,2.86-22,4.06-33,.44-4,1.35-8.27.31-11.93C37.75,104.07,33,101,27.57,99,20,96.14,12.25,97.29,4.55,97c-1,0-2,0-3,0"/><path class="cls-6" d="M694.46,600.21c-1.67-.25-3.35-.41-5-.77-3.51-.77-7-1.52-10.5-2.51a36.39,36.39,0,0,1-19.59-13.41,148.13,148.13,0,0,0-13-14.53c-10.73-10.85-25.74-7.07-35.4-1.44-3.73,2.18-4.64,6.91-3,11.39,2.58,7.2,5.31,14.34,8,21.51"/><path class="cls-6" d="M659,1.54c.33,5.67.26,11.39,1.11,17s7.19,9.31,12.87,8c9.2-2.17,18.29-4.85,27.52-6.89A93.09,93.09,0,0,1,728,17.33c9.22.71,17.52-2.54,23.52-10.27a56.92,56.92,0,0,1,5-5"/><path class="cls-1" d="M94.54,2c.94,2.29,2.18,4.54,3.11,6.82"/><path class="cls-26" d="M97,19.72C94,24.21,88.22,28,83,27.93A51.15,51.15,0,0,0,71.25,29"/><path class="cls-27" d="M65.76,30.58a40,40,0,0,0-9.82,5.3c-3.51,2.57-8.12,3.85-12.41,5.07C36.14,43,29.15,45.6,23,50.46a31.67,31.67,0,0,1-8.55,4.75"/><path class="cls-1" d="M9,56.83A63.49,63.49,0,0,1,1.55,58"/><path class="cls-6" d="M523.48,600c-5.33-3.5-10.85-6.76-15.94-10.57-4.43-3.31-8-7.84-12.62-10.81-12.81-8.26-26.78-8.49-40.9-4a215.43,215.43,0,0,0-24,9c-6.95,3.15-9.62,9.32-9.05,16.88"/><path class="cls-6" d="M166.53,2c-4.67,4.83-9.6,9.44-13.92,14.57-3.82,4.53-3.62,11,0,15.91s8.06,8.9,14.46,10.06c4,.72,7.5.75,11.07-1.95,5.75-4.33,11.81-8.29,18-12,10.25-6.26,16.76-14.85,18-27"/><path class="cls-6" d="M536,1.54c.83,4.17,1.27,8.46,2.6,12.46,1.66,5,6.38,6.66,10.91,8,9.16,2.7,18.36,4.15,28,2.17,5.18-1.07,10.64-.74,16-1.14,8.33-.63,11.2-4.58,9.49-13-.58-2.85-1.32-5.67-2-8.5"/><path class="cls-6" d="M352,1.54c0,7.75-.67,15.38,2.34,23.06,5,12.67,18.35,17.45,29.68,10,8.16-5.39,12.1-13,13-22.53.32-3.5.67-7,1-10.5"/><path class="cls-6" d="M67.54,2c-1,2.83-2.08,5.64-3,8.5-3.22,10.22-10.36,17-20.07,20.31A117.73,117.73,0,0,0,15.05,45.54C11,48.35,6.66,50.35,1.55,50"/><path class="cls-6" d="M443,1.54c0,12,6.33,20.67,17.53,22.83,3.63.7,7.64-.42,11.46-.86,3.18-.37,6.35-.9,9.5-1.49,8-1.5,10.63-1.16,13-11,.74-3.11,1-6.32,1.54-9.49"/><path class="cls-6" d="M2,153.52c1-.5,2-1.37,3-1.44,13.3-1,21.59-13.74,22.07-24.55.36-8.08-6.34-14.05-12.61-15.34-4.16-.85-8.63-.16-13-.16"/><path class="cls-6" d="M56,1.54C54.88,13.39,49,21.3,37.61,25.69c-8.31,3.19-16.07,7.82-24.05,11.85-3.86,1.95-7.67,4-11.5,6"/><path class="cls-6" d="M493.49,600c-4.77-8.55-11.84-13.77-21.47-16.12-7-1.7-13.18-1.17-18.47,3.68-4.42,4.05-8.39,8.61-12.55,12.94"/><path class="cls-1" d="M155.53,600c-1.84-1.72-3.61-3.48-5.29-5.31"/><path class="cls-28" d="M146.94,590.79a54.88,54.88,0,0,1-5.48-8.29A15.94,15.94,0,0,0,140,580.2"/><path class="cls-29" d="M138.21,578.39c-4-3.11-8.71-1.22-12.45,3.27A47.33,47.33,0,0,0,120,591"/><path class="cls-1" d="M118.88,593.25c-1.09,2.26-2.17,4.53-3.35,6.71"/><path class="cls-6" d="M362,1.54c0,3.67-.33,7.37.08,11,.64,5.72,4.36,10,9.43,11,6,1.13,9.76-2.58,13-6.95s3.66-9.69,3.5-15"/><path class="cls-6" d="M48.54,2c-.5.67-1.25,1.26-1.46,2-1.92,6.81-5.88,11.67-12.52,14.54C25,22.72,15.56,27.22,6,31.51A46.76,46.76,0,0,1,1.55,33"/><path class="cls-6" d="M800.2,454.48c-1.58,5-3.45,9.93-4.68,15A167,167,0,0,0,792,488c-.84,6.74,1.09,12.47,7.92,15.49"/><path class="cls-6" d="M800.45,194A11.1,11.1,0,0,0,790,207c1.27,8.71,2.56,17.45,6.48,25.49,1,2.08,2.31,4,3.48,6"/><path class="cls-6" d="M178,1.54c-.17,2.33-.22,4.68-.52,7-.51,3.89,1.72,7,5.52,7.5,8.57,1.12,17.09-5.75,18-14.5"/><path class="cls-6" d="M547,1.54c1.65,7.08,6.55,10.75,14.5,10.46,9.81-.35,14.32-2.71,17.5-10.46"/><path class="cls-6" d="M37.55,2c-5.6,7.67-14,10.6-22.48,13.54C10.48,17.17,6,19.2,1.55,21"/><path class="cls-6" d="M668,1.54c.33,1.67.58,3.36,1,5,1.61,6.1,5.29,8.12,11.47,6,6-2.08,11.42-5,14.51-11"/><path class="cls-6" d="M590.48,600c-8.55-9.5-23.09-8.74-30,0"/><path class="cls-6" d="M800.2,121.52c-.75,3.83-1.14,7.78-2.33,11.47-1.7,5.29-1,9.84,2.55,14.06.21.25-.13,1-.21,1.47"/><path class="cls-6" d="M800.2,1.54A94.43,94.43,0,0,0,797.51,11c-1,5.38-1.72,10.86,2.44,15.49"/><path class="cls-6" d="M453.49,2c3.2,1.7,4.11,6.53,9,6.1,3.09-.27,5.92-.26,8.05-3.05,1-1.27,2.61-2,3.94-3"/><path class="cls-6" d="M649.47,275c-3.29,1.4-6.59,2.4-8.19,6.42-.83,2.1-1.91,4.05-.21,5.45a11.74,11.74,0,0,0,6.41,2.46,10.52,10.52,0,0,0,5.94-1.91c5.27-3.52,3.69-9-3.45-12.43"/><path class="cls-6" d="M228.52,206c-7.28,2.09-9.17,8.43-10.36,14.53-2.07,10.63-2.28,21.49,1,31.92a31.5,31.5,0,0,0,7,11.91,51.62,51.62,0,0,1,11,17.58c4.18,10.76,12.81,18.28,21.43,25.45a7.89,7.89,0,0,0,11.8-1.48,271.17,271.17,0,0,0,17.86-26.56c1.77-3.08,1.49-8.08.54-11.8-1.46-5.74-3.22-11.59-7.75-16.09-5.18-5.15-9.88-10.79-15.1-15.9-3.71-3.63-8.11-6.55-11.9-10.1a134.17,134.17,0,0,1-11.48-12c-3.62-4.37-7.4-7.93-13.56-7.44"/><path class="cls-6" d="M127,285.5c-13.2,2-19,14-19.17,24.49-.09,6.84-1.5,13.74-2.93,20.48-1.26,6,.38,11.4,2.74,16.45a125.64,125.64,0,0,0,10.45,18c4.41,6.41,10.8,7.39,18.44,4.64,12.16-4.38,24.27-8.81,37.46-9.73,10.59-.73,16.42-8.38,20.48-17.36,5.88-13,2-21.89-8-28.89-6-4.18-12.28-8.23-19-10.89A152.24,152.24,0,0,1,144,291.06c-5-3-10.27-5.79-16.46-5.56"/><path class="cls-6" d="M227.52,191c-6.5,2.48-11,7.21-14.48,13-3.39,5.63-6.75,11.28-10,17-3.47,6.12-3.56,12.72-2.55,19.49,1,6.48,1.87,13,2.49,19.5,1,10.65,8.05,17.26,15.57,23.45a61.28,61.28,0,0,1,18.63,25.47c2,5.21,5.64,9.86,8.88,14.53,4.19,6,10.67,5.61,16.39,3.85a32.65,32.65,0,0,0,19.69-16.24c3.83-7,8.77-13.47,13.38-20.06,5.32-7.6,10.9-15.13,10.35-25-.17-3-2.11-6-2.83-9-2.32-9.89-8.08-17-16.42-22.66-3.07-2.09-5.47-5.87-7-9.39-2.84-6.68-7.38-11.86-12.7-16.38-7.58-6.44-15.16-13.16-25-15.93-4.45-1.25-9.3-1.13-14-1.63"/><path class="cls-6" d="M130,299.5c-7.73,2.67-7.14,10.05-9,16-.94,3.08-.94,6.49-2.13,9.45-4,10-2.11,19.07,4.68,26.94,3.86,4.47,8.91,7,15.41,5.14,13.07-3.8,25.93-8.15,38-14.58,8.07-4.31,11-10.36,8.5-17-2.14-5.67-7.07-8.81-12.06-10.84-13.47-5.47-27.26-10.17-40.94-15.13a6.18,6.18,0,0,0-2,0"/><path class="cls-6" d="M403.5,310c-3.67,1.5-7.25,3.27-11,4.43-3.95,1.21-5,4.49-5.29,7.59s2.2,5.08,5.26,6.59c6.9,3.41,13.72,6.87,21.55,7.34a18.66,18.66,0,0,0,7-.54c8-2.73,8.59-4.21,5.53-11.91-3.88-9.76-10.1-13.5-22.5-13.5"/><path class="cls-6" d="M454.49,327c-4.17,1.5-8.47,2.71-12.46,4.57-4.86,2.27-6.08,5-4.46,9.9a103.63,103.63,0,0,0,6,15c2.94,5.71,11.68,7.42,18,5.21,5.54-2,9.37-5.47,10.22-10.7,1-6.29,1.17-13.2-2.41-18.87-3.16-5-8.78-5.58-14.36-5.09"/><path class="cls-6" d="M706.46,358c-4.33,2-9,3.51-12.93,6.11-7,4.6-10.1,11.94-10.43,19.89-.58,13.68-6.78,16.73-17.63,19-2.24.48-4.34,1.64-6.51,2.44-5,1.85-10,3.72-15,5.49-4.47,1.57-9.16,2.65-13.45,4.62s-6.29,5.89-5.57,10.9c.68,4.76,4.4,6.69,8.07,7.85a60.91,60.91,0,0,0,14.46,2.55c6.87.41,10.49-3.5,10.49-10.39,0-1.5.08-3,0-4.5-.31-5,2.48-9.39,8.51-11,3.36-.91,6.72-1.83,10-3,12.87-4.62,34-.4,42.09,12.47a41.34,41.34,0,0,0,9.05,10.38c2.43,1.93,6.38,3.34,9.31,2.88,3.58-.57,4.7-4.62,5-8.2.71-7.66.68-15.46,2.19-23,1.69-8.41-.79-16.08-2.13-24-2-12-10.28-17.21-21.07-19.39-4.55-.92-9.31-.76-14-1.1"/><path class="cls-6" d="M707.46,367c-10.6,3.15-13.41,9.33-10.39,19,1.85,5.91,7.39,8.7,12.44,11.45,3.26,1.78,6.94,2.79,10.46,4.07,4.83,1.77,8.31-.18,8.91-5.5.55-4.79,1.27-9.82.41-14.46-1.93-10.37-9.68-15.52-18.82-14.54a23.71,23.71,0,0,1-2.5,0"/><path class="cls-6" d="M94.54,370c-5,1.52-3.86,5.82-3.26,9,.43,2.24,2.82,4.45,4.89,5.86.91.62,4.27-.4,4.66-1.4.86-2.23,1.45-5.37.49-7.3C100.08,373.64,97.2,372,95,370"/><path class="cls-6" d="M633.47,189c-13.44,5.34-24.64,13.55-33,25.48-2.87,4.09-5.95,8-9,12-3.31,4.31-2.88,9.13-2,14,.38,2,1.07,4,1.46,6,1.3,6.61,0,9.69-6.51,11.91C572.27,262.59,567.21,274.5,567,285a17.09,17.09,0,0,0,5.6,12.91c6,5.72,12.33,10.89,20.89,12.68,6.59,1.38,13,3.79,19.53,5.36,9.62,2.31,19.15.77,27.9-3.13,7.88-3.52,15.19-3.55,23.1-.89,6.54,2.2,13.32,3.68,20,5.6,4.2,1.21,8.26,3.12,12.52,3.87,7.24,1.27,14.92-3.38,16.94-9.9,2.1-6.75-1.78-11.62-6-15.93a40.43,40.43,0,0,0-19.93-11.09c-1.89-.44-4-.86-5.45-2-7.57-6.39-6.95-11.07,2.46-15.87,7.32-3.74,11-9.62,12.58-17.53,1.45-7.12-.38-13.75-1.64-20.52a110.13,110.13,0,0,0-2.52-11c-1.8-6.12-6.54-9.24-12.46-9.38-11-.27-20.58-4-29.52-10.1-4.2-2.86-8.6-5.44-13-8a15.46,15.46,0,0,0-4-1"/><path class="cls-6" d="M326,375.49c-.5.33-1,.7-1.5,1-2.58,1.44-2.66,3.62-.86,5.37.69.67,3.26.31,4.28-.47,1.89-1.45,2.58-3.57.07-5.37a5.56,5.56,0,0,0-1.49-.52"/><path class="cls-6" d="M219.52,388l-2,2,4,.5L220,388"/><path class="cls-6" d="M227.52,177c-11.2,4-17.05,13.62-23.43,22.55a53.79,53.79,0,0,1-18.46,16.15c-5.55,3.05-10.17.76-15.09-.28-5.65-1.2-10.08.46-12.93,5.13a167.37,167.37,0,0,0-10.48,19.49c-4.09,9.29-2.79,13.52,5.42,19.41,11.44,8.21,22.77,16.55,35.91,22.17,8.47,3.62,16.41,8.49,24.55,12.88,9.21,5,14.32,12.84,16.55,23,5,22.78,22.61,23.69,38.89,17.82,10-3.6,18.07-10.56,21.95-20.86,3.14-8.35,9.68-14,14.53-21,6.53-9.41,12.74-19.09,18.42-29,2-3.58.89-8.08-1.31-11.91-3.24-5.63-6.67-11.17-9.43-17a24.94,24.94,0,0,0-13.07-13C293.48,219.83,289,215.22,285,210q-7.29-9.41-15-18.47a12.8,12.8,0,0,0-5-3.48c-9.44-3.64-18.92-7.23-28.51-10.46-2.59-.87-5.63-.44-8.46-.61"/><path class="cls-6" d="M484.49,398c-2.83.67-5.7,1.21-8.49,2-8.91,2.58-15.21,9.26-15,20.47.15,6.67.82,13.33.93,20,.28,17.48-9.14,23.47-24.45,24.59-11.57.85-17.39-4.57-19.57-15.08A84.75,84.75,0,0,0,413.35,434a49.2,49.2,0,0,0-8-12.94c-3.38-3.87-8-6.63-11.83-10.15-8.15-7.48-24.51-3.28-30.51,2-4.64,4.12-3.37,9.48-2.45,14.47a177,177,0,0,1,2.41,37c-.18,6.84-.47,13.68-1,20.49a25.25,25.25,0,0,0,5.65,17.92c5.13,6.58,8,14.19,11.32,21.61,2.92,6.57,4.56,7.62,11.08,5.48a111,111,0,0,1,11.51-3.45c5.14-1.09,10-1,15.05,1.81a287.7,287.7,0,0,0,29.52,14.89c4.42,1.87,10,2.15,14.88,1.54,11.24-1.41,22.63-2.89,33.44-6.09,9.72-2.87,19.51-6.92,27.89-12.51,10.68-7.13,15.88-18.81,18.55-31.24.6-2.8-.95-6-.78-9,.42-7.51,1.26-15,1.9-22.5a10.34,10.34,0,0,0,0-3.49c-3.27-12-6.7-24-9.94-36-2.79-10.37-9.95-16.74-19.58-19.81-8.9-2.84-18.27-4.18-27.44-6.18"/><path class="cls-6" d="M62.54,405c-4.83,1.33-9.72,2.48-14.49,4A39.28,39.28,0,0,0,27,425c-3.76,5.62-4,11.26-.9,17a15.44,15.44,0,0,1,.45,14.52c-6,12.92-1,24.31,5.06,35.47a29.08,29.08,0,0,0,5,6.49c8,8,20.88,1.79,23.43-6.47,2.81-9.1,5-18.39,3.91-28-.42-3.75-1.93-7.47-3.45-11-2.18-5-2.09-7.71,1.59-11.51,4.42-4.57,8.87-9.13,13.51-13.49,7.35-6.91,2.85-18.23-5.55-21.47A46.25,46.25,0,0,0,63,405"/><path class="cls-6" d="M432.5,409c-3.82,1.36-4.86,4.2-4.53,8,.75,8.49,1.13,17,2.1,25.49.81,7.12,9.06,12.32,15.93,10.51,4-1.05,8-7.66,6.92-12.48a196.72,196.72,0,0,0-5.52-21C444.72,411.57,440.68,409,433,409"/><path class="cls-6" d="M486,411.49c-10.79,1.89-14.12,9.64-15,17.5-1,9-1.76,18-3.07,27-1.18,8-6.08,13-13.9,15.58-8.77,2.86-17.38,6.2-26,9.45-7.85,3-10.71,7.39-8.92,15.46,3.93,17.73,14.14,31,30.51,38.82,5.4,2.57,11.8,1.56,17.93.32A75.31,75.31,0,0,0,491,527a49.55,49.55,0,0,1,10-4.49c10.62-3.35,17.1-10.45,20-21.06,2-7.33,4-14.67,6-22a35.73,35.73,0,0,1,2-6A27.23,27.23,0,0,0,531,454c-1.69-6.33-3.28-12.68-5-19s-5.12-11.23-11-13.94c-9.13-4.19-18.14-8.87-28.47-9.56"/><path class="cls-6" d="M630.47,176c-15.66,2.73-25.44,13.23-34,25.46-3.33,4.73-6.75,9.65-11.07,13.39-6.63,5.75-10,13.05-11.17,21.17A21,21,0,0,1,567,249.52c-5.41,4.78-10.17,10.1-11.46,17.5-1.39,8-2.48,16-3.51,24-.55,4.3-.75,8.66-1,13-.26,4.15,1.38,6.85,5.45,8.59,6.15,2.64,12.06,5.86,18,8.91a78,78,0,0,0,35,8.31c12.66.13,25.33-1.56,38-1.66,7-.06,14,1.89,21,2.24,8.31.42,16.66.23,25,0,3-.07,6-1.08,9-1.41,16.42-1.78,24.41-15.14,25.14-28,.31-5.55-2.69-11.63-5.34-16.88-2-4-3.69-7.7-3.27-12.1.77-8-2.11-15.26-5.68-21.92A95.12,95.12,0,0,1,703,216.51c-1.14-9-7.79-16.53-17.55-17.35-14.85-1.24-27.3-7.16-37.94-17.19A21,21,0,0,0,631,176"/><path class="cls-6" d="M56.54,418a79.93,79.93,0,0,0-6.94,4.09,2.91,2.91,0,0,0-.45,2.84c.53.81,2.2,1.75,2.83,1.46,2.63-1.22,5.54-2.44,7.43-4.5,2.14-2.33-.88-3-2.37-3.88"/><path class="cls-6" d="M492.49,427c-8.63,1.57-11.67,7.5-12.55,15.49-.92,8.36-2.18,16.69-3.48,25-.83,5.32-4.08,8.87-9,11-3.69,1.62-7.38,3.23-11,5-4.88,2.41-9.89,4.64-14.45,7.57a10.77,10.77,0,0,0-3.93,13.84c2.59,5,5.61,10,9.5,13.93,6.54,6.66,14.85,6.93,23.84,1.59a226.2,226.2,0,0,0,20.41-13.11c3-2.26,6-5.86,6.9-9.4,3.33-12.47,10.46-22.78,17.84-32.84,6.74-9.2,2.29-28.52-8.63-32.59-5-1.86-10-3.67-15-5.5"/><path class="cls-6" d="M94,173.52c-10.42,4.23-9.19,14.34-5.41,20.44,1.84,3,4.52,5.44,6.93,8,2.16,2.34,4.88,2.22,7.46,1,2.79-1.35,3.89-3.82,4.07-7,.35-6.15-2.88-11-5.69-15.92-1.52-2.64-4.52-4.42-6.85-6.58"/><path class="cls-6" d="M209.52,434c-1.5.33-3,.72-4.5,1-7.57,1.39-11.64,8.44-10.65,16,1.34,10.18,5.74,19,10.09,28,5.9,12.22,11.37,24.64,17.07,37A25.44,25.44,0,0,0,231,527c11.29,7.31,25.82-2.21,28.87-13.1.61-2.19-.83-5-1.34-7.45-.82-4-2.73-8.12-2.31-12,1.63-14.74-4.69-27.64-9-40.93-1.25-3.89-5.3-7.33-8.82-10-8.32-6.24-17.74-10-28.41-9.61"/><path class="cls-6" d="M381.5,166c-9.72,4.19-11.61,13.52-3.93,21.94,8,8.72,17.8,15,28.5,19.91,1.33.6,4.37-.28,5.25-1.48,1.35-1.83,2.67-5,2-6.8-3.75-10.1-8.83-19.55-17.86-26-4.17-3-8.94-5.08-13.44-7.58"/><path class="cls-6" d="M217.52,448c-8.55,3-10.54,7.12-7,15.48q6.18,14.38,13,28.47a27.69,27.69,0,0,0,6,7.94c1.83,1.7,6.06,3.92,6.63,3.34,2.16-2.17,4.28-5.3,4.58-8.25,1.15-11.2-1.25-22.15-3.93-32.95a22,22,0,0,0-4.48-8.45A15.54,15.54,0,0,0,218,448"/><path class="cls-6" d="M555.48,137c-2.67,2.33-6.09,4.2-7.86,7.09-5.3,8.64-12.76,14-22.11,17.48-7.31,2.69-8.19,6.43-4.06,12.95,3.27,5.16,5.12,10.76,3.51,17a8.35,8.35,0,0,1-1.51,3.47c-7.53,8.3-15.83,14.8-27.95,15.21-8,.27-16,2.15-24,3.34-3.17.47-6.33,1.41-9.5,1.41-7,0-9.94,4.81-11.9,10.12-3.56,9.7-4,19.71-2.22,30,1.27,7.39,1.35,15,2.14,22.47,1.39,13.14,7.06,20.48,21,20.36,10.42-.09,18.64,3.93,25.42,11.21,3.69,4,7.91,7,13.08,7.24,4.62.25,10.1.16,13.84-2.06,9.4-5.6,13.71-14.89,14.67-25.74.58-6.51,1.42-13,2-19.5.7-8.44,5.1-15.06,10.58-20.94,7.32-7.84,10.93-16.93,10.39-27.55a22.31,22.31,0,0,1,7.15-17.9c6.24-5.91,7.92-13.07,7.91-21.1,0-8.93,0-17.83-4.48-26-3.21-5.82-5.56-12.21-11.06-16.44-1.26-1-3-1.38-4.46-2"/><path class="cls-6" d="M395.5,451c-4.36,1-6.79,4-8.57,8-2.56,5.79-5.43,11.45-8.48,17-2.16,3.94-1.76,7.48.56,11,2.89,4.43,6.27,5.39,11,3,5-2.58,9.94-5.45,15-7.94,4.37-2.14,5.51-5.85,4.89-10-.85-5.77-2.51-11.49-6.51-15.93-1.95-2.16-4.9-3.42-7.4-5.09"/><path class="cls-6" d="M391.5,137c-18.8,3.86-28.72,17.19-36,33.48-3.29,7.32-1.06,13.64,3.65,18.92,7,7.9,14.95,14.93,24.34,20.18a77.63,77.63,0,0,1,12.5,9c13.73,11.79,24.78,9.06,31.51-8.06,1-2.59,1.7-5.32,2.52-8,1.92-6.24,4.08-12.29,9-17,4.69-4.55,7.19-10.48,9.54-16.46,1.78-4.54-5.21-9.41-9-8.46S431.86,162.95,428,164c-14.79,4-22.18-2.67-27.41-13.52-.75-1.55-.54-3.63-.56-5.46-.08-6.19-1.47-7.61-8-8"/><path class="cls-6" d="M308.51,456c-8.67,1.67-17.32,3.41-26,4.92-1.4.24-3-.69-4.49-.9-6.87-1-10.2,2.77-8.61,9,1.67,6.54,2.11,13.39,3.77,19.93a13.29,13.29,0,0,0,4.94,7.39C286,501.39,288,509,289,517.47c.58,4.68,4.37,9.25,9,9.34,8.34.17,17.12,2,24.92-2,7.6-3.83,15-8,23-10.92,4.67-1.69,4.39-6,4-9.93-.88-8.51-1.64-17.06-3.08-25.48-.94-5.53-1.66-11.12-6.22-15.68A20,20,0,0,0,328,457.07c-6.29-.7-12.66-.76-19-1.09"/><path class="cls-6" d="M410.5,124.52c-.5.33-1.27.56-1.45,1a35.29,35.29,0,0,0-1.05,4c1,0,2.49.41,2.91-.08,1.23-1.45,3.13-3.25.09-4.92"/><path class="cls-6" d="M131,472.48c-7.1.68-11.55,4.47-14.62,10.94-3.67,7.74-9.15,14.7-12.12,22.65-3.14,8.38-1.81,17.45,1.33,25.87,1.94,5.21,5.1,7.33,10.87,5.86,13-3.31,25.46-8.71,32.76-20.5,4.22-6.82,7.41-15.51,3.58-23.73a80.18,80.18,0,0,0-12-17.9c-1.83-2.14-6.11-2.19-9.28-3.19"/><path class="cls-6" d="M308.51,473c-9.45,2.53-10.77,8.31-5.94,16,3.07,4.86,6.69,9.28,13.44,9.07,5.66-.17,11.28-3.77,12-8,1.2-7.11-2-14-8-15.87-3.45-1-7.29-.8-11-1.13"/><path class="cls-6" d="M676.47,476c-10.28,1.93-17.12,14-14.49,25.49,1.06,4.63,4.46,7.2,8.5,9,3.09,1.35,6.35,2.28,9.47,3.56,4.7,1.92,9.38,3.9,14,6,5.67,2.58,9.93.08,10-6,.12-9.39-2.6-18.21-6.64-26.43S686.54,474.93,677,476"/><path class="cls-6" d="M484.49,115c-5.73,1.34-9.92,4-11.1,10.48S476.5,138,483,136.9a81.81,81.81,0,0,0,16.44-4.57c2.12-.84,4.63-3.74,4.74-5.83.13-2.25-1.77-5.55-3.78-6.8A28.43,28.43,0,0,0,485,115"/><path class="cls-6" d="M772,534.47c-6.08,4.46-7.24,7.84-4.55,12,1.52,2.37,2.79,2.64,5.08,1,4.67-3.33,6-9.28,2.43-12.5-.54-.49-1.63-.38-2.46-.54"/><path class="cls-6" d="M129.53,128c-2.69,1.11-5.16,2.81-4.35,6,.57,2.2,2.4,4.15,4,5.89.2.21,3.22-1.24,3.68-2.42a11.67,11.67,0,0,0,.49-6.4c-.26-1.19-2.17-2-3.33-3"/><path class="cls-6" d="M673,222.51l-1.5.5c-5.63,1.76-7.28,5.57-2.88,10.39a15,15,0,0,0,7.93,4.31c1.35.24,4.07-2.4,4.78-4.26,1.43-3.77-.94-6.68-3.86-8.9a24.45,24.45,0,0,0-4-2"/><path class="cls-6" d="M724.46,108c-2.5.67-5.06,1.16-7.49,2a11.06,11.06,0,0,0-7,12.46c.84,4.43,4.93,7.32,10.5,7.51,7.09.23,13.65-.89,19.56-5.42,4.82-3.7,3.94-13.21-3.07-14.57-4-.77-8-1.35-12-2"/><path class="cls-6" d="M118.54,106c-5.6,2.78-7.5,7.35-7.61,13.5a56.08,56.08,0,0,0,5.77,26.92c2.1,4.12,5.6,7.66,8.91,11,3.55,3.59,7.41,1.15,10.37-1,9.66-7.1,12.63-16.42,10.33-28.46-1.57-8.2-4-14.94-11.26-19.46-5-3.13-10.55-2.45-16-2.49"/><path class="cls-6" d="M333.51,563c-3.83,1.83-8.08,3.12-11.4,5.63-4.57,3.47-4.53,5.52-1.59,10.86,3.47,6.32,8.4,10.93,15.48,13,8.11,2.39,17.29-3.38,18.58-10,2.11-10.8-1.33-17.61-9.61-19.39-3.5-.75-7.31-.13-11-.13"/><path class="cls-6" d="M245.52,100c-11.91,2.66-22.59,8.37-33.48,13.54-7.55,3.58-10.45,9.37-9,17,.93,4.91,8,10.6,14.49,10.37,12.7-.44,25.22-2.45,36.47-8.93,6-3.45,11-16.22,9-21.94-2.57-7.64-6.58-10-17-10"/><path class="cls-6" d="M177.53,564c-1.51,2.69-1.4,3.45,1,4.43.66.27,2.33-.17,2.36-.45.29-2.13,0-4-2.89-4"/><path class="cls-6" d="M723.46,96c-2.67.67-5.31,1.43-8,2-9.65,2-15.18,8-17,17.52-1.65,8.74,1.64,15.87,8.1,21.37a17.33,17.33,0,0,0,9.4,3.94c6.79.46,13.65-.11,20.48-.32a46.48,46.48,0,0,0,7.49-.53c7.57-1.48,13.33-6.23,15.75-13,2.9-8.18,1.94-16.53-4.69-23.45-5-5.22-10.74-7.94-18-7.5-4.32.26-8.66,0-13,0"/><path class="cls-6" d="M734.46,83c-5.5,1-11,1.82-16.48,3.06a85.1,85.1,0,0,0-11,3.47C695,94,689.41,104.22,685.21,115.12c-1.24,3.22-.45,7.92.91,11.34,6.05,15.21,16.63,24.71,33.84,25.66a104.91,104.91,0,0,1,20,3c9.8,2.5,17.84.41,24.53-7.12,3-3.35,6.3-6.45,8.92-10.06a18.57,18.57,0,0,0,3.06-16.44c-1.43-5.18-2.7-10.44-4.54-15.48C767.29,93.48,758.53,85.73,745,84c-3.32-.41-6.66-.68-10-1"/><path class="cls-6" d="M200.52,82c-9.17,5.83-19,10.85-27.26,17.78-5.78,4.86-6.12,13.26-5.12,20.7a47.66,47.66,0,0,0,6.22,18.61c3.43,5.7,7.63,9.43,14.16,10.39,10.81,1.59,21.58,2.38,32.51.61,7.25-1.17,14.64-1.49,22-2.08,11.53-.93,23-2,33.54-7.43,5.43-2.79,11.44-4.45,16.92-7.15,7.66-3.77,8.9-9,4-15.88a39,39,0,0,0-7-7.48c-6.52-5.34-13.31-10.35-19.94-15.57-10-7.85-20.7-8.83-32.56-4.64a58.37,58.37,0,0,1-17,2.92c-2.95.12-6.18-1.78-8.94-3.35-3.85-2.18-7.38-4.92-11-7.42"/><path class="cls-6" d="M256.52,33c-2.83.5-5.69.9-8.49,1.52-8.54,1.89-12.66,8.64-16.43,15.52-2.28,4.16-4.92,8.2-4.66,13.47.37,7.55,3,10.79,10.59,10.43A78.41,78.41,0,0,1,272,80.47c9.55,4,14.41,0,16-9.44,2.42-14.32-8.45-36.16-25.52-37a43.88,43.88,0,0,1-5.5-1"/><path class="cls-6" d="M165.53,236c-5.31,3.69-6.22,6.59-2.39,9.35,1.69,1.22,4.56.82,6.89,1.15.17-2.5.87-5.14.29-7.45-.33-1.3-2.79-2.05-4.29-3.05"/><path class="cls-6" d="M61.54,250c-13,2.12-20.65,11-28.14,20.89-9.12,12-14.93,25.53-20.79,39.13-1.51,3.5-5.15,5.85-4.72,10.48.3,3.22,1.62,5.82,4.18,6.33,9.7,1.94,19.48,5.18,29.43,2.06a34.11,34.11,0,0,0,16.07-10.37c5.8-6.79,4.94-14.25,3-22-1.07-4.29-1-8.25,2.34-12.09a60.3,60.3,0,0,0,8.93-13.48,23.81,23.81,0,0,0,2-11.4C73.39,252.61,67.76,251,62,250"/><path class="cls-6" d="M611.47,250l-6.5,1c-9.09,1.4-9.93,7.94-6,13.48a150.92,150.92,0,0,0,9.54,12.46c2.75,3.12,5.63,2.61,9,.12,7.58-5.66,6.69-13.75,6.26-21.54-.09-1.58-2.55-3.59-4.36-4.36-2.24-1-4.94-.81-7.44-1.15"/><path class="cls-6" d="M524.48,221c-6.67,2.5-13.34,5-20,7.51-3.47,1.33-6.58,3.28-6.38,7.48a8.59,8.59,0,0,0,2.44,4.95c3.49,3.67,7.23,7.1,11,10.54,2.42,2.24,5,2.19,7-.51,4.1-5.59,8-11.33,12-17,3.48-4.85,1.32-12.53-5.51-13"/></svg>