<svg id="Layer_1" data-name="Layer 1" xmlns="http://www.w3.org/2000/svg" xmlns:xlink="http://www.w3.org/1999/xlink" viewBox="0 0 806.67 600"><defs><style>.cls-1{fill:url(#linear-gradient);}</style><linearGradient id="linear-gradient" x1="590.8" y1="112.54" x2="215.87" y2="487.46" gradientUnits="userSpaceOnUse"><stop offset="0" stop-color="#ff425f"/><stop offset="1" stop-color="#eb2441"/></linearGradient></defs><title>video</title><path class="cls-1" d="M626.13,152.89H180.53A12.15,12.15,0,0,0,168.4,165V435a12.15,12.15,0,0,0,12.13,12.13h445.6A12.15,12.15,0,0,0,638.27,435V165A12.15,12.15,0,0,0,626.13,152.89ZM628.26,435a2.13,2.13,0,0,1-2.12,2.13H180.53a2.13,2.13,0,0,1-2.12-2.12V165a2.13,2.13,0,0,1,2.13-2.12h445.6a2.13,2.13,0,0,1,2.13,2.13ZM362.91,276a1,1,0,1,1,1.92-.82,28.38,28.38,0,0,0,6.88,9.52,1,1,0,0,1-1.44,1.52A30.42,30.42,0,0,1,362.91,276Zm96.49,25.58c0-.54,0-1.08,0-1.62a56.2,56.2,0,1,0-.08,3h0l.16-.4a1,1,0,0,0-.12-1Zm-8-11.55-.26.89c-.56,1.93-1.14,3.93-1.88,5.8-3.38,8.59-7.78,13.61-13.07,14.92-3.27.81-6.88.21-10.8-1.79l-1.1.63,8.48-4.9a6.49,6.49,0,0,0,0-11.23l.18.12a4.25,4.25,0,0,0,1.25-1.06,12.48,12.48,0,0,0,2.47-6.52,4.5,4.5,0,0,0-.26-1.56c-3.31-8.91-8.46-20.1-19-27.64a80.22,80.22,0,0,0-9.71-5.63l-2.34-1.22a49.19,49.19,0,0,1,46.08,39.2ZM386.87,271.6a6.42,6.42,0,0,0-3.25,5.62v1.46c-1.34-1.37-2.68-2.78-4-4.28-3.47-3.89-5.2-7.81-5.2-11.86a14.79,14.79,0,0,1,.25-2.53q-1.16.83-2.28,1.73a48.93,48.93,0,0,1,28.81-10.88q-.94,0-1.87.12c-3.71,2.22-6.15,5.32-6.93,8.95-.95,4.41.58,9.21,4.31,13.61l-3.36-1.94A6.41,6.41,0,0,0,386.87,271.6ZM388.38,329l-.13,0Zm-.76-.26a6.53,6.53,0,0,1-.75-.37A6.68,6.68,0,0,0,387.62,328.77Zm43.17-35.55-27.31-15.77c-.75-.69-1.49-1.38-2.2-2.09h0l-.14-.14q-1.15-1.15-2.24-2.35c-3.06-3.36-4.68-7-4.68-10.33a10.26,10.26,0,0,1,.23-2.16c.79-3.67,3.64-6.75,8-8.69,1.41.78,2.86,1.53,4.26,2.26a78.6,78.6,0,0,1,9.46,5.48c7.89,5.63,13.53,13.85,18.29,26.67a2.41,2.41,0,0,1,.13.84,10.44,10.44,0,0,1-2.07,5.28A3.81,3.81,0,0,1,430.79,293.22Zm-40.16-15.1L428.54,300l-37.91,21.88Zm-18.25-16.36c0,.26,0,.51,0,.77,0,4.56,1.91,9,5.72,13.28,1.85,2.07,3.71,4,5.57,5.86v12.69l-2.46-2a1,1,0,1,0-1.3,1.64c1.23,1,2.49,2,3.76,3v23.23c-5.22-5-10.6-10.11-15.39-15.54s-7.87-9.76-10-14.06a38.12,38.12,0,0,1-2-4.91,48.81,48.81,0,0,0-1.8,8.83A49.15,49.15,0,0,1,372.38,261.75Zm-18,32.85a75.48,75.48,0,0,0,9.94,13.59c5.05,5.73,10.65,11.06,16.07,16.21l.75.71c3.17,3,4.81,6.92,5.47,13a73,73,0,0,0,1.37,8.58A49.09,49.09,0,0,1,373.36,339c-.09-.39-.18-.78-.28-1.16-1.49-5.95-7.83-10.6-9.74-11.88-1.13-.76-2.19-1.53-3.19-2.33q.6,1.09,1.26,2.15A48.9,48.9,0,0,1,354.08,300,49.46,49.46,0,0,1,354.38,294.61Zm19,44.41q-1-.76-1.93-1.57Q372.37,338.25,373.36,339ZM363,328.25q.6.85,1.22,1.67Q363.63,329.1,363,328.25Zm-1.45-2.17q.58.92,1.19,1.82Q362.17,327,361.59,326.08Zm3,4.21q.64.81,1.3,1.59Q365.18,331.1,364.55,330.28Zm1.59,1.93q.69.79,1.41,1.56Q366.83,333,366.14,332.21Zm1.68,1.83q.76.79,1.55,1.54Q368.58,334.84,367.82,334Zm3.48,3.29q-.88-.75-1.72-1.55Q370.42,336.59,371.3,337.34Zm16.68,9.4a48.73,48.73,0,0,0,5.86,1.53A48.72,48.72,0,0,1,388,346.74Zm58.15-22.69q.44-.78.84-1.57a1,1,0,0,0-.14-.28,1,1,0,0,0-1.47-.18,25.13,25.13,0,0,1-8.93,4.4l-1.74.47a1,1,0,1,0,.53,2l1.76-.47a27.31,27.31,0,0,0,9.15-4.39,49.11,49.11,0,0,1-52.29,24.22c-.2-.53-.38-1.08-.53-1.66a62.47,62.47,0,0,1-1.51-9,33.4,33.4,0,0,0-1.85-8.34h.16a6.46,6.46,0,0,0,3.24-.88l30-17.29a20.47,20.47,0,0,0,10,3,14.07,14.07,0,0,0,3.4-.41c6-1.48,10.87-6.93,14.51-16.19.34-.87.65-1.76.93-2.65q-.13-1.21-.31-2.42a49.88,49.88,0,0,1,.58,7.55A48.86,48.86,0,0,1,446.13,324.05Zm5.3-34q.24,1.18.42,2.37Q451.68,291.24,451.44,290.06ZM424.1,330.72a1,1,0,0,1-.72,1.29q-2.05.57-4.09,1.21a7.75,7.75,0,0,1-2.33.4,5,5,0,0,1-4.63-3.11c-.19-.36-.36-.74-.51-1.12a1,1,0,1,1,1.93-.8c.14.33.28.65.44,1,1,1.93,2.29,2.37,4.48,1.68q2.07-.65,4.15-1.23A1,1,0,0,1,424.1,330.72ZM388,199H206.57V189H388Z"/></svg>